<svg xmlns="http://www.w3.org/2000/svg" xmlns:xlink="http://www.w3.org/1999/xlink" version="1.1" viewBox="0 0 2500 500" style="background: #ffffff"><defs><style>@import url(https://fonts.googleapis.com/css?family=Open+Sans:400,700);</style></defs><g transform="translate(25,100)"><rect width="450" height="300" rx="20" ry="20" x="0" y="0" fill="#ffe8e0" stroke-width="6" stroke="#e76f51"/><text x="225" y="132" text-anchor="middle" fill="#e76f51" font-size="30px" font-family="Open Sans"><tspan x="225" dy="40px">external</tspan></text></g><g transform="translate(525,55.5)"><polygon points="112.5,0 337.5,0 450,194.5 337.5,389 112.5,389 0,194.5" fill="#d6f0ff" stroke-width="7" stroke="#057276"/><text x="225" y="176.5" text-anchor="middle" fill="#003049" font-size="30px" font-family="Open Sans"><tspan x="225" dy="40px">internal</tspan></text></g><g transform="translate(1025,100)"><rect width="150" height="75" rx="15" ry="15" x="15" y="0" fill="#d6f0ff" stroke-width="7" stroke="#057276"/><rect width="450" height="262.5" rx="6" ry="6" x="0" y="37.5" fill="#d6f0ff" stroke-width="7" stroke="#057276"/><text x="225" y="150.75" text-anchor="middle" fill="#000000" font-size="30px" font-family="Open Sans"><tspan x="225" dy="40px">platform</tspan></text></g><g transform="translate(1525,170)"><path d="M390,0 L390,60 L450,30 L 390,0" style="fill:#707070" stroke-dasharray="" /><path d="M0,30 L390,30" style="stroke:#707070; stroke-width: 6; fill: none; stroke-dasharray: 30 30;" /><text x="225" y="77" text-anchor="middle" fill="#707070" font-size="30px" font-family="Open Sans"><tspan x="225" dy="40px">Relationship</tspan></text></g></svg>