<svg xmlns="http://www.w3.org/2000/svg" xmlns:xlink="http://www.w3.org/1999/xlink" version="1.1" viewBox="0 0 2200 1400" style="background: #ffffff"><defs><style>@import url(https://fonts.googleapis.com/css?family=Open+Sans:400,700);</style></defs><defs joint-selector="defs"></defs><g joint-selector="layers"  transform="matrix(1,0,0,1,0,0)"><g ></g><g ><!--z-index:0--><!--z-index:1--><!--z-index:2--><!--z-index:3--><!--z-index:4--><!--z-index:5--><!--z-index:6--><!--z-index:7--><!--z-index:8--><!--z-index:9--><g   id="j_67"  transform="translate(20,1363.6)"><g id="v-787"><text  id="v-788" font-size="22px" xml:space="preserve" y="0.8em" font-weight="normal" text-anchor="start" fill="#aaaaaa" pointer-events="none" display="block" font-family="Open Sans"><tspan dy="0"  display="none">Thursday, July 17, 2025 at 9:34 AM West Africa Standard Time</tspan></text></g></g><!--z-index:10--><g   id="j_66"  transform="translate(20,1337.1999999999998)"><g id="v-785"><text  id="v-786" font-size="22px" xml:space="preserve" y="0.8em" font-weight="normal" text-anchor="start" fill="#aaaaaa" pointer-events="none" display="block" font-family="Open Sans"><tspan dy="0"  display="none">High-level overview showing users and external systems interacting with the credit application platform.</tspan></text></g></g><!--z-index:11--><g   id="j_65"  transform="translate(20,1293.9999999999998)"><g id="v-783"><text  id="v-784" font-size="36px" xml:space="preserve" y="0.8em" font-weight="normal" text-anchor="start" fill="#000000" pointer-events="none" display="block" font-family="Open Sans"><tspan dy="0"  display="none">System Context - Credit Application Platform</tspan></text></g></g><!--z-index:12--><g   id="j_68"  transform="translate(200,152)" style=""><g  id="v-792" style="opacity: 1;"><rect  x="0" y="160" width="400" height="240" rx="70" id="v-794" stroke="#0dbdc2" stroke-width="2" pointer-events="visiblePainted" fill="#0ed2d8" style="fill: rgb(14, 210, 216); stroke: rgb(13, 189, 194);"></rect><circle  cx="200" cy="88.88888888888889" r="88.88888888888889" id="v-793" stroke="#0dbdc2" stroke-width="2" pointer-events="visiblePainted" fill="#0ed2d8" style="fill: rgb(14, 210, 216); stroke: rgb(13, 189, 194);"></circle><line  x1="80" y1="266.6666666666667" x2="80" y2="400" id="v-800" stroke="#0dbdc2" stroke-width="2" style="stroke: rgb(13, 189, 194);"></line><line  x1="320" y1="266.6666666666667" x2="320" y2="400" id="v-801" stroke="#0dbdc2" stroke-width="2" style="stroke: rgb(13, 189, 194);"></line><text  id="v-795" font-size="34" xml:space="preserve" y="0.8em" font-weight="bold" text-anchor="middle" pointer-events="visible" font-family="Open Sans" fill="#ffffff" transform="matrix(1,0,0,1,200,218.1)" style="fill: rgb(255, 255, 255);"><tspan dy="0" >Applicant</tspan></text><text  id="v-796" font-size="17" xml:space="preserve" y="0.8em" text-anchor="middle" font-family="Open Sans" fill="#ffffff" transform="matrix(1,0,0,1,200,258.9)" style="fill: rgb(255, 255, 255);"><tspan dy="0" >[Person]</tspan></text><text  id="v-797" font-size="24" xml:space="preserve" y="0.8em" text-anchor="middle" font-family="Open Sans" fill="#ffffff" transform="matrix(1,0,0,1,200,289.3)" style="fill: rgb(255, 255, 255);"><tspan dy="0" >A user applying for a</tspan><tspan dy="1.2em" x="0" >cross-border credit.</tspan></text><g  id="v-798" font-weight="normal" text-anchor="middle" color="#ffffff" transform="matrix(1,0,0,1,197.5,368)" display="none" style="fill: rgb(255, 255, 255);"><g ></g><g ></g><g ></g><g ></g></g><image  id="v-799"></image></g></g><!--z-index:13--><g   id="j_69"  transform="translate(900,152)" style=""><g  id="v-805" style="opacity: 1;"><rect  x="0" y="160" width="400" height="240" rx="70" id="v-807" stroke="#0dbdc2" stroke-width="2" pointer-events="visiblePainted" fill="#0ed2d8" style="fill: rgb(14, 210, 216); stroke: rgb(13, 189, 194);"></rect><circle  cx="200" cy="88.88888888888889" r="88.88888888888889" id="v-806" stroke="#0dbdc2" stroke-width="2" pointer-events="visiblePainted" fill="#0ed2d8" style="fill: rgb(14, 210, 216); stroke: rgb(13, 189, 194);"></circle><line  x1="80" y1="266.6666666666667" x2="80" y2="400" id="v-813" stroke="#0dbdc2" stroke-width="2" style="stroke: rgb(13, 189, 194);"></line><line  x1="320" y1="266.6666666666667" x2="320" y2="400" id="v-814" stroke="#0dbdc2" stroke-width="2" style="stroke: rgb(13, 189, 194);"></line><text  id="v-808" font-size="34" xml:space="preserve" y="0.8em" font-weight="bold" text-anchor="middle" pointer-events="visible" font-family="Open Sans" fill="#ffffff" transform="matrix(1,0,0,1,200,203.7)" style="fill: rgb(255, 255, 255);"><tspan dy="0" >Credit Officer</tspan></text><text  id="v-809" font-size="17" xml:space="preserve" y="0.8em" text-anchor="middle" font-family="Open Sans" fill="#ffffff" transform="matrix(1,0,0,1,200,244.5)" style="fill: rgb(255, 255, 255);"><tspan dy="0" >[Person]</tspan></text><text  id="v-810" font-size="24" xml:space="preserve" y="0.8em" text-anchor="middle" font-family="Open Sans" fill="#ffffff" transform="matrix(1,0,0,1,200,274.9)" style="fill: rgb(255, 255, 255);"><tspan dy="0" >A bank or institution</tspan><tspan dy="1.2em" x="0" >representative reviewing and</tspan><tspan dy="1.2em" x="0" >deciding on credit applications.</tspan></text><g  id="v-811" font-weight="normal" text-anchor="middle" color="#ffffff" transform="matrix(1,0,0,1,197.5,368)" display="none" style="fill: rgb(255, 255, 255);"><g ></g><g ></g><g ></g><g ></g></g><image  id="v-812"></image></g></g><!--z-index:14--><g   id="j_70"  transform="translate(1600,152)" style=""><g  id="v-818" style="opacity: 1;"><rect  x="0" y="160" width="400" height="240" rx="70" id="v-820" stroke="#0dbdc2" stroke-width="2" pointer-events="visiblePainted" fill="#0ed2d8" style="fill: rgb(14, 210, 216); stroke: rgb(13, 189, 194);"></rect><circle  cx="200" cy="88.88888888888889" r="88.88888888888889" id="v-819" stroke="#0dbdc2" stroke-width="2" pointer-events="visiblePainted" fill="#0ed2d8" style="fill: rgb(14, 210, 216); stroke: rgb(13, 189, 194);"></circle><line  x1="80" y1="266.6666666666667" x2="80" y2="400" id="v-826" stroke="#0dbdc2" stroke-width="2" style="stroke: rgb(13, 189, 194);"></line><line  x1="320" y1="266.6666666666667" x2="320" y2="400" id="v-827" stroke="#0dbdc2" stroke-width="2" style="stroke: rgb(13, 189, 194);"></line><text  id="v-821" font-size="34" xml:space="preserve" y="0.8em" font-weight="bold" text-anchor="middle" pointer-events="visible" font-family="Open Sans" fill="#ffffff" transform="matrix(1,0,0,1,200,203.7)" style="fill: rgb(255, 255, 255);"><tspan dy="0" >Platform Admin</tspan></text><text  id="v-822" font-size="17" xml:space="preserve" y="0.8em" text-anchor="middle" font-family="Open Sans" fill="#ffffff" transform="matrix(1,0,0,1,200,244.5)" style="fill: rgb(255, 255, 255);"><tspan dy="0" >[Person]</tspan></text><text  id="v-823" font-size="24" xml:space="preserve" y="0.8em" text-anchor="middle" font-family="Open Sans" fill="#ffffff" transform="matrix(1,0,0,1,200,274.9)" style="fill: rgb(255, 255, 255);"><tspan dy="0" >An internal admin who</tspan><tspan dy="1.2em" x="0" >manages users, settings, and</tspan><tspan dy="1.2em" x="0" >system configurations.</tspan></text><g  id="v-824" font-weight="normal" text-anchor="middle" color="#ffffff" transform="matrix(1,0,0,1,197.5,368)" display="none" style="fill: rgb(255, 255, 255);"><g ></g><g ></g><g ></g><g ></g></g><image  id="v-825"></image></g></g><!--z-index:15--><g   id="j_71"  transform="translate(875,852)" style=""><g  id="v-834" style="opacity: 1;"><rect  id="v-835" rx="10" ry="10" stroke="#057276" stroke-width="7" pointer-events="visiblePainted" fill="#d6f0ff" x="10" y="0" width="150" height="75" style="fill: rgb(214, 240, 255); stroke: rgb(5, 114, 118);"></rect><rect  id="v-836" rx="5" ry="5" stroke="#057276" stroke-width="7" pointer-events="visiblePainted" fill="#d6f0ff" x="0" y="37.5" width="450" height="262.5" style="fill: rgb(214, 240, 255); stroke: rgb(5, 114, 118);"></rect><text  id="v-837" font-size="34" xml:space="preserve" y="0.8em" font-weight="bold" text-anchor="middle" pointer-events="visible" font-family="Open Sans" fill="#000000" transform="matrix(1,0,0,1,225,57.7)" style="fill: rgb(0, 0, 0);"><tspan dy="0" >Credit Application</tspan><tspan dy="1.2em" x="0" >Platform</tspan></text><text  id="v-838" font-size="17" xml:space="preserve" y="0.8em" text-anchor="middle" font-family="Open Sans" fill="#000000" transform="matrix(1,0,0,1,225,139.3)" style="fill: rgb(0, 0, 0);"><tspan dy="0" >[Software System]</tspan></text><text  id="v-839" font-size="24" xml:space="preserve" y="0.8em" text-anchor="middle" font-family="Open Sans" fill="#000000" transform="matrix(1,0,0,1,225,169.7)" style="fill: rgb(0, 0, 0);"><tspan dy="0" >A web platform that enables users</tspan><tspan dy="1.2em" x="0" >to apply for cross-border credit and</tspan><tspan dy="1.2em" x="0" >allows financial institutions to</tspan><tspan dy="1.2em" x="0" >review applications.</tspan></text><g  id="v-840" font-weight="normal" text-anchor="middle" color="#000000" transform="matrix(1,0,0,1,210,268)" display="none" style="fill: rgb(0, 0, 0);"><g  transform="translate(5 0)"><svg xmlns="http://www.w3.org/2000/svg" width="20" height="20" fill="currentColor" viewBox="0 0 16 16"><path fill-rule="evenodd" d="M6.5 12a5.5 5.5 0 1 0 0-11 5.5 5.5 0 0 0 0 11zM13 6.5a6.5 6.5 0 1 1-13 0 6.5 6.5 0 0 1 13 0z"></path><path d="M10.344 11.742c.03.04.062.078.098.115l3.85 3.85a1 1 0 0 0 1.415-1.414l-3.85-3.85a1.007 1.007 0 0 0-.115-.1 6.538 6.538 0 0 1-1.398 1.4z"></path><path fill-rule="evenodd" d="M6.5 3a.5.5 0 0 1 .5.5V6h2.5a.5.5 0 0 1 0 1H7v2.5a.5.5 0 0 1-1 0V7H3.5a.5.5 0 0 1 0-1H6V3.5a.5.5 0 0 1 .5-.5z"></path></svg></g><g ></g><g ></g><g ></g></g><image  id="v-841"></image></g></g><!--z-index:16--><g   id="j_72" ><path  stroke="#707070" d="M 600 538 L 938 852" id="v-854" stroke-width="2" stroke-dasharray="30 30" fill="none" style="opacity: 1;"></path><path  fill="black" stroke="black" d="M 0 0 0 0" transform="matrix(0.7327873441550872,0.6804577196609161,-0.6804577196609161,0.7327873441550872,600,537.7100219726562)"></path><path  fill="#707070" stroke="#707070" d="M 20 0 L 0 10 L 20 20 z" id="v-856" transform="matrix(-0.7327872988508725,-0.680457768449183,0.680457768449183,-0.7327872988508725,931.6554364172981,859.3278852433131)" style="opacity: 1;"></path><path  d="M 600 538 L 938 852" id="v-855" fill="none" style="cursor: auto; pointer-events: visiblepainted;"></path><g ><g id="v-848"  label-idx="0" cursor="move" transform="matrix(1,0,0,1,769,695)" style="cursor: default; opacity: 1;"><rect joint-selector="rect" id="v-851" fill="#ffffff" rx="3" ry="3" pointer-events="none" width="184.2919158935547" height="118.85892105102539" transform="matrix(1,0,0,1,-91.9,-59.4)"></rect><text joint-selector="text" id="v-850" font-size="24px" xml:space="preserve" y="0.8em" fill="#707070" text-anchor="middle" pointer-events="none" font-family="Open Sans" font-weight="normal" transform="matrix(1,0,0,1,0,-53.8)"><tspan dy="0" >Submits credit</tspan><tspan dy="1.2em" x="0" >applications and</tspan><tspan dy="1.2em" x="0" >tracks their</tspan><tspan dy="1.2em" x="0" >status</tspan></text></g><g id="v-849"  label-idx="1" cursor="move" transform="matrix(1,0,0,1,759,764.5999755859375)" style="cursor: default; opacity: 1;"><rect joint-selector="rect" id="v-853" fill="#ffffff" rx="3" ry="3"  width="0" height="0" transform="matrix(1,0,0,1,0,0)" display="none"></rect><text joint-selector="text" id="v-852" fill="#000000" font-size="14" text-anchor="middle" pointer-events="none"></text></g></g><g  display="none" style="display: none;"></g><g  id="v-858" display="none"><g  id="v-846"><path  end="source" d="M 26 0 L 0 13 L 26 26 z"></path></g><g  id="v-847"><path  end="target" d="M 26 0 L 0 13 L 26 26 z"></path></g></g><g  id="v-857" display="none"><g  id="v-845" transform="translate(629.305562817114, 565.2246944514018) "><g  event="remove"><circle r="11"></circle><path transform="scale(.8) translate(-16, -16)" d="M24.778,21.419 19.276,15.917 24.777,10.415 21.949,7.585 16.447,13.087 10.945,7.585 8.117,10.415 13.618,15.917 8.116,21.419 10.946,24.248 16.447,18.746 21.948,24.248z"></path><title>Remove link.</title></g><g  event="link:options"><circle r="11" transform="translate(25)"></circle><path fill="white" transform="scale(.55) translate(29, -16)" d="M31.229,17.736c0.064-0.571,0.104-1.148,0.104-1.736s-0.04-1.166-0.104-1.737l-4.377-1.557c-0.218-0.716-0.504-1.401-0.851-2.05l1.993-4.192c-0.725-0.91-1.549-1.734-2.458-2.459l-4.193,1.994c-0.647-0.347-1.334-0.632-2.049-0.849l-1.558-4.378C17.165,0.708,16.588,0.667,16,0.667s-1.166,0.041-1.737,0.105L12.707,5.15c-0.716,0.217-1.401,0.502-2.05,0.849L6.464,4.005C5.554,4.73,4.73,5.554,4.005,6.464l1.994,4.192c-0.347,0.648-0.632,1.334-0.849,2.05l-4.378,1.557C0.708,14.834,0.667,15.412,0.667,16s0.041,1.165,0.105,1.736l4.378,1.558c0.217,0.715,0.502,1.401,0.849,2.049l-1.994,4.193c0.725,0.909,1.549,1.733,2.459,2.458l4.192-1.993c0.648,0.347,1.334,0.633,2.05,0.851l1.557,4.377c0.571,0.064,1.148,0.104,1.737,0.104c0.588,0,1.165-0.04,1.736-0.104l1.558-4.377c0.715-0.218,1.399-0.504,2.049-0.851l4.193,1.993c0.909-0.725,1.733-1.549,2.458-2.458l-1.993-4.193c0.347-0.647,0.633-1.334,0.851-2.049L31.229,17.736zM16,20.871c-2.69,0-4.872-2.182-4.872-4.871c0-2.69,2.182-4.872,4.872-4.872c2.689,0,4.871,2.182,4.871,4.872C20.871,18.689,18.689,20.871,16,20.871z"></path><title>Link options.</title></g></g></g></g><!--z-index:17--><g   id="j_73" ><path  stroke="#707070" d="M 1100 552 L 1100 852" id="v-871" stroke-width="2" stroke-dasharray="30 30" fill="none" style="opacity: 1;"></path><path  fill="black" stroke="black" d="M 0 0 0 0" transform="matrix(6.123233995736766e-17,1,-1,6.123233995736766e-17,1100,552)"></path><path  fill="#707070" stroke="#707070" d="M 20 0 L 0 10 L 20 20 z" id="v-873" transform="matrix(-1.8369701987210297e-16,-1,1,-1.8369701987210297e-16,1090,852)" style="opacity: 1;"></path><path  d="M 1100 552 L 1100 852" id="v-872" fill="none" style="cursor: auto; pointer-events: visiblepainted;"></path><g ><g id="v-865"  label-idx="0" cursor="move" transform="matrix(1,0,0,1,1100,702)" style="cursor: default; opacity: 1;"><rect joint-selector="rect" id="v-868" fill="#ffffff" rx="3" ry="3" pointer-events="none" width="172.73257446289062" height="90.05891799926758" transform="matrix(1,0,0,1,-85.9,-45)"></rect><text joint-selector="text" id="v-867" font-size="24px" xml:space="preserve" y="0.8em" fill="#707070" text-anchor="middle" pointer-events="none" font-family="Open Sans" font-weight="normal" transform="matrix(1,0,0,1,0,-39.4)"><tspan dy="0" >Reviews and</tspan><tspan dy="1.2em" x="0" >manages credit</tspan><tspan dy="1.2em" x="0" >applications</tspan></text></g><g id="v-866"  label-idx="1" cursor="move" transform="matrix(1,0,0,1,1090,757.2000122070312)" style="cursor: default; opacity: 1;"><rect joint-selector="rect" id="v-870" fill="#ffffff" rx="3" ry="3"  width="0" height="0" transform="matrix(1,0,0,1,0,0)" display="none"></rect><text joint-selector="text" id="v-869" fill="#000000" font-size="14" text-anchor="middle" pointer-events="none"></text></g></g><g  display="none" style="display: none;"></g><g  id="v-875" display="none"><g  id="v-863"><path  end="source" d="M 26 0 L 0 13 L 26 26 z"></path></g><g  id="v-864"><path  end="target" d="M 26 0 L 0 13 L 26 26 z"></path></g></g><g  id="v-874" display="none"><g  id="v-862" transform="translate(1100, 592) "><g  event="remove"><circle r="11"></circle><path transform="scale(.8) translate(-16, -16)" d="M24.778,21.419 19.276,15.917 24.777,10.415 21.949,7.585 16.447,13.087 10.945,7.585 8.117,10.415 13.618,15.917 8.116,21.419 10.946,24.248 16.447,18.746 21.948,24.248z"></path><title>Remove link.</title></g><g  event="link:options"><circle r="11" transform="translate(25)"></circle><path fill="white" transform="scale(.55) translate(29, -16)" d="M31.229,17.736c0.064-0.571,0.104-1.148,0.104-1.736s-0.04-1.166-0.104-1.737l-4.377-1.557c-0.218-0.716-0.504-1.401-0.851-2.05l1.993-4.192c-0.725-0.91-1.549-1.734-2.458-2.459l-4.193,1.994c-0.647-0.347-1.334-0.632-2.049-0.849l-1.558-4.378C17.165,0.708,16.588,0.667,16,0.667s-1.166,0.041-1.737,0.105L12.707,5.15c-0.716,0.217-1.401,0.502-2.05,0.849L6.464,4.005C5.554,4.73,4.73,5.554,4.005,6.464l1.994,4.192c-0.347,0.648-0.632,1.334-0.849,2.05l-4.378,1.557C0.708,14.834,0.667,15.412,0.667,16s0.041,1.165,0.105,1.736l4.378,1.558c0.217,0.715,0.502,1.401,0.849,2.049l-1.994,4.193c0.725,0.909,1.549,1.733,2.459,2.458l4.192-1.993c0.648,0.347,1.334,0.633,2.05,0.851l1.557,4.377c0.571,0.064,1.148,0.104,1.737,0.104c0.588,0,1.165-0.04,1.736-0.104l1.558-4.377c0.715-0.218,1.399-0.504,2.049-0.851l4.193,1.993c0.909-0.725,1.733-1.549,2.458-2.458l-1.993-4.193c0.347-0.647,0.633-1.334,0.851-2.049L31.229,17.736zM16,20.871c-2.69,0-4.872-2.182-4.872-4.871c0-2.69,2.182-4.872,4.872-4.872c2.689,0,4.871,2.182,4.871,4.872C20.871,18.689,18.689,20.871,16,20.871z"></path><title>Link options.</title></g></g></g></g><!--z-index:18--><g   id="j_74" ><path  stroke="#707070" d="M 1600 538 L 1262 852" id="v-888" stroke-width="2" stroke-dasharray="30 30" fill="none" style="opacity: 1;"></path><path  fill="black" stroke="black" d="M 0 0 0 0" transform="matrix(-0.7327872988508723,0.6804577684491833,-0.6804577684491833,-0.7327872988508723,1600,537.7100219726562)"></path><path  fill="#707070" stroke="#707070" d="M 20 0 L 0 10 L 20 20 z" id="v-890" transform="matrix(0.7327872988508726,-0.680457768449183,0.680457768449183,0.7327872988508726,1254.7354692488743,844.6721392662955)" style="opacity: 1;"></path><path  d="M 1600 538 L 1262 852" id="v-889" fill="none" style="cursor: auto; pointer-events: visiblepainted;"></path><g ><g id="v-882"  label-idx="0" cursor="move" transform="matrix(1,0,0,1,1431,695)" style="cursor: default; opacity: 1;"><rect joint-selector="rect" id="v-885" fill="#ffffff" rx="3" ry="3" pointer-events="none" width="167.93312072753906" height="90.05891799926758" transform="matrix(1,0,0,1,-84,-45)"></rect><text joint-selector="text" id="v-884" font-size="24px" xml:space="preserve" y="0.8em" fill="#707070" text-anchor="middle" pointer-events="none" font-family="Open Sans" font-weight="normal" transform="matrix(1,0,0,1,0,-39.4)"><tspan dy="0" >Manages users</tspan><tspan dy="1.2em" x="0" >and system</tspan><tspan dy="1.2em" x="0" >configuration</tspan></text></g><g id="v-883"  label-idx="1" cursor="move" transform="matrix(1,0,0,1,1421,750.2000122070312)" style="cursor: default; opacity: 1;"><rect joint-selector="rect" id="v-887" fill="#ffffff" rx="3" ry="3"  width="0" height="0" transform="matrix(1,0,0,1,0,0)" display="none"></rect><text joint-selector="text" id="v-886" fill="#000000" font-size="14" text-anchor="middle" pointer-events="none"></text></g></g><g  display="none" style="display: none;"></g><g  id="v-892" display="none"><g  id="v-880"><path  end="source" d="M 26 0 L 0 13 L 26 26 z"></path></g><g  id="v-881"><path  end="target" d="M 26 0 L 0 13 L 26 26 z"></path></g></g><g  id="v-891" display="none"><g  id="v-879" transform="translate(1570.694437182886, 565.2246944514018) "><g  event="remove"><circle r="11"></circle><path transform="scale(.8) translate(-16, -16)" d="M24.778,21.419 19.276,15.917 24.777,10.415 21.949,7.585 16.447,13.087 10.945,7.585 8.117,10.415 13.618,15.917 8.116,21.419 10.946,24.248 16.447,18.746 21.948,24.248z"></path><title>Remove link.</title></g><g  event="link:options"><circle r="11" transform="translate(25)"></circle><path fill="white" transform="scale(.55) translate(29, -16)" d="M31.229,17.736c0.064-0.571,0.104-1.148,0.104-1.736s-0.04-1.166-0.104-1.737l-4.377-1.557c-0.218-0.716-0.504-1.401-0.851-2.05l1.993-4.192c-0.725-0.91-1.549-1.734-2.458-2.459l-4.193,1.994c-0.647-0.347-1.334-0.632-2.049-0.849l-1.558-4.378C17.165,0.708,16.588,0.667,16,0.667s-1.166,0.041-1.737,0.105L12.707,5.15c-0.716,0.217-1.401,0.502-2.05,0.849L6.464,4.005C5.554,4.73,4.73,5.554,4.005,6.464l1.994,4.192c-0.347,0.648-0.632,1.334-0.849,2.05l-4.378,1.557C0.708,14.834,0.667,15.412,0.667,16s0.041,1.165,0.105,1.736l4.378,1.558c0.217,0.715,0.502,1.401,0.849,2.049l-1.994,4.193c0.725,0.909,1.549,1.733,2.459,2.458l4.192-1.993c0.648,0.347,1.334,0.633,2.05,0.851l1.557,4.377c0.571,0.064,1.148,0.104,1.737,0.104c0.588,0,1.165-0.04,1.736-0.104l1.558-4.377c0.715-0.218,1.399-0.504,2.049-0.851l4.193,1.993c0.909-0.725,1.733-1.549,2.458-2.458l-1.993-4.193c0.347-0.647,0.633-1.334,0.851-2.049L31.229,17.736zM16,20.871c-2.69,0-4.872-2.182-4.872-4.871c0-2.69,2.182-4.872,4.872-4.872c2.689,0,4.871,2.182,4.871,4.872C20.871,18.689,18.689,20.871,16,20.871z"></path><title>Link options.</title></g></g></g></g><!--z-index:19--><!--z-index:20--><!--z-index:21--><!--z-index:22--><!--z-index:23--><!--z-index:24--><!--z-index:25--><!--z-index:26--><!--z-index:27--><!--z-index:28--><!--z-index:29--><!--z-index:30--><!--z-index:31--><!--z-index:32--><!--z-index:33--><!--z-index:34--><!--z-index:35--><!--z-index:36--><!--z-index:37--><!--z-index:38--><!--z-index:39--><!--z-index:40--><!--z-index:41--><!--z-index:42--><!--z-index:43--><!--z-index:44--><!--z-index:45--><!--z-index:46--></g><g ></g><g ></g><g ></g></g></svg>