<svg xmlns="http://www.w3.org/2000/svg" xmlns:xlink="http://www.w3.org/1999/xlink" version="1.1" viewBox="0 0 3820 4411" style="background: #ffffff"><defs><style>@import url(https://fonts.googleapis.com/css?family=Open+Sans:400,700);</style></defs><defs joint-selector="defs"></defs><g joint-selector="layers"  transform="matrix(1,0,0,1,0,0)"><g ></g><g ><!--z-index:0--><!--z-index:1--><!--z-index:2--><!--z-index:3--><!--z-index:4--><!--z-index:5--><!--z-index:6--><!--z-index:7--><!--z-index:8--><!--z-index:9--><!--z-index:10--><!--z-index:11--><!--z-index:12--><!--z-index:13--><!--z-index:14--><!--z-index:15--><!--z-index:16--><!--z-index:17--><!--z-index:18--><!--z-index:19--><!--z-index:20--><!--z-index:21--><!--z-index:22--><!--z-index:23--><!--z-index:24--><!--z-index:25--><!--z-index:26--><g   id="j_3"  transform="translate(20,4374.6)"><g id="v-7"><text  id="v-8" font-size="22px" xml:space="preserve" y="0.8em" font-weight="normal" text-anchor="start" fill="#aaaaaa" pointer-events="none" display="block" font-family="Open Sans"><tspan dy="0"  display="none">Thursday, July 17, 2025 at 11:21 AM West Africa Standard Time</tspan></text></g></g><!--z-index:27--><g   id="j_2"  transform="translate(20,4348.200000000001)"><g id="v-5"><text  id="v-6" font-size="22px" xml:space="preserve" y="0.8em" font-weight="normal" text-anchor="start" fill="#aaaaaa" pointer-events="none" display="block" font-family="Open Sans"><tspan dy="0"  display="none">Clean architecture components of the Profile Service with NestJS conventions</tspan></text></g></g><!--z-index:28--><g   id="j_1"  transform="translate(20,4305.000000000001)"><g id="v-3"><text  id="v-4" font-size="36px" xml:space="preserve" y="0.8em" font-weight="normal" text-anchor="start" fill="#000000" pointer-events="none" display="block" font-family="Open Sans"><tspan dy="0"  display="none">Component Diagram - Profile Service (NestJS)</tspan></text></g></g><!--z-index:29--><g   id="j_4"  transform="translate(200,1921)" style=""><g  id="v-12" style="opacity: 1;"><rect  x="0" y="160" width="400" height="240" rx="70" id="v-14" stroke="#05a1c8" stroke-width="2" pointer-events="visiblePainted" fill="#06b3de" style="fill: rgb(6, 179, 222); stroke: rgb(5, 161, 200);"></rect><circle  cx="200" cy="88.88888888888889" r="88.88888888888889" id="v-13" stroke="#05a1c8" stroke-width="2" pointer-events="visiblePainted" fill="#06b3de" style="fill: rgb(6, 179, 222); stroke: rgb(5, 161, 200);"></circle><line  x1="80" y1="266.6666666666667" x2="80" y2="400" id="v-20" stroke="#05a1c8" stroke-width="2" style="stroke: rgb(5, 161, 200);"></line><line  x1="320" y1="266.6666666666667" x2="320" y2="400" id="v-21" stroke="#05a1c8" stroke-width="2" style="stroke: rgb(5, 161, 200);"></line><text  id="v-15" font-size="34" xml:space="preserve" y="0.8em" font-weight="bold" text-anchor="middle" pointer-events="visible" font-family="Open Sans" fill="#ffffff" transform="matrix(1,0,0,1,200,232.5)" style="fill: rgb(255, 255, 255);"><tspan dy="0" >End User</tspan></text><text  id="v-16" font-size="17" xml:space="preserve" y="0.8em" text-anchor="middle" font-family="Open Sans" fill="#ffffff" transform="matrix(1,0,0,1,200,273.3)" style="fill: rgb(255, 255, 255);"><tspan dy="0" >[Person]</tspan></text><text  id="v-17" font-size="24" xml:space="preserve" y="0.8em" text-anchor="middle" font-family="Open Sans" fill="#ffffff" transform="matrix(1,0,0,1,200,303.7)" style="fill: rgb(255, 255, 255);"><tspan dy="0" >Manages their own profile data</tspan></text><g  id="v-18" font-weight="normal" text-anchor="middle" color="#ffffff" transform="matrix(1,0,0,1,197.5,368)" display="none" style="fill: rgb(255, 255, 255);"><g ></g><g ></g><g ></g><g ></g></g><image  id="v-19"></image></g></g><!--z-index:30--><g   id="j_6"  transform="translate(880,151)" style=""><g id="v-35"><rect  id="v-36" width="2740" height="4011" rx="0" ry="0" fill="#ffffff" stroke="#c7c7c7" stroke-width="1" stroke-dasharray="20,20" pointer-events="none"></rect><text  id="v-37" font-size="24px" xml:space="preserve" y="3972" font-weight="normal" fill="#c7c7c7" text-anchor="start" pointer-events="visible" font-family="Open Sans" transform="matrix(1,0,0,1,15,0)"><tspan dy="0" >Profile Service</tspan></text><text  id="v-38" font-size="17px" xml:space="preserve" y="3996" font-weight="normal" fill="#c7c7c7" text-anchor="start" pointer-events="visible" font-family="Open Sans" transform="matrix(1,0,0,1,15,0)"><tspan dy="0" >[Software System]</tspan></text><image  id="v-39" pointer-events="visible"></image></g></g><!--z-index:31--><g   id="j_5"  transform="translate(900,1971)" style=""><g  id="v-28" style="opacity: 1;"><rect  id="v-29" rx="20" ry="20" stroke="#003049" stroke-width="6" pointer-events="visiblePainted" fill="#d6f0ff" width="450" height="300" style="fill: rgb(214, 240, 255); stroke: rgb(0, 48, 73);"></rect><text  id="v-30" font-size="34" xml:space="preserve" y="0.8em" font-weight="bold" text-anchor="middle" pointer-events="visible" font-family="Open Sans" fill="#000000" transform="matrix(1,0,0,1,225,88.1)" style="fill: rgb(0, 0, 0);"><tspan dy="0" >ProfileController</tspan></text><text  id="v-31" font-size="17" xml:space="preserve" y="0.8em" text-anchor="middle" font-family="Open Sans" fill="#000000" transform="matrix(1,0,0,1,225,128.9)" style="fill: rgb(0, 0, 0);"><tspan dy="0" >[Container]</tspan></text><text  id="v-32" font-size="24" xml:space="preserve" y="0.8em" text-anchor="middle" font-family="Open Sans" fill="#000000" transform="matrix(1,0,0,1,225,159.3)" style="fill: rgb(0, 0, 0);"><tspan dy="0" >Exposes endpoints like GET /me,</tspan><tspan dy="1.2em" x="0" >PUT /profile</tspan></text><g  id="v-33" color="#000000" transform="matrix(1,0,0,1,222.5,268)" display="none" style="fill: rgb(0, 0, 0);"><g ></g><g ></g><g ></g><g ></g></g><image  id="v-34"></image></g></g><!--z-index:32--><g   id="j_7"  transform="translate(1650,2571)" style=""><g  id="v-43" style="opacity: 1;"><rect  id="v-44" rx="20" ry="20" stroke="#003049" stroke-width="6" pointer-events="visiblePainted" fill="#d6f0ff" width="450" height="300" style="fill: rgb(214, 240, 255); stroke: rgb(0, 48, 73);"></rect><text  id="v-45" font-size="34" xml:space="preserve" y="0.8em" font-weight="bold" text-anchor="middle" pointer-events="visible" font-family="Open Sans" fill="#000000" transform="matrix(1,0,0,1,225,88.1)" style="fill: rgb(0, 0, 0);"><tspan dy="0" >ProfileService</tspan></text><text  id="v-46" font-size="17" xml:space="preserve" y="0.8em" text-anchor="middle" font-family="Open Sans" fill="#000000" transform="matrix(1,0,0,1,225,128.9)" style="fill: rgb(0, 0, 0);"><tspan dy="0" >[Container]</tspan></text><text  id="v-47" font-size="24" xml:space="preserve" y="0.8em" text-anchor="middle" font-family="Open Sans" fill="#000000" transform="matrix(1,0,0,1,225,159.3)" style="fill: rgb(0, 0, 0);"><tspan dy="0" >Contains business logic for profile</tspan><tspan dy="1.2em" x="0" >updates and access</tspan></text><g  id="v-48" color="#000000" transform="matrix(1,0,0,1,222.5,268)" display="none" style="fill: rgb(0, 0, 0);"><g ></g><g ></g><g ></g><g ></g></g><image  id="v-49"></image></g></g><!--z-index:33--><g   id="j_8"  transform="translate(2400,2571)" style=""><g  id="v-56" style="opacity: 1;"><rect  id="v-57" rx="20" ry="20" stroke="#003049" stroke-width="6" pointer-events="visiblePainted" fill="#d6f0ff" width="450" height="300" style="fill: rgb(214, 240, 255); stroke: rgb(0, 48, 73);"></rect><text  id="v-58" font-size="34" xml:space="preserve" y="0.8em" font-weight="bold" text-anchor="middle" pointer-events="visible" font-family="Open Sans" fill="#000000" transform="matrix(1,0,0,1,225,88.1)" style="fill: rgb(0, 0, 0);"><tspan dy="0" >ProfileRepository</tspan></text><text  id="v-59" font-size="17" xml:space="preserve" y="0.8em" text-anchor="middle" font-family="Open Sans" fill="#000000" transform="matrix(1,0,0,1,225,128.9)" style="fill: rgb(0, 0, 0);"><tspan dy="0" >[Container]</tspan></text><text  id="v-60" font-size="24" xml:space="preserve" y="0.8em" text-anchor="middle" font-family="Open Sans" fill="#000000" transform="matrix(1,0,0,1,225,159.3)" style="fill: rgb(0, 0, 0);"><tspan dy="0" >Handles database operations for</tspan><tspan dy="1.2em" x="0" >profile entities</tspan></text><g  id="v-61" color="#000000" transform="matrix(1,0,0,1,222.5,268)" display="none" style="fill: rgb(0, 0, 0);"><g ></g><g ></g><g ></g><g ></g></g><image  id="v-62"></image></g></g><!--z-index:34--><g   id="j_9"  transform="translate(1650,1971)" style=""><g  id="v-66" style="opacity: 1;"><rect  id="v-67" rx="20" ry="20" stroke="#003049" stroke-width="6" pointer-events="visiblePainted" fill="#d6f0ff" width="450" height="300" style="fill: rgb(214, 240, 255); stroke: rgb(0, 48, 73);"></rect><text  id="v-68" font-size="34" xml:space="preserve" y="0.8em" font-weight="bold" text-anchor="middle" pointer-events="visible" font-family="Open Sans" fill="#000000" transform="matrix(1,0,0,1,225,88.1)" style="fill: rgb(0, 0, 0);"><tspan dy="0" >ProfileDTOs</tspan></text><text  id="v-69" font-size="17" xml:space="preserve" y="0.8em" text-anchor="middle" font-family="Open Sans" fill="#000000" transform="matrix(1,0,0,1,225,128.9)" style="fill: rgb(0, 0, 0);"><tspan dy="0" >[Container]</tspan></text><text  id="v-70" font-size="24" xml:space="preserve" y="0.8em" text-anchor="middle" font-family="Open Sans" fill="#000000" transform="matrix(1,0,0,1,225,159.3)" style="fill: rgb(0, 0, 0);"><tspan dy="0" >Shapes the request/response</tspan><tspan dy="1.2em" x="0" >payloads</tspan></text><g  id="v-71" color="#000000" transform="matrix(1,0,0,1,222.5,268)" display="none" style="fill: rgb(0, 0, 0);"><g ></g><g ></g><g ></g><g ></g></g><image  id="v-72"></image></g></g><!--z-index:35--><g   id="j_10"  transform="translate(1650,1371)" style=""><g  id="v-76" style="opacity: 1;"><rect  id="v-77" rx="20" ry="20" stroke="#003049" stroke-width="6" pointer-events="visiblePainted" fill="#d6f0ff" width="450" height="300" style="fill: rgb(214, 240, 255); stroke: rgb(0, 48, 73);"></rect><text  id="v-78" font-size="34" xml:space="preserve" y="0.8em" font-weight="bold" text-anchor="middle" pointer-events="visible" font-family="Open Sans" fill="#000000" transform="matrix(1,0,0,1,225,88.1)" style="fill: rgb(0, 0, 0);"><tspan dy="0" >JwtAuthGuard</tspan></text><text  id="v-79" font-size="17" xml:space="preserve" y="0.8em" text-anchor="middle" font-family="Open Sans" fill="#000000" transform="matrix(1,0,0,1,225,128.9)" style="fill: rgb(0, 0, 0);"><tspan dy="0" >[Container]</tspan></text><text  id="v-80" font-size="24" xml:space="preserve" y="0.8em" text-anchor="middle" font-family="Open Sans" fill="#000000" transform="matrix(1,0,0,1,225,159.3)" style="fill: rgb(0, 0, 0);"><tspan dy="0" >Protects routes using user</tspan><tspan dy="1.2em" x="0" >authentication</tspan></text><g  id="v-81" color="#000000" transform="matrix(1,0,0,1,222.5,268)" display="none" style="fill: rgb(0, 0, 0);"><g ></g><g ></g><g ></g><g ></g></g><image  id="v-82"></image></g></g><!--z-index:36--><g   id="j_11"  transform="translate(1650,771)" style=""><g  id="v-89" style="opacity: 1;"><rect  id="v-90" rx="20" ry="20" stroke="#003049" stroke-width="6" pointer-events="visiblePainted" fill="#d6f0ff" width="450" height="300" style="fill: rgb(214, 240, 255); stroke: rgb(0, 48, 73);"></rect><text  id="v-91" font-size="34" xml:space="preserve" y="0.8em" font-weight="bold" text-anchor="middle" pointer-events="visible" font-family="Open Sans" fill="#000000" transform="matrix(1,0,0,1,225,88.1)" style="fill: rgb(0, 0, 0);"><tspan dy="0" >ProfileLoggingInterceptor</tspan></text><text  id="v-92" font-size="17" xml:space="preserve" y="0.8em" text-anchor="middle" font-family="Open Sans" fill="#000000" transform="matrix(1,0,0,1,225,128.9)" style="fill: rgb(0, 0, 0);"><tspan dy="0" >[Container]</tspan></text><text  id="v-93" font-size="24" xml:space="preserve" y="0.8em" text-anchor="middle" font-family="Open Sans" fill="#000000" transform="matrix(1,0,0,1,225,159.3)" style="fill: rgb(0, 0, 0);"><tspan dy="0" >Logs profile access and update</tspan><tspan dy="1.2em" x="0" >events</tspan></text><g  id="v-94" color="#000000" transform="matrix(1,0,0,1,222.5,268)" display="none" style="fill: rgb(0, 0, 0);"><g ></g><g ></g><g ></g><g ></g></g><image  id="v-95"></image></g></g><!--z-index:37--><g   id="j_12"  transform="translate(1650,171)" style=""><g  id="v-102" style="opacity: 1;"><rect  id="v-103" rx="20" ry="20" stroke="#003049" stroke-width="6" pointer-events="visiblePainted" fill="#d6f0ff" width="450" height="300" style="fill: rgb(214, 240, 255); stroke: rgb(0, 48, 73);"></rect><text  id="v-104" font-size="34" xml:space="preserve" y="0.8em" font-weight="bold" text-anchor="middle" pointer-events="visible" font-family="Open Sans" fill="#000000" transform="matrix(1,0,0,1,225,102.5)" style="fill: rgb(0, 0, 0);"><tspan dy="0" >CurrentUserDecorator</tspan></text><text  id="v-105" font-size="17" xml:space="preserve" y="0.8em" text-anchor="middle" font-family="Open Sans" fill="#000000" transform="matrix(1,0,0,1,225,143.3)" style="fill: rgb(0, 0, 0);"><tspan dy="0" >[Container]</tspan></text><text  id="v-106" font-size="24" xml:space="preserve" y="0.8em" text-anchor="middle" font-family="Open Sans" fill="#000000" transform="matrix(1,0,0,1,225,173.7)" style="fill: rgb(0, 0, 0);"><tspan dy="0" >Injects user info into handlers</tspan></text><g  id="v-107" color="#000000" transform="matrix(1,0,0,1,222.5,268)" display="none" style="fill: rgb(0, 0, 0);"><g ></g><g ></g><g ></g><g ></g></g><image  id="v-108"></image></g></g><!--z-index:38--><g   id="j_13"  transform="translate(1650,3771)" style=""><g  id="v-112" style="opacity: 1;"><rect  id="v-113" rx="20" ry="20" stroke="#003049" stroke-width="6" pointer-events="visiblePainted" fill="#d6f0ff" width="450" height="300" style="fill: rgb(214, 240, 255); stroke: rgb(0, 48, 73);"></rect><text  id="v-114" font-size="34" xml:space="preserve" y="0.8em" font-weight="bold" text-anchor="middle" pointer-events="visible" font-family="Open Sans" fill="#000000" transform="matrix(1,0,0,1,225,88.1)" style="fill: rgb(0, 0, 0);"><tspan dy="0" >ValidationPipe</tspan></text><text  id="v-115" font-size="17" xml:space="preserve" y="0.8em" text-anchor="middle" font-family="Open Sans" fill="#000000" transform="matrix(1,0,0,1,225,128.9)" style="fill: rgb(0, 0, 0);"><tspan dy="0" >[Container]</tspan></text><text  id="v-116" font-size="24" xml:space="preserve" y="0.8em" text-anchor="middle" font-family="Open Sans" fill="#000000" transform="matrix(1,0,0,1,225,159.3)" style="fill: rgb(0, 0, 0);"><tspan dy="0" >Validates and transforms incoming</tspan><tspan dy="1.2em" x="0" >data</tspan></text><g  id="v-117" color="#000000" transform="matrix(1,0,0,1,222.5,268)" display="none" style="fill: rgb(0, 0, 0);"><g ></g><g ></g><g ></g><g ></g></g><image  id="v-118"></image></g></g><!--z-index:39--><g   id="j_14"  transform="translate(1650,3171)" style=""><g  id="v-125" style="opacity: 1;"><rect  id="v-126" rx="20" ry="20" stroke="#003049" stroke-width="6" pointer-events="visiblePainted" fill="#d6f0ff" width="450" height="300" style="fill: rgb(214, 240, 255); stroke: rgb(0, 48, 73);"></rect><text  id="v-127" font-size="34" xml:space="preserve" y="0.8em" font-weight="bold" text-anchor="middle" pointer-events="visible" font-family="Open Sans" fill="#000000" transform="matrix(1,0,0,1,225,88.1)" style="fill: rgb(0, 0, 0);"><tspan dy="0" >ProfileExceptionFilter</tspan></text><text  id="v-128" font-size="17" xml:space="preserve" y="0.8em" text-anchor="middle" font-family="Open Sans" fill="#000000" transform="matrix(1,0,0,1,225,128.9)" style="fill: rgb(0, 0, 0);"><tspan dy="0" >[Container]</tspan></text><text  id="v-129" font-size="24" xml:space="preserve" y="0.8em" text-anchor="middle" font-family="Open Sans" fill="#000000" transform="matrix(1,0,0,1,225,159.3)" style="fill: rgb(0, 0, 0);"><tspan dy="0" >Handles errors like profile not</tspan><tspan dy="1.2em" x="0" >found or validation errors</tspan></text><g  id="v-130" color="#000000" transform="matrix(1,0,0,1,222.5,268)" display="none" style="fill: rgb(0, 0, 0);"><g ></g><g ></g><g ></g><g ></g></g><image  id="v-131"></image></g></g><!--z-index:40--><g   id="j_15"  transform="translate(3150,2571)" style=""><g  id="v-135" style="opacity: 1;"><path  d="M 0,30 a 225,30 0,0,0 450 0 a 225,30 0,0,0 -450 0 l 0,240 a 225,30 0,0,0 450 0 l 0,-240" id="v-136" stroke="#003049" stroke-width="6" pointer-events="visiblePainted" fill="#d6f0ff" style="fill: rgb(214, 240, 255); stroke: rgb(0, 48, 73);"></path><rect  id="v-137" stroke-width="0" pointer-events="visiblePainted" fill="none" stroke="none" width="450" height="270" x="0" y="30"></rect><text  id="v-138" font-size="34" xml:space="preserve" y="0.8em" font-weight="bold" text-anchor="middle" pointer-events="visible" font-family="Open Sans" fill="#000000" transform="matrix(1,0,0,1,225,125)" style="fill: rgb(0, 0, 0);"><tspan dy="0" >ProfileDB</tspan></text><text  id="v-139" font-size="17" xml:space="preserve" y="0.8em" text-anchor="middle" font-family="Open Sans" fill="#000000" transform="matrix(1,0,0,1,225,165.8)" style="fill: rgb(0, 0, 0);"><tspan dy="0" >[Container: PostgreSQL]</tspan></text><text  id="v-140" font-size="24" xml:space="preserve" y="0.8em" text-anchor="middle" font-family="Open Sans" fill="#000000" transform="matrix(1,0,0,1,225,196.2)" style="fill: rgb(0, 0, 0);"><tspan dy="0" >Stores user profile information</tspan></text><g  id="v-141" font-weight="normal" text-anchor="middle" color="#000000" transform="matrix(1,0,0,1,222.5,268)" display="none" style="fill: rgb(0, 0, 0);"><g ></g><g ></g><g ></g><g ></g></g><image  id="v-142"></image></g></g><!--z-index:41--><g   id="j_16" ><path  stroke="#707070" d="M 600 2121 L 900 2121" id="v-155" stroke-width="2" stroke-dasharray="30 30" fill="none" style="opacity: 1;"></path><path  fill="black" stroke="black" d="M 0 0 0 0" transform="matrix(1,0,0,1,600,2121)"></path><path  fill="#707070" stroke="#707070" d="M 20 0 L 0 10 L 20 20 z" id="v-157" transform="matrix(-1,1.2246467991473532e-16,-1.2246467991473532e-16,-1,900,2131)" style="opacity: 1;"></path><path  d="M 600 2121 L 900 2121" id="v-156" fill="none" style="cursor: auto; pointer-events: visiblepainted;"></path><g ><g id="v-149"  label-idx="0" cursor="move" transform="matrix(1,0,0,1,750,2121)" style="cursor: default; opacity: 1;"><rect joint-selector="rect" id="v-152" fill="#ffffff" rx="3" ry="3" pointer-events="none" width="210.03529357910156" height="60.68527793884277" transform="matrix(1,0,0,1,-105.4,-30.3)"></rect><text joint-selector="text" id="v-151" font-size="24px" xml:space="preserve" y="0.8em" fill="#707070" text-anchor="middle" pointer-events="none" font-family="Open Sans" font-weight="normal" transform="matrix(1,0,0,1,0,-24)"><tspan dy="0" >Calls endpoints</tspan><tspan dy="1.2em" x="0" >to manage profile</tspan></text></g><g id="v-150"  label-idx="1" cursor="move" transform="matrix(1,0,0,1,740,2161.800048828125)" style="cursor: default; opacity: 1;"><rect joint-selector="rect" id="v-154" fill="#ffffff" rx="3" ry="3"  width="0" height="0" transform="matrix(1,0,0,1,0,0)" display="none"></rect><text joint-selector="text" id="v-153" fill="#000000" font-size="14" text-anchor="middle" pointer-events="none"></text></g></g><g  display="none" style="display: none;"></g><g  id="v-159" display="none"><g  id="v-147"><path  end="source" d="M 26 0 L 0 13 L 26 26 z"></path></g><g  id="v-148"><path  end="target" d="M 26 0 L 0 13 L 26 26 z"></path></g></g><g  id="v-158" display="none"><g  id="v-146" transform="translate(640, 2121) "><g  event="remove"><circle r="11"></circle><path transform="scale(.8) translate(-16, -16)" d="M24.778,21.419 19.276,15.917 24.777,10.415 21.949,7.585 16.447,13.087 10.945,7.585 8.117,10.415 13.618,15.917 8.116,21.419 10.946,24.248 16.447,18.746 21.948,24.248z"></path><title>Remove link.</title></g><g  event="link:options"><circle r="11" transform="translate(25)"></circle><path fill="white" transform="scale(.55) translate(29, -16)" d="M31.229,17.736c0.064-0.571,0.104-1.148,0.104-1.736s-0.04-1.166-0.104-1.737l-4.377-1.557c-0.218-0.716-0.504-1.401-0.851-2.05l1.993-4.192c-0.725-0.91-1.549-1.734-2.458-2.459l-4.193,1.994c-0.647-0.347-1.334-0.632-2.049-0.849l-1.558-4.378C17.165,0.708,16.588,0.667,16,0.667s-1.166,0.041-1.737,0.105L12.707,5.15c-0.716,0.217-1.401,0.502-2.05,0.849L6.464,4.005C5.554,4.73,4.73,5.554,4.005,6.464l1.994,4.192c-0.347,0.648-0.632,1.334-0.849,2.05l-4.378,1.557C0.708,14.834,0.667,15.412,0.667,16s0.041,1.165,0.105,1.736l4.378,1.558c0.217,0.715,0.502,1.401,0.849,2.049l-1.994,4.193c0.725,0.909,1.549,1.733,2.459,2.458l4.192-1.993c0.648,0.347,1.334,0.633,2.05,0.851l1.557,4.377c0.571,0.064,1.148,0.104,1.737,0.104c0.588,0,1.165-0.04,1.736-0.104l1.558-4.377c0.715-0.218,1.399-0.504,2.049-0.851l4.193,1.993c0.909-0.725,1.733-1.549,2.458-2.458l-1.993-4.193c0.347-0.647,0.633-1.334,0.851-2.049L31.229,17.736zM16,20.871c-2.69,0-4.872-2.182-4.872-4.871c0-2.69,2.182-4.872,4.872-4.872c2.689,0,4.871,2.182,4.871,4.872C20.871,18.689,18.689,20.871,16,20.871z"></path><title>Link options.</title></g></g></g></g><!--z-index:42--><g   id="j_17" ><path  stroke="#707070" d="M 1350 2121 L 1650 2121" id="v-172" stroke-width="2" stroke-dasharray="30 30" fill="none" style="opacity: 1;"></path><path  fill="black" stroke="black" d="M 0 0 0 0" transform="matrix(1,0,0,1,1350,2121)"></path><path  fill="#707070" stroke="#707070" d="M 20 0 L 0 10 L 20 20 z" id="v-174" transform="matrix(-1,1.2246467991473532e-16,-1.2246467991473532e-16,-1,1650,2131)" style="opacity: 1;"></path><path  d="M 1350 2121 L 1650 2121" id="v-173" fill="none" style="cursor: auto; pointer-events: visiblepainted;"></path><g ><g id="v-166"  label-idx="0" cursor="move" transform="matrix(1,0,0,1,1500,2121)" style="cursor: default; opacity: 1;"><rect joint-selector="rect" id="v-169" fill="#ffffff" rx="3" ry="3" pointer-events="none" width="162.1811981201172" height="89.48527526855469" transform="matrix(1,0,0,1,-79.6,-44.7)"></rect><text joint-selector="text" id="v-168" font-size="24px" xml:space="preserve" y="0.8em" fill="#707070" text-anchor="middle" pointer-events="none" font-family="Open Sans" font-weight="normal" transform="matrix(1,0,0,1,0,-38.4)"><tspan dy="0" >Uses DTOs for</tspan><tspan dy="1.2em" x="0" >shape &amp;</tspan><tspan dy="1.2em" x="0" >validation</tspan></text></g><g id="v-167"  label-idx="1" cursor="move" transform="matrix(1,0,0,1,1490,2176.199951171875)" style="cursor: default; opacity: 1;"><rect joint-selector="rect" id="v-171" fill="#ffffff" rx="3" ry="3"  width="0" height="0" transform="matrix(1,0,0,1,0,0)" display="none"></rect><text joint-selector="text" id="v-170" fill="#000000" font-size="14" text-anchor="middle" pointer-events="none"></text></g></g><g  display="none" style="display: none;"></g><g  id="v-176" display="none"><g  id="v-164"><path  end="source" d="M 26 0 L 0 13 L 26 26 z"></path></g><g  id="v-165"><path  end="target" d="M 26 0 L 0 13 L 26 26 z"></path></g></g><g  id="v-175" display="none"><g  id="v-163" transform="translate(1390, 2121) "><g  event="remove"><circle r="11"></circle><path transform="scale(.8) translate(-16, -16)" d="M24.778,21.419 19.276,15.917 24.777,10.415 21.949,7.585 16.447,13.087 10.945,7.585 8.117,10.415 13.618,15.917 8.116,21.419 10.946,24.248 16.447,18.746 21.948,24.248z"></path><title>Remove link.</title></g><g  event="link:options"><circle r="11" transform="translate(25)"></circle><path fill="white" transform="scale(.55) translate(29, -16)" d="M31.229,17.736c0.064-0.571,0.104-1.148,0.104-1.736s-0.04-1.166-0.104-1.737l-4.377-1.557c-0.218-0.716-0.504-1.401-0.851-2.05l1.993-4.192c-0.725-0.91-1.549-1.734-2.458-2.459l-4.193,1.994c-0.647-0.347-1.334-0.632-2.049-0.849l-1.558-4.378C17.165,0.708,16.588,0.667,16,0.667s-1.166,0.041-1.737,0.105L12.707,5.15c-0.716,0.217-1.401,0.502-2.05,0.849L6.464,4.005C5.554,4.73,4.73,5.554,4.005,6.464l1.994,4.192c-0.347,0.648-0.632,1.334-0.849,2.05l-4.378,1.557C0.708,14.834,0.667,15.412,0.667,16s0.041,1.165,0.105,1.736l4.378,1.558c0.217,0.715,0.502,1.401,0.849,2.049l-1.994,4.193c0.725,0.909,1.549,1.733,2.459,2.458l4.192-1.993c0.648,0.347,1.334,0.633,2.05,0.851l1.557,4.377c0.571,0.064,1.148,0.104,1.737,0.104c0.588,0,1.165-0.04,1.736-0.104l1.558-4.377c0.715-0.218,1.399-0.504,2.049-0.851l4.193,1.993c0.909-0.725,1.733-1.549,2.458-2.458l-1.993-4.193c0.347-0.647,0.633-1.334,0.851-2.049L31.229,17.736zM16,20.871c-2.69,0-4.872-2.182-4.872-4.871c0-2.69,2.182-4.872,4.872-4.872c2.689,0,4.871,2.182,4.871,4.872C20.871,18.689,18.689,20.871,16,20.871z"></path><title>Link options.</title></g></g></g></g><!--z-index:43--><g   id="j_18" ><path  stroke="#707070" d="M 1313 1971 L 1688 1671" id="v-189" stroke-width="2" stroke-dasharray="30 30" fill="none" style="opacity: 1;"></path><path  fill="black" stroke="black" d="M 0 0 0 0" transform="matrix(0.7808686753084834,-0.624695215222571,0.624695215222571,0.7808686753084834,1312.5,1971)"></path><path  fill="#707070" stroke="#707070" d="M 20 0 L 0 10 L 20 20 z" id="v-191" transform="matrix(-0.7808688416748546,0.6246950072646418,-0.6246950072646418,-0.7808688416748546,1693.7469226690826,1678.8086865862897)" style="opacity: 1;"></path><path  d="M 1313 1971 L 1688 1671" id="v-190" fill="none" style="cursor: auto; pointer-events: visiblepainted;"></path><g ><g id="v-183"  label-idx="0" cursor="move" transform="matrix(1,0,0,1,1500.5,1821)" style="cursor: default; opacity: 1;"><rect joint-selector="rect" id="v-186" fill="#ffffff" rx="3" ry="3" pointer-events="none" width="120.36865997314453" height="60.68527793884277" transform="matrix(1,0,0,1,-62.7,-30.3)"></rect><text joint-selector="text" id="v-185" font-size="24px" xml:space="preserve" y="0.8em" fill="#707070" text-anchor="middle" pointer-events="none" font-family="Open Sans" font-weight="normal" transform="matrix(1,0,0,1,0,-24)"><tspan dy="0" >Secures</tspan><tspan dy="1.2em" x="0" >endpoints</tspan></text></g><g id="v-184"  label-idx="1" cursor="move" transform="matrix(1,0,0,1,1490.5,1861.800048828125)" style="cursor: default; opacity: 1;"><rect joint-selector="rect" id="v-188" fill="#ffffff" rx="3" ry="3"  width="0" height="0" transform="matrix(1,0,0,1,0,0)" display="none"></rect><text joint-selector="text" id="v-187" fill="#000000" font-size="14" text-anchor="middle" pointer-events="none"></text></g></g><g  display="none" style="display: none;"></g><g  id="v-193" display="none"><g  id="v-181"><path  end="source" d="M 26 0 L 0 13 L 26 26 z"></path></g><g  id="v-182"><path  end="target" d="M 26 0 L 0 13 L 26 26 z"></path></g></g><g  id="v-192" display="none"><g  id="v-180" transform="translate(1344.2347523777214, 1946.012198097823) "><g  event="remove"><circle r="11"></circle><path transform="scale(.8) translate(-16, -16)" d="M24.778,21.419 19.276,15.917 24.777,10.415 21.949,7.585 16.447,13.087 10.945,7.585 8.117,10.415 13.618,15.917 8.116,21.419 10.946,24.248 16.447,18.746 21.948,24.248z"></path><title>Remove link.</title></g><g  event="link:options"><circle r="11" transform="translate(25)"></circle><path fill="white" transform="scale(.55) translate(29, -16)" d="M31.229,17.736c0.064-0.571,0.104-1.148,0.104-1.736s-0.04-1.166-0.104-1.737l-4.377-1.557c-0.218-0.716-0.504-1.401-0.851-2.05l1.993-4.192c-0.725-0.91-1.549-1.734-2.458-2.459l-4.193,1.994c-0.647-0.347-1.334-0.632-2.049-0.849l-1.558-4.378C17.165,0.708,16.588,0.667,16,0.667s-1.166,0.041-1.737,0.105L12.707,5.15c-0.716,0.217-1.401,0.502-2.05,0.849L6.464,4.005C5.554,4.73,4.73,5.554,4.005,6.464l1.994,4.192c-0.347,0.648-0.632,1.334-0.849,2.05l-4.378,1.557C0.708,14.834,0.667,15.412,0.667,16s0.041,1.165,0.105,1.736l4.378,1.558c0.217,0.715,0.502,1.401,0.849,2.049l-1.994,4.193c0.725,0.909,1.549,1.733,2.459,2.458l4.192-1.993c0.648,0.347,1.334,0.633,2.05,0.851l1.557,4.377c0.571,0.064,1.148,0.104,1.737,0.104c0.588,0,1.165-0.04,1.736-0.104l1.558-4.377c0.715-0.218,1.399-0.504,2.049-0.851l4.193,1.993c0.909-0.725,1.733-1.549,2.458-2.458l-1.993-4.193c0.347-0.647,0.633-1.334,0.851-2.049L31.229,17.736zM16,20.871c-2.69,0-4.872-2.182-4.872-4.871c0-2.69,2.182-4.872,4.872-4.872c2.689,0,4.871,2.182,4.871,4.872C20.871,18.689,18.689,20.871,16,20.871z"></path><title>Link options.</title></g></g></g></g><!--z-index:44--><g   id="j_19" ><path  stroke="#707070" d="M 1178 1971 L 1647 630 C 1649 624 1652 618.3333333333333 1656 613 L 1763 471" id="v-207" stroke-width="2" stroke-dasharray="30 30" fill="none" style="opacity: 1;"></path><path  fill="black" stroke="black" d="M 0 0 0 0" transform="matrix(0.33035030683284927,-0.943858397629349,0.943858397629349,0.33035030683284927,1177.5,1971)"></path><path  fill="#707070" stroke="#707070" d="M 20 0 L 0 10 L 20 20 z" id="v-209" transform="matrix(-0.5999999761129288,0.8000000179153028,-0.8000000179153028,-0.5999999761129288,1770.4999999402824,476.9999995819763)" style="opacity: 1;"></path><path  d="M 1178 1971 L 1647 630 C 1649 624 1652 618.3333333333333 1656 613 L 1763 471" id="v-208" fill="none" style="cursor: auto; pointer-events: visiblepainted;"></path><g ><g id="v-201"  label-idx="0" cursor="move" transform="matrix(1,0,0,1,1445.036865234375,1207.46826171875)" style="cursor: default; opacity: 1;"><rect joint-selector="rect" id="v-204" fill="#ffffff" rx="3" ry="3" pointer-events="none" width="165.3186492919922" height="60.68527793884277" transform="matrix(1,0,0,1,-80.6,-30.3)"></rect><text joint-selector="text" id="v-203" font-size="24px" xml:space="preserve" y="0.8em" fill="#707070" text-anchor="middle" pointer-events="none" font-family="Open Sans" font-weight="normal" transform="matrix(1,0,0,1,0,-24)"><tspan dy="0" >Injects current</tspan><tspan dy="1.2em" x="0" >user</tspan></text></g><g id="v-202"  label-idx="1" cursor="move" transform="matrix(1,0,0,1,1435.036865234375,1248.268310546875)" style="cursor: default; opacity: 1;"><rect joint-selector="rect" id="v-206" fill="#ffffff" rx="3" ry="3"  width="0" height="0" transform="matrix(1,0,0,1,0,0)" display="none"></rect><text joint-selector="text" id="v-205" fill="#000000" font-size="14" text-anchor="middle" pointer-events="none"></text></g></g><g  display="none" style="display: none;"><g  transform="translate(1650, 621)" id="v-321"><circle  idx="0" r="10"></circle><path  idx="0" d="M16,5.333c-7.732,0-14,4.701-14,10.5c0,1.982,0.741,3.833,2.016,5.414L2,25.667l5.613-1.441c2.339,1.317,5.237,2.107,8.387,2.107c7.732,0,14-4.701,14-10.5C30,10.034,23.732,5.333,16,5.333z" transform="translate(5, -33)"></path><path  idx="0" transform="scale(.8) translate(9.5, -37)" d="M24.778,21.419 19.276,15.917 24.777,10.415 21.949,7.585 16.447,13.087 10.945,7.585 8.117,10.415 13.618,15.917 8.116,21.419 10.946,24.248 16.447,18.746 21.948,24.248z"><title>Remove vertex.</title></path></g></g><g  id="v-211" display="none"><g  id="v-199"><path  end="source" d="M 26 0 L 0 13 L 26 26 z"></path></g><g  id="v-200"><path  end="target" d="M 26 0 L 0 13 L 26 26 z"></path></g></g><g  id="v-210" display="none"><g  id="v-197" transform="translate(1191.2052374293742, 1933.2425940452226) "><g  event="remove"><circle r="11"></circle><path transform="scale(.8) translate(-16, -16)" d="M24.778,21.419 19.276,15.917 24.777,10.415 21.949,7.585 16.447,13.087 10.945,7.585 8.117,10.415 13.618,15.917 8.116,21.419 10.946,24.248 16.447,18.746 21.948,24.248z"></path><title>Remove link.</title></g><g  event="link:options"><circle r="11" transform="translate(25)"></circle><path fill="white" transform="scale(.55) translate(29, -16)" d="M31.229,17.736c0.064-0.571,0.104-1.148,0.104-1.736s-0.04-1.166-0.104-1.737l-4.377-1.557c-0.218-0.716-0.504-1.401-0.851-2.05l1.993-4.192c-0.725-0.91-1.549-1.734-2.458-2.459l-4.193,1.994c-0.647-0.347-1.334-0.632-2.049-0.849l-1.558-4.378C17.165,0.708,16.588,0.667,16,0.667s-1.166,0.041-1.737,0.105L12.707,5.15c-0.716,0.217-1.401,0.502-2.05,0.849L6.464,4.005C5.554,4.73,4.73,5.554,4.005,6.464l1.994,4.192c-0.347,0.648-0.632,1.334-0.849,2.05l-4.378,1.557C0.708,14.834,0.667,15.412,0.667,16s0.041,1.165,0.105,1.736l4.378,1.558c0.217,0.715,0.502,1.401,0.849,2.049l-1.994,4.193c0.725,0.909,1.549,1.733,2.459,2.458l4.192-1.993c0.648,0.347,1.334,0.633,2.05,0.851l1.557,4.377c0.571,0.064,1.148,0.104,1.737,0.104c0.588,0,1.165-0.04,1.736-0.104l1.558-4.377c0.715-0.218,1.399-0.504,2.049-0.851l4.193,1.993c0.909-0.725,1.733-1.549,2.458-2.458l-1.993-4.193c0.347-0.647,0.633-1.334,0.851-2.049L31.229,17.736zM16,20.871c-2.69,0-4.872-2.182-4.872-4.871c0-2.69,2.182-4.872,4.872-4.872c2.689,0,4.871,2.182,4.871,4.872C20.871,18.689,18.689,20.871,16,20.871z"></path><title>Link options.</title></g></g></g></g><!--z-index:45--><g   id="j_20" ><path  stroke="#707070" d="M 1178 2271 L 1647 3612 C 1649 3618 1652 3623.6666666666665 1656 3629 L 1763 3771" id="v-225" stroke-width="2" stroke-dasharray="30 30" fill="none" style="opacity: 1;"></path><path  fill="black" stroke="black" d="M 0 0 0 0" transform="matrix(0.33035043251519486,0.9438583536405363,-0.9438583536405363,0.33035043251519486,1177.5,2271)"></path><path  fill="#707070" stroke="#707070" d="M 20 0 L 0 10 L 20 20 z" id="v-227" transform="matrix(-0.6000000826393699,-0.7999999380204659,0.7999999380204659,-0.6000000826393699,1754.5000014461891,3777.0000002065985)" style="opacity: 1;"></path><path  d="M 1178 2271 L 1647 3612 C 1649 3618 1652 3623.6666666666665 1656 3629 L 1763 3771" id="v-226" fill="none" style="cursor: auto; pointer-events: visiblepainted;"></path><g ><g id="v-219"  label-idx="0" cursor="move" transform="matrix(1,0,0,1,1445.036865234375,3034.53173828125)" style="cursor: default; opacity: 1;"><rect joint-selector="rect" id="v-222" fill="#ffffff" rx="3" ry="3" pointer-events="none" width="176.648193359375" height="31.885272979736328" transform="matrix(1,0,0,1,-89.4,-15.9)"></rect><text joint-selector="text" id="v-221" font-size="24px" xml:space="preserve" y="0.8em" fill="#707070" text-anchor="middle" pointer-events="none" font-family="Open Sans" font-weight="normal" transform="matrix(1,0,0,1,0,-9.6)"><tspan dy="0" >Validates input</tspan></text></g><g id="v-220"  label-idx="1" cursor="move" transform="matrix(1,0,0,1,1435.036865234375,3060.931640625)" style="cursor: default; opacity: 1;"><rect joint-selector="rect" id="v-224" fill="#ffffff" rx="3" ry="3"  width="0" height="0" transform="matrix(1,0,0,1,0,0)" display="none"></rect><text joint-selector="text" id="v-223" fill="#000000" font-size="14" text-anchor="middle" pointer-events="none"></text></g></g><g  display="none" style="display: none;"><g  transform="translate(1650, 3621)" id="v-322"><circle  idx="0" r="10"></circle><path  idx="0" d="M16,5.333c-7.732,0-14,4.701-14,10.5c0,1.982,0.741,3.833,2.016,5.414L2,25.667l5.613-1.441c2.339,1.317,5.237,2.107,8.387,2.107c7.732,0,14-4.701,14-10.5C30,10.034,23.732,5.333,16,5.333z" transform="translate(5, -33)"></path><path  idx="0" transform="scale(.8) translate(9.5, -37)" d="M24.778,21.419 19.276,15.917 24.777,10.415 21.949,7.585 16.447,13.087 10.945,7.585 8.117,10.415 13.618,15.917 8.116,21.419 10.946,24.248 16.447,18.746 21.948,24.248z"><title>Remove vertex.</title></path></g></g><g  id="v-229" display="none"><g  id="v-217"><path  end="source" d="M 26 0 L 0 13 L 26 26 z"></path></g><g  id="v-218"><path  end="target" d="M 26 0 L 0 13 L 26 26 z"></path></g></g><g  id="v-228" display="none"><g  id="v-215" transform="translate(1191.2052374293742, 2308.7574059547774) "><g  event="remove"><circle r="11"></circle><path transform="scale(.8) translate(-16, -16)" d="M24.778,21.419 19.276,15.917 24.777,10.415 21.949,7.585 16.447,13.087 10.945,7.585 8.117,10.415 13.618,15.917 8.116,21.419 10.946,24.248 16.447,18.746 21.948,24.248z"></path><title>Remove link.</title></g><g  event="link:options"><circle r="11" transform="translate(25)"></circle><path fill="white" transform="scale(.55) translate(29, -16)" d="M31.229,17.736c0.064-0.571,0.104-1.148,0.104-1.736s-0.04-1.166-0.104-1.737l-4.377-1.557c-0.218-0.716-0.504-1.401-0.851-2.05l1.993-4.192c-0.725-0.91-1.549-1.734-2.458-2.459l-4.193,1.994c-0.647-0.347-1.334-0.632-2.049-0.849l-1.558-4.378C17.165,0.708,16.588,0.667,16,0.667s-1.166,0.041-1.737,0.105L12.707,5.15c-0.716,0.217-1.401,0.502-2.05,0.849L6.464,4.005C5.554,4.73,4.73,5.554,4.005,6.464l1.994,4.192c-0.347,0.648-0.632,1.334-0.849,2.05l-4.378,1.557C0.708,14.834,0.667,15.412,0.667,16s0.041,1.165,0.105,1.736l4.378,1.558c0.217,0.715,0.502,1.401,0.849,2.049l-1.994,4.193c0.725,0.909,1.549,1.733,2.459,2.458l4.192-1.993c0.648,0.347,1.334,0.633,2.05,0.851l1.557,4.377c0.571,0.064,1.148,0.104,1.737,0.104c0.588,0,1.165-0.04,1.736-0.104l1.558-4.377c0.715-0.218,1.399-0.504,2.049-0.851l4.193,1.993c0.909-0.725,1.733-1.549,2.458-2.458l-1.993-4.193c0.347-0.647,0.633-1.334,0.851-2.049L31.229,17.736zM16,20.871c-2.69,0-4.872-2.182-4.872-4.871c0-2.69,2.182-4.872,4.872-4.872c2.689,0,4.871,2.182,4.871,4.872C20.871,18.689,18.689,20.871,16,20.871z"></path><title>Link options.</title></g></g></g></g><!--z-index:46--><g   id="j_21" ><path  stroke="#707070" d="M 1313 2271 L 1688 2571" id="v-242" stroke-width="2" stroke-dasharray="30 30" fill="none" style="opacity: 1;"></path><path  fill="black" stroke="black" d="M 0 0 0 0" transform="matrix(0.7808688000832672,0.624695059254128,-0.624695059254128,0.7808688000832672,1312.5,2271)"></path><path  fill="#707070" stroke="#707070" d="M 20 0 L 0 10 L 20 20 z" id="v-244" transform="matrix(-0.7808688416748548,-0.6246950072646416,0.6246950072646416,-0.7808688416748548,1681.2530225237897,2578.808568176895)" style="opacity: 1;"></path><path  d="M 1313 2271 L 1688 2571" id="v-243" fill="none" style="cursor: auto; pointer-events: visiblepainted;"></path><g ><g id="v-236"  label-idx="0" cursor="move" transform="matrix(1,0,0,1,1500.5,2421)" style="cursor: default; opacity: 1;"><rect joint-selector="rect" id="v-239" fill="#ffffff" rx="3" ry="3" pointer-events="none" width="144.06552124023438" height="60.68527793884277" transform="matrix(1,0,0,1,-69.7,-30.3)"></rect><text joint-selector="text" id="v-238" font-size="24px" xml:space="preserve" y="0.8em" fill="#707070" text-anchor="middle" pointer-events="none" font-family="Open Sans" font-weight="normal" transform="matrix(1,0,0,1,0,-24)"><tspan dy="0" >Delegates to</tspan><tspan dy="1.2em" x="0" >service</tspan></text></g><g id="v-237"  label-idx="1" cursor="move" transform="matrix(1,0,0,1,1490.5,2461.800048828125)" style="cursor: default; opacity: 1;"><rect joint-selector="rect" id="v-241" fill="#ffffff" rx="3" ry="3"  width="0" height="0" transform="matrix(1,0,0,1,0,0)" display="none"></rect><text joint-selector="text" id="v-240" fill="#000000" font-size="14" text-anchor="middle" pointer-events="none"></text></g></g><g  display="none" style="display: none;"></g><g  id="v-246" display="none"><g  id="v-234"><path  end="source" d="M 26 0 L 0 13 L 26 26 z"></path></g><g  id="v-235"><path  end="target" d="M 26 0 L 0 13 L 26 26 z"></path></g></g><g  id="v-245" display="none"><g  id="v-233" transform="translate(1344.2347523777214, 2295.987801902177) "><g  event="remove"><circle r="11"></circle><path transform="scale(.8) translate(-16, -16)" d="M24.778,21.419 19.276,15.917 24.777,10.415 21.949,7.585 16.447,13.087 10.945,7.585 8.117,10.415 13.618,15.917 8.116,21.419 10.946,24.248 16.447,18.746 21.948,24.248z"></path><title>Remove link.</title></g><g  event="link:options"><circle r="11" transform="translate(25)"></circle><path fill="white" transform="scale(.55) translate(29, -16)" d="M31.229,17.736c0.064-0.571,0.104-1.148,0.104-1.736s-0.04-1.166-0.104-1.737l-4.377-1.557c-0.218-0.716-0.504-1.401-0.851-2.05l1.993-4.192c-0.725-0.91-1.549-1.734-2.458-2.459l-4.193,1.994c-0.647-0.347-1.334-0.632-2.049-0.849l-1.558-4.378C17.165,0.708,16.588,0.667,16,0.667s-1.166,0.041-1.737,0.105L12.707,5.15c-0.716,0.217-1.401,0.502-2.05,0.849L6.464,4.005C5.554,4.73,4.73,5.554,4.005,6.464l1.994,4.192c-0.347,0.648-0.632,1.334-0.849,2.05l-4.378,1.557C0.708,14.834,0.667,15.412,0.667,16s0.041,1.165,0.105,1.736l4.378,1.558c0.217,0.715,0.502,1.401,0.849,2.049l-1.994,4.193c0.725,0.909,1.549,1.733,2.459,2.458l4.192-1.993c0.648,0.347,1.334,0.633,2.05,0.851l1.557,4.377c0.571,0.064,1.148,0.104,1.737,0.104c0.588,0,1.165-0.04,1.736-0.104l1.558-4.377c0.715-0.218,1.399-0.504,2.049-0.851l4.193,1.993c0.909-0.725,1.733-1.549,2.458-2.458l-1.993-4.193c0.347-0.647,0.633-1.334,0.851-2.049L31.229,17.736zM16,20.871c-2.69,0-4.872-2.182-4.872-4.871c0-2.69,2.182-4.872,4.872-4.872c2.689,0,4.871,2.182,4.871,4.872C20.871,18.689,18.689,20.871,16,20.871z"></path><title>Link options.</title></g></g></g></g><!--z-index:47--><g   id="j_22" ><path  stroke="#707070" d="M 1213 2271 L 1645 3012 C 1648.3333333333333 3018 1652 3023.6666666666665 1656 3029 L 1763 3171" id="v-260" stroke-width="2" stroke-dasharray="30 30" fill="none" style="opacity: 1;"></path><path  fill="black" stroke="black" d="M 0 0 0 0" transform="matrix(0.5038709988513701,0.8637789164575173,-0.8637789164575173,0.5038709988513701,1212.5,2271)"></path><path  fill="#707070" stroke="#707070" d="M 20 0 L 0 10 L 20 20 z" id="v-262" transform="matrix(-0.6000000826393699,-0.7999999380204659,0.7999999380204659,-0.6000000826393699,1754.5000014461891,3177.0000002065985)" style="opacity: 1;"></path><path  d="M 1213 2271 L 1645 3012 C 1648.3333333333333 3018 1652 3023.6666666666665 1656 3029 L 1763 3171" id="v-261" fill="none" style="cursor: auto; pointer-events: visiblepainted;"></path><g ><g id="v-254"  label-idx="0" cursor="move" transform="matrix(1,0,0,1,1478.877685546875,2727.05419921875)" style="cursor: default; opacity: 1;"><rect joint-selector="rect" id="v-257" fill="#ffffff" rx="3" ry="3" pointer-events="none" width="170.7006378173828" height="31.885272979736328" transform="matrix(1,0,0,1,-87.9,-15.9)"></rect><text joint-selector="text" id="v-256" font-size="24px" xml:space="preserve" y="0.8em" fill="#707070" text-anchor="middle" pointer-events="none" font-family="Open Sans" font-weight="normal" transform="matrix(1,0,0,1,0,-9.6)"><tspan dy="0" >Catches errors</tspan></text></g><g id="v-255"  label-idx="1" cursor="move" transform="matrix(1,0,0,1,1468.877685546875,2753.4541015625)" style="cursor: default; opacity: 1;"><rect joint-selector="rect" id="v-259" fill="#ffffff" rx="3" ry="3"  width="0" height="0" transform="matrix(1,0,0,1,0,0)" display="none"></rect><text joint-selector="text" id="v-258" fill="#000000" font-size="14" text-anchor="middle" pointer-events="none"></text></g></g><g  display="none" style="display: none;"><g  transform="translate(1650, 3021)" id="v-323"><circle  idx="0" r="10"></circle><path  idx="0" d="M16,5.333c-7.732,0-14,4.701-14,10.5c0,1.982,0.741,3.833,2.016,5.414L2,25.667l5.613-1.441c2.339,1.317,5.237,2.107,8.387,2.107c7.732,0,14-4.701,14-10.5C30,10.034,23.732,5.333,16,5.333z" transform="translate(5, -33)"></path><path  idx="0" transform="scale(.8) translate(9.5, -37)" d="M24.778,21.419 19.276,15.917 24.777,10.415 21.949,7.585 16.447,13.087 10.945,7.585 8.117,10.415 13.618,15.917 8.116,21.419 10.946,24.248 16.447,18.746 21.948,24.248z"><title>Remove vertex.</title></path></g></g><g  id="v-264" display="none"><g  id="v-252"><path  end="source" d="M 26 0 L 0 13 L 26 26 z"></path></g><g  id="v-253"><path  end="target" d="M 26 0 L 0 13 L 26 26 z"></path></g></g><g  id="v-263" display="none"><g  id="v-250" transform="translate(1233.1461417027217, 2305.556229170641) "><g  event="remove"><circle r="11"></circle><path transform="scale(.8) translate(-16, -16)" d="M24.778,21.419 19.276,15.917 24.777,10.415 21.949,7.585 16.447,13.087 10.945,7.585 8.117,10.415 13.618,15.917 8.116,21.419 10.946,24.248 16.447,18.746 21.948,24.248z"></path><title>Remove link.</title></g><g  event="link:options"><circle r="11" transform="translate(25)"></circle><path fill="white" transform="scale(.55) translate(29, -16)" d="M31.229,17.736c0.064-0.571,0.104-1.148,0.104-1.736s-0.04-1.166-0.104-1.737l-4.377-1.557c-0.218-0.716-0.504-1.401-0.851-2.05l1.993-4.192c-0.725-0.91-1.549-1.734-2.458-2.459l-4.193,1.994c-0.647-0.347-1.334-0.632-2.049-0.849l-1.558-4.378C17.165,0.708,16.588,0.667,16,0.667s-1.166,0.041-1.737,0.105L12.707,5.15c-0.716,0.217-1.401,0.502-2.05,0.849L6.464,4.005C5.554,4.73,4.73,5.554,4.005,6.464l1.994,4.192c-0.347,0.648-0.632,1.334-0.849,2.05l-4.378,1.557C0.708,14.834,0.667,15.412,0.667,16s0.041,1.165,0.105,1.736l4.378,1.558c0.217,0.715,0.502,1.401,0.849,2.049l-1.994,4.193c0.725,0.909,1.549,1.733,2.459,2.458l4.192-1.993c0.648,0.347,1.334,0.633,2.05,0.851l1.557,4.377c0.571,0.064,1.148,0.104,1.737,0.104c0.588,0,1.165-0.04,1.736-0.104l1.558-4.377c0.715-0.218,1.399-0.504,2.049-0.851l4.193,1.993c0.909-0.725,1.733-1.549,2.458-2.458l-1.993-4.193c0.347-0.647,0.633-1.334,0.851-2.049L31.229,17.736zM16,20.871c-2.69,0-4.872-2.182-4.872-4.871c0-2.69,2.182-4.872,4.872-4.872c2.689,0,4.871,2.182,4.871,4.872C20.871,18.689,18.689,20.871,16,20.871z"></path><title>Link options.</title></g></g></g></g><!--z-index:48--><g   id="j_23" ><path  stroke="#707070" d="M 1213 1971 L 1645 1230 C 1648.3333333333333 1224 1652 1218.3333333333333 1656 1213 L 1763 1071" id="v-278" stroke-width="2" stroke-dasharray="30 30" fill="none" style="opacity: 1;"></path><path  fill="black" stroke="black" d="M 0 0 0 0" transform="matrix(0.5038710563609288,-0.8637788829102745,0.8637788829102745,0.5038710563609288,1212.5,1971)"></path><path  fill="#707070" stroke="#707070" d="M 20 0 L 0 10 L 20 20 z" id="v-280" transform="matrix(-0.5999999761129288,0.8000000179153028,-0.8000000179153028,-0.5999999761129288,1770.4999999402824,1076.9999995819762)" style="opacity: 1;"></path><path  d="M 1213 1971 L 1645 1230 C 1648.3333333333333 1224 1652 1218.3333333333333 1656 1213 L 1763 1071" id="v-279" fill="none" style="cursor: auto; pointer-events: visiblepainted;"></path><g ><g id="v-272"  label-idx="0" cursor="move" transform="matrix(1,0,0,1,1478.877685546875,1514.94580078125)" style="cursor: default; opacity: 1;"><rect joint-selector="rect" id="v-275" fill="#ffffff" rx="3" ry="3" pointer-events="none" width="138.9059600830078" height="31.885272979736328" transform="matrix(1,0,0,1,-68.8,-15.9)"></rect><text joint-selector="text" id="v-274" font-size="24px" xml:space="preserve" y="0.8em" fill="#707070" text-anchor="middle" pointer-events="none" font-family="Open Sans" font-weight="normal" transform="matrix(1,0,0,1,0,-9.6)"><tspan dy="0" >Logs actions</tspan></text></g><g id="v-273"  label-idx="1" cursor="move" transform="matrix(1,0,0,1,1468.877685546875,1541.3458251953125)" style="cursor: default; opacity: 1;"><rect joint-selector="rect" id="v-277" fill="#ffffff" rx="3" ry="3"  width="0" height="0" transform="matrix(1,0,0,1,0,0)" display="none"></rect><text joint-selector="text" id="v-276" fill="#000000" font-size="14" text-anchor="middle" pointer-events="none"></text></g></g><g  display="none" style="display: none;"><g  transform="translate(1650, 1221)" id="v-324"><circle  idx="0" r="10"></circle><path  idx="0" d="M16,5.333c-7.732,0-14,4.701-14,10.5c0,1.982,0.741,3.833,2.016,5.414L2,25.667l5.613-1.441c2.339,1.317,5.237,2.107,8.387,2.107c7.732,0,14-4.701,14-10.5C30,10.034,23.732,5.333,16,5.333z" transform="translate(5, -33)"></path><path  idx="0" transform="scale(.8) translate(9.5, -37)" d="M24.778,21.419 19.276,15.917 24.777,10.415 21.949,7.585 16.447,13.087 10.945,7.585 8.117,10.415 13.618,15.917 8.116,21.419 10.946,24.248 16.447,18.746 21.948,24.248z"><title>Remove vertex.</title></path></g></g><g  id="v-282" display="none"><g  id="v-270"><path  end="source" d="M 26 0 L 0 13 L 26 26 z"></path></g><g  id="v-271"><path  end="target" d="M 26 0 L 0 13 L 26 26 z"></path></g></g><g  id="v-281" display="none"><g  id="v-268" transform="translate(1233.1461417027217, 1936.443770829359) "><g  event="remove"><circle r="11"></circle><path transform="scale(.8) translate(-16, -16)" d="M24.778,21.419 19.276,15.917 24.777,10.415 21.949,7.585 16.447,13.087 10.945,7.585 8.117,10.415 13.618,15.917 8.116,21.419 10.946,24.248 16.447,18.746 21.948,24.248z"></path><title>Remove link.</title></g><g  event="link:options"><circle r="11" transform="translate(25)"></circle><path fill="white" transform="scale(.55) translate(29, -16)" d="M31.229,17.736c0.064-0.571,0.104-1.148,0.104-1.736s-0.04-1.166-0.104-1.737l-4.377-1.557c-0.218-0.716-0.504-1.401-0.851-2.05l1.993-4.192c-0.725-0.91-1.549-1.734-2.458-2.459l-4.193,1.994c-0.647-0.347-1.334-0.632-2.049-0.849l-1.558-4.378C17.165,0.708,16.588,0.667,16,0.667s-1.166,0.041-1.737,0.105L12.707,5.15c-0.716,0.217-1.401,0.502-2.05,0.849L6.464,4.005C5.554,4.73,4.73,5.554,4.005,6.464l1.994,4.192c-0.347,0.648-0.632,1.334-0.849,2.05l-4.378,1.557C0.708,14.834,0.667,15.412,0.667,16s0.041,1.165,0.105,1.736l4.378,1.558c0.217,0.715,0.502,1.401,0.849,2.049l-1.994,4.193c0.725,0.909,1.549,1.733,2.459,2.458l4.192-1.993c0.648,0.347,1.334,0.633,2.05,0.851l1.557,4.377c0.571,0.064,1.148,0.104,1.737,0.104c0.588,0,1.165-0.04,1.736-0.104l1.558-4.377c0.715-0.218,1.399-0.504,2.049-0.851l4.193,1.993c0.909-0.725,1.733-1.549,2.458-2.458l-1.993-4.193c0.347-0.647,0.633-1.334,0.851-2.049L31.229,17.736zM16,20.871c-2.69,0-4.872-2.182-4.872-4.871c0-2.69,2.182-4.872,4.872-4.872c2.689,0,4.871,2.182,4.871,4.872C20.871,18.689,18.689,20.871,16,20.871z"></path><title>Link options.</title></g></g></g></g><!--z-index:49--><g   id="j_24" ><path  stroke="#707070" d="M 2100 2721 L 2400 2721" id="v-295" stroke-width="2" stroke-dasharray="30 30" fill="none" style="opacity: 1;"></path><path  fill="black" stroke="black" d="M 0 0 0 0" transform="matrix(1,0,0,1,2100,2721)"></path><path  fill="#707070" stroke="#707070" d="M 20 0 L 0 10 L 20 20 z" id="v-297" transform="matrix(-1,1.2246467991473532e-16,-1.2246467991473532e-16,-1,2400,2731)" style="opacity: 1;"></path><path  d="M 2100 2721 L 2400 2721" id="v-296" fill="none" style="cursor: auto; pointer-events: visiblepainted;"></path><g ><g id="v-289"  label-idx="0" cursor="move" transform="matrix(1,0,0,1,2250,2721)" style="cursor: default; opacity: 1;"><rect joint-selector="rect" id="v-292" fill="#ffffff" rx="3" ry="3" pointer-events="none" width="145.67311096191406" height="60.68527793884277" transform="matrix(1,0,0,1,-72.2,-30.3)"></rect><text joint-selector="text" id="v-291" font-size="24px" xml:space="preserve" y="0.8em" fill="#707070" text-anchor="middle" pointer-events="none" font-family="Open Sans" font-weight="normal" transform="matrix(1,0,0,1,0,-24)"><tspan dy="0" >Reads/writes</tspan><tspan dy="1.2em" x="0" >profiles</tspan></text></g><g id="v-290"  label-idx="1" cursor="move" transform="matrix(1,0,0,1,2240,2761.800048828125)" style="cursor: default; opacity: 1;"><rect joint-selector="rect" id="v-294" fill="#ffffff" rx="3" ry="3"  width="0" height="0" transform="matrix(1,0,0,1,0,0)" display="none"></rect><text joint-selector="text" id="v-293" fill="#000000" font-size="14" text-anchor="middle" pointer-events="none"></text></g></g><g  display="none" style="display: none;"></g><g  id="v-299" display="none"><g  id="v-287"><path  end="source" d="M 26 0 L 0 13 L 26 26 z"></path></g><g  id="v-288"><path  end="target" d="M 26 0 L 0 13 L 26 26 z"></path></g></g><g  id="v-298" display="none"><g  id="v-286" transform="translate(2140, 2721.0000000000005) "><g  event="remove"><circle r="11"></circle><path transform="scale(.8) translate(-16, -16)" d="M24.778,21.419 19.276,15.917 24.777,10.415 21.949,7.585 16.447,13.087 10.945,7.585 8.117,10.415 13.618,15.917 8.116,21.419 10.946,24.248 16.447,18.746 21.948,24.248z"></path><title>Remove link.</title></g><g  event="link:options"><circle r="11" transform="translate(25)"></circle><path fill="white" transform="scale(.55) translate(29, -16)" d="M31.229,17.736c0.064-0.571,0.104-1.148,0.104-1.736s-0.04-1.166-0.104-1.737l-4.377-1.557c-0.218-0.716-0.504-1.401-0.851-2.05l1.993-4.192c-0.725-0.91-1.549-1.734-2.458-2.459l-4.193,1.994c-0.647-0.347-1.334-0.632-2.049-0.849l-1.558-4.378C17.165,0.708,16.588,0.667,16,0.667s-1.166,0.041-1.737,0.105L12.707,5.15c-0.716,0.217-1.401,0.502-2.05,0.849L6.464,4.005C5.554,4.73,4.73,5.554,4.005,6.464l1.994,4.192c-0.347,0.648-0.632,1.334-0.849,2.05l-4.378,1.557C0.708,14.834,0.667,15.412,0.667,16s0.041,1.165,0.105,1.736l4.378,1.558c0.217,0.715,0.502,1.401,0.849,2.049l-1.994,4.193c0.725,0.909,1.549,1.733,2.459,2.458l4.192-1.993c0.648,0.347,1.334,0.633,2.05,0.851l1.557,4.377c0.571,0.064,1.148,0.104,1.737,0.104c0.588,0,1.165-0.04,1.736-0.104l1.558-4.377c0.715-0.218,1.399-0.504,2.049-0.851l4.193,1.993c0.909-0.725,1.733-1.549,2.458-2.458l-1.993-4.193c0.347-0.647,0.633-1.334,0.851-2.049L31.229,17.736zM16,20.871c-2.69,0-4.872-2.182-4.872-4.871c0-2.69,2.182-4.872,4.872-4.872c2.689,0,4.871,2.182,4.871,4.872C20.871,18.689,18.689,20.871,16,20.871z"></path><title>Link options.</title></g></g></g></g><!--z-index:50--><g   id="j_25" ><path  stroke="#707070" d="M 2850 2721 L 3150 2721" id="v-312" stroke-width="2" stroke-dasharray="30 30" fill="none" style="opacity: 1;"></path><path  fill="black" stroke="black" d="M 0 0 0 0" transform="matrix(1,0,0,1,2850,2721)"></path><path  fill="#707070" stroke="#707070" d="M 20 0 L 0 10 L 20 20 z" id="v-314" transform="matrix(-1,1.2246467991473532e-16,-1.2246467991473532e-16,-1,3150,2731)" style="opacity: 1;"></path><path  d="M 2850 2721 L 3150 2721" id="v-313" fill="none" style="cursor: auto; pointer-events: visiblepainted;"></path><g ><g id="v-306"  label-idx="0" cursor="move" transform="matrix(1,0,0,1,3000,2721)" style="cursor: default; opacity: 1;"><rect joint-selector="rect" id="v-309" fill="#ffffff" rx="3" ry="3" pointer-events="none" width="156.5341339111328" height="60.68527793884277" transform="matrix(1,0,0,1,-76.1,-30.3)"></rect><text joint-selector="text" id="v-308" font-size="24px" xml:space="preserve" y="0.8em" fill="#707070" text-anchor="middle" pointer-events="none" font-family="Open Sans" font-weight="normal" transform="matrix(1,0,0,1,0,-24)"><tspan dy="0" >Interacts with</tspan><tspan dy="1.2em" x="0" >database</tspan></text></g><g id="v-307"  label-idx="1" cursor="move" transform="matrix(1,0,0,1,2990,2761.800048828125)" style="cursor: default; opacity: 1;"><rect joint-selector="rect" id="v-311" fill="#ffffff" rx="3" ry="3"  width="0" height="0" transform="matrix(1,0,0,1,0,0)" display="none"></rect><text joint-selector="text" id="v-310" fill="#000000" font-size="14" text-anchor="middle" pointer-events="none"></text></g></g><g  display="none" style="display: none;"></g><g  id="v-316" display="none"><g  id="v-304"><path  end="source" d="M 26 0 L 0 13 L 26 26 z"></path></g><g  id="v-305"><path  end="target" d="M 26 0 L 0 13 L 26 26 z"></path></g></g><g  id="v-315" display="none"><g  id="v-303" transform="translate(2890, 2721.0000000000005) "><g  event="remove"><circle r="11"></circle><path transform="scale(.8) translate(-16, -16)" d="M24.778,21.419 19.276,15.917 24.777,10.415 21.949,7.585 16.447,13.087 10.945,7.585 8.117,10.415 13.618,15.917 8.116,21.419 10.946,24.248 16.447,18.746 21.948,24.248z"></path><title>Remove link.</title></g><g  event="link:options"><circle r="11" transform="translate(25)"></circle><path fill="white" transform="scale(.55) translate(29, -16)" d="M31.229,17.736c0.064-0.571,0.104-1.148,0.104-1.736s-0.04-1.166-0.104-1.737l-4.377-1.557c-0.218-0.716-0.504-1.401-0.851-2.05l1.993-4.192c-0.725-0.91-1.549-1.734-2.458-2.459l-4.193,1.994c-0.647-0.347-1.334-0.632-2.049-0.849l-1.558-4.378C17.165,0.708,16.588,0.667,16,0.667s-1.166,0.041-1.737,0.105L12.707,5.15c-0.716,0.217-1.401,0.502-2.05,0.849L6.464,4.005C5.554,4.73,4.73,5.554,4.005,6.464l1.994,4.192c-0.347,0.648-0.632,1.334-0.849,2.05l-4.378,1.557C0.708,14.834,0.667,15.412,0.667,16s0.041,1.165,0.105,1.736l4.378,1.558c0.217,0.715,0.502,1.401,0.849,2.049l-1.994,4.193c0.725,0.909,1.549,1.733,2.459,2.458l4.192-1.993c0.648,0.347,1.334,0.633,2.05,0.851l1.557,4.377c0.571,0.064,1.148,0.104,1.737,0.104c0.588,0,1.165-0.04,1.736-0.104l1.558-4.377c0.715-0.218,1.399-0.504,2.049-0.851l4.193,1.993c0.909-0.725,1.733-1.549,2.458-2.458l-1.993-4.193c0.347-0.647,0.633-1.334,0.851-2.049L31.229,17.736zM16,20.871c-2.69,0-4.872-2.182-4.872-4.871c0-2.69,2.182-4.872,4.872-4.872c2.689,0,4.871,2.182,4.871,4.872C20.871,18.689,18.689,20.871,16,20.871z"></path><title>Link options.</title></g></g></g></g><!--z-index:51--></g><g ></g><g ></g><g ></g></g></svg>