<svg xmlns="http://www.w3.org/2000/svg" xmlns:xlink="http://www.w3.org/1999/xlink" version="1.1" viewBox="0 0 3820 4411" style="background: #ffffff"><defs><style>@import url(https://fonts.googleapis.com/css?family=Open+Sans:400,700);</style></defs><defs joint-selector="defs"></defs><g joint-selector="layers"  transform="matrix(1,0,0,1,0,0)"><g ></g><g ><!--z-index:0--><!--z-index:1--><!--z-index:2--><!--z-index:3--><!--z-index:4--><!--z-index:5--><!--z-index:6--><!--z-index:7--><!--z-index:8--><!--z-index:9--><!--z-index:10--><!--z-index:11--><!--z-index:12--><!--z-index:13--><!--z-index:14--><!--z-index:15--><!--z-index:16--><!--z-index:17--><!--z-index:18--><!--z-index:19--><!--z-index:20--><!--z-index:21--><!--z-index:22--><!--z-index:23--><!--z-index:24--><!--z-index:25--><!--z-index:26--><g   id="j_3"  transform="translate(20,4374.6)"><g id="v-7"><text  id="v-8" font-size="22px" xml:space="preserve" y="0.8em" font-weight="normal" text-anchor="start" fill="#aaaaaa" pointer-events="none" display="block" font-family="Open Sans"><tspan dy="0"  display="none">Thursday, July 17, 2025 at 11:29 AM West Africa Standard Time</tspan></text></g></g><!--z-index:27--><g   id="j_2"  transform="translate(20,4348.200000000001)"><g id="v-5"><text  id="v-6" font-size="22px" xml:space="preserve" y="0.8em" font-weight="normal" text-anchor="start" fill="#aaaaaa" pointer-events="none" display="block" font-family="Open Sans"><tspan dy="0"  display="none">Clean architecture of the RBAC Service for managing roles and permissions</tspan></text></g></g><!--z-index:28--><g   id="j_1"  transform="translate(20,4305.000000000001)"><g id="v-3"><text  id="v-4" font-size="36px" xml:space="preserve" y="0.8em" font-weight="normal" text-anchor="start" fill="#000000" pointer-events="none" display="block" font-family="Open Sans"><tspan dy="0"  display="none">Component Diagram - RBAC Service (NestJS)</tspan></text></g></g><!--z-index:29--><g   id="j_4"  transform="translate(200,1921)" style=""><g  id="v-12" style="opacity: 1;"><rect  x="0" y="160" width="400" height="240" rx="70" id="v-14" stroke="#05a1c8" stroke-width="2" pointer-events="visiblePainted" fill="#06b3de" style="fill: rgb(6, 179, 222); stroke: rgb(5, 161, 200);"></rect><circle  cx="200" cy="88.88888888888889" r="88.88888888888889" id="v-13" stroke="#05a1c8" stroke-width="2" pointer-events="visiblePainted" fill="#06b3de" style="fill: rgb(6, 179, 222); stroke: rgb(5, 161, 200);"></circle><line  x1="80" y1="266.6666666666667" x2="80" y2="400" id="v-20" stroke="#05a1c8" stroke-width="2" style="stroke: rgb(5, 161, 200);"></line><line  x1="320" y1="266.6666666666667" x2="320" y2="400" id="v-21" stroke="#05a1c8" stroke-width="2" style="stroke: rgb(5, 161, 200);"></line><text  id="v-15" font-size="34" xml:space="preserve" y="0.8em" font-weight="bold" text-anchor="middle" pointer-events="visible" font-family="Open Sans" fill="#ffffff" transform="matrix(1,0,0,1,200,218.1)" style="fill: rgb(255, 255, 255);"><tspan dy="0" >Admin</tspan></text><text  id="v-16" font-size="17" xml:space="preserve" y="0.8em" text-anchor="middle" font-family="Open Sans" fill="#ffffff" transform="matrix(1,0,0,1,200,258.9)" style="fill: rgb(255, 255, 255);"><tspan dy="0" >[Person]</tspan></text><text  id="v-17" font-size="24" xml:space="preserve" y="0.8em" text-anchor="middle" font-family="Open Sans" fill="#ffffff" transform="matrix(1,0,0,1,200,289.3)" style="fill: rgb(255, 255, 255);"><tspan dy="0" >Manages user roles and</tspan><tspan dy="1.2em" x="0" >permissions</tspan></text><g  id="v-18" font-weight="normal" text-anchor="middle" color="#ffffff" transform="matrix(1,0,0,1,197.5,368)" display="none" style="fill: rgb(255, 255, 255);"><g ></g><g ></g><g ></g><g ></g></g><image  id="v-19"></image></g></g><!--z-index:30--><g   id="j_6"  transform="translate(880,151)" style=""><g id="v-32"><rect  id="v-33" width="2740" height="4011" rx="0" ry="0" fill="#ffffff" stroke="#c7c7c7" stroke-width="1" stroke-dasharray="20,20" pointer-events="none"></rect><text  id="v-34" font-size="24px" xml:space="preserve" y="3972" font-weight="normal" fill="#c7c7c7" text-anchor="start" pointer-events="visible" font-family="Open Sans" transform="matrix(1,0,0,1,15,0)"><tspan dy="0" >RBAC Service</tspan></text><text  id="v-35" font-size="17px" xml:space="preserve" y="3996" font-weight="normal" fill="#c7c7c7" text-anchor="start" pointer-events="visible" font-family="Open Sans" transform="matrix(1,0,0,1,15,0)"><tspan dy="0" >[Software System]</tspan></text><image  id="v-36" pointer-events="visible"></image></g></g><!--z-index:31--><g   id="j_5"  transform="translate(900,1971)" style=""><g  id="v-25" style="opacity: 1;"><rect  id="v-26" rx="20" ry="20" stroke="#003049" stroke-width="6" pointer-events="visiblePainted" fill="#d6f0ff" width="450" height="300" style="fill: rgb(214, 240, 255); stroke: rgb(0, 48, 73);"></rect><text  id="v-27" font-size="34" xml:space="preserve" y="0.8em" font-weight="bold" text-anchor="middle" pointer-events="visible" font-family="Open Sans" fill="#000000" transform="matrix(1,0,0,1,225,88.1)" style="fill: rgb(0, 0, 0);"><tspan dy="0" >RbacController</tspan></text><text  id="v-28" font-size="17" xml:space="preserve" y="0.8em" text-anchor="middle" font-family="Open Sans" fill="#000000" transform="matrix(1,0,0,1,225,128.9)" style="fill: rgb(0, 0, 0);"><tspan dy="0" >[Container]</tspan></text><text  id="v-29" font-size="24" xml:space="preserve" y="0.8em" text-anchor="middle" font-family="Open Sans" fill="#000000" transform="matrix(1,0,0,1,225,159.3)" style="fill: rgb(0, 0, 0);"><tspan dy="0" >Endpoints like GET /roles, POST</tspan><tspan dy="1.2em" x="0" >/permissions</tspan></text><g  id="v-30" color="#000000" transform="matrix(1,0,0,1,222.5,268)" display="none" style="fill: rgb(0, 0, 0);"><g ></g><g ></g><g ></g><g ></g></g><image  id="v-31"></image></g></g><!--z-index:32--><g   id="j_7"  transform="translate(1650,2571)" style=""><g  id="v-40" style="opacity: 1;"><rect  id="v-41" rx="20" ry="20" stroke="#003049" stroke-width="6" pointer-events="visiblePainted" fill="#d6f0ff" width="450" height="300" style="fill: rgb(214, 240, 255); stroke: rgb(0, 48, 73);"></rect><text  id="v-42" font-size="34" xml:space="preserve" y="0.8em" font-weight="bold" text-anchor="middle" pointer-events="visible" font-family="Open Sans" fill="#000000" transform="matrix(1,0,0,1,225,88.1)" style="fill: rgb(0, 0, 0);"><tspan dy="0" >RbacService</tspan></text><text  id="v-43" font-size="17" xml:space="preserve" y="0.8em" text-anchor="middle" font-family="Open Sans" fill="#000000" transform="matrix(1,0,0,1,225,128.9)" style="fill: rgb(0, 0, 0);"><tspan dy="0" >[Container]</tspan></text><text  id="v-44" font-size="24" xml:space="preserve" y="0.8em" text-anchor="middle" font-family="Open Sans" fill="#000000" transform="matrix(1,0,0,1,225,159.3)" style="fill: rgb(0, 0, 0);"><tspan dy="0" >Business logic for role/permission</tspan><tspan dy="1.2em" x="0" >assignment and checks</tspan></text><g  id="v-45" color="#000000" transform="matrix(1,0,0,1,222.5,268)" display="none" style="fill: rgb(0, 0, 0);"><g ></g><g ></g><g ></g><g ></g></g><image  id="v-46"></image></g></g><!--z-index:33--><g   id="j_8"  transform="translate(2400,2571)" style=""><g  id="v-50" style="opacity: 1;"><rect  id="v-51" rx="20" ry="20" stroke="#003049" stroke-width="6" pointer-events="visiblePainted" fill="#d6f0ff" width="450" height="300" style="fill: rgb(214, 240, 255); stroke: rgb(0, 48, 73);"></rect><text  id="v-52" font-size="34" xml:space="preserve" y="0.8em" font-weight="bold" text-anchor="middle" pointer-events="visible" font-family="Open Sans" fill="#000000" transform="matrix(1,0,0,1,225,88.1)" style="fill: rgb(0, 0, 0);"><tspan dy="0" >RbacRepository</tspan></text><text  id="v-53" font-size="17" xml:space="preserve" y="0.8em" text-anchor="middle" font-family="Open Sans" fill="#000000" transform="matrix(1,0,0,1,225,128.9)" style="fill: rgb(0, 0, 0);"><tspan dy="0" >[Container]</tspan></text><text  id="v-54" font-size="24" xml:space="preserve" y="0.8em" text-anchor="middle" font-family="Open Sans" fill="#000000" transform="matrix(1,0,0,1,225,159.3)" style="fill: rgb(0, 0, 0);"><tspan dy="0" >Data access layer for roles,</tspan><tspan dy="1.2em" x="0" >permissions, bindings</tspan></text><g  id="v-55" color="#000000" transform="matrix(1,0,0,1,222.5,268)" display="none" style="fill: rgb(0, 0, 0);"><g ></g><g ></g><g ></g><g ></g></g><image  id="v-56"></image></g></g><!--z-index:34--><g   id="j_9"  transform="translate(1650,1971)" style=""><g  id="v-60" style="opacity: 1;"><rect  id="v-61" rx="20" ry="20" stroke="#003049" stroke-width="6" pointer-events="visiblePainted" fill="#d6f0ff" width="450" height="300" style="fill: rgb(214, 240, 255); stroke: rgb(0, 48, 73);"></rect><text  id="v-62" font-size="34" xml:space="preserve" y="0.8em" font-weight="bold" text-anchor="middle" pointer-events="visible" font-family="Open Sans" fill="#000000" transform="matrix(1,0,0,1,225,102.5)" style="fill: rgb(0, 0, 0);"><tspan dy="0" >RbacDTOs</tspan></text><text  id="v-63" font-size="17" xml:space="preserve" y="0.8em" text-anchor="middle" font-family="Open Sans" fill="#000000" transform="matrix(1,0,0,1,225,143.3)" style="fill: rgb(0, 0, 0);"><tspan dy="0" >[Container]</tspan></text><text  id="v-64" font-size="24" xml:space="preserve" y="0.8em" text-anchor="middle" font-family="Open Sans" fill="#000000" transform="matrix(1,0,0,1,225,173.7)" style="fill: rgb(0, 0, 0);"><tspan dy="0" >Defines input/output shapes</tspan></text><g  id="v-65" color="#000000" transform="matrix(1,0,0,1,222.5,268)" display="none" style="fill: rgb(0, 0, 0);"><g ></g><g ></g><g ></g><g ></g></g><image  id="v-66"></image></g></g><!--z-index:35--><g   id="j_10"  transform="translate(1650,1371)" style=""><g  id="v-70" style="opacity: 1;"><rect  id="v-71" rx="20" ry="20" stroke="#003049" stroke-width="6" pointer-events="visiblePainted" fill="#d6f0ff" width="450" height="300" style="fill: rgb(214, 240, 255); stroke: rgb(0, 48, 73);"></rect><text  id="v-72" font-size="34" xml:space="preserve" y="0.8em" font-weight="bold" text-anchor="middle" pointer-events="visible" font-family="Open Sans" fill="#000000" transform="matrix(1,0,0,1,225,102.5)" style="fill: rgb(0, 0, 0);"><tspan dy="0" >RolesGuard</tspan></text><text  id="v-73" font-size="17" xml:space="preserve" y="0.8em" text-anchor="middle" font-family="Open Sans" fill="#000000" transform="matrix(1,0,0,1,225,143.3)" style="fill: rgb(0, 0, 0);"><tspan dy="0" >[Container]</tspan></text><text  id="v-74" font-size="24" xml:space="preserve" y="0.8em" text-anchor="middle" font-family="Open Sans" fill="#000000" transform="matrix(1,0,0,1,225,173.7)" style="fill: rgb(0, 0, 0);"><tspan dy="0" >Restricts access based on user roles</tspan></text><g  id="v-75" color="#000000" transform="matrix(1,0,0,1,222.5,268)" display="none" style="fill: rgb(0, 0, 0);"><g ></g><g ></g><g ></g><g ></g></g><image  id="v-76"></image></g></g><!--z-index:36--><g   id="j_11"  transform="translate(1650,771)" style=""><g  id="v-83" style="opacity: 1;"><rect  id="v-84" rx="20" ry="20" stroke="#003049" stroke-width="6" pointer-events="visiblePainted" fill="#d6f0ff" width="450" height="300" style="fill: rgb(214, 240, 255); stroke: rgb(0, 48, 73);"></rect><text  id="v-85" font-size="34" xml:space="preserve" y="0.8em" font-weight="bold" text-anchor="middle" pointer-events="visible" font-family="Open Sans" fill="#000000" transform="matrix(1,0,0,1,225,102.5)" style="fill: rgb(0, 0, 0);"><tspan dy="0" >AuditInterceptor</tspan></text><text  id="v-86" font-size="17" xml:space="preserve" y="0.8em" text-anchor="middle" font-family="Open Sans" fill="#000000" transform="matrix(1,0,0,1,225,143.3)" style="fill: rgb(0, 0, 0);"><tspan dy="0" >[Container]</tspan></text><text  id="v-87" font-size="24" xml:space="preserve" y="0.8em" text-anchor="middle" font-family="Open Sans" fill="#000000" transform="matrix(1,0,0,1,225,173.7)" style="fill: rgb(0, 0, 0);"><tspan dy="0" >Logs permission-related operations</tspan></text><g  id="v-88" color="#000000" transform="matrix(1,0,0,1,222.5,268)" display="none" style="fill: rgb(0, 0, 0);"><g ></g><g ></g><g ></g><g ></g></g><image  id="v-89"></image></g></g><!--z-index:37--><g   id="j_12"  transform="translate(1650,171)" style=""><g  id="v-93" style="opacity: 1;"><rect  id="v-94" rx="20" ry="20" stroke="#003049" stroke-width="6" pointer-events="visiblePainted" fill="#d6f0ff" width="450" height="300" style="fill: rgb(214, 240, 255); stroke: rgb(0, 48, 73);"></rect><text  id="v-95" font-size="34" xml:space="preserve" y="0.8em" font-weight="bold" text-anchor="middle" pointer-events="visible" font-family="Open Sans" fill="#000000" transform="matrix(1,0,0,1,225,102.5)" style="fill: rgb(0, 0, 0);"><tspan dy="0" >ValidationPipe</tspan></text><text  id="v-96" font-size="17" xml:space="preserve" y="0.8em" text-anchor="middle" font-family="Open Sans" fill="#000000" transform="matrix(1,0,0,1,225,143.3)" style="fill: rgb(0, 0, 0);"><tspan dy="0" >[Container]</tspan></text><text  id="v-97" font-size="24" xml:space="preserve" y="0.8em" text-anchor="middle" font-family="Open Sans" fill="#000000" transform="matrix(1,0,0,1,225,173.7)" style="fill: rgb(0, 0, 0);"><tspan dy="0" >Validates incoming data</tspan></text><g  id="v-98" color="#000000" transform="matrix(1,0,0,1,222.5,268)" display="none" style="fill: rgb(0, 0, 0);"><g ></g><g ></g><g ></g><g ></g></g><image  id="v-99"></image></g></g><!--z-index:38--><g   id="j_13"  transform="translate(1650,3771)" style=""><g  id="v-106" style="opacity: 1;"><rect  id="v-107" rx="20" ry="20" stroke="#003049" stroke-width="6" pointer-events="visiblePainted" fill="#d6f0ff" width="450" height="300" style="fill: rgb(214, 240, 255); stroke: rgb(0, 48, 73);"></rect><text  id="v-108" font-size="34" xml:space="preserve" y="0.8em" font-weight="bold" text-anchor="middle" pointer-events="visible" font-family="Open Sans" fill="#000000" transform="matrix(1,0,0,1,225,88.1)" style="fill: rgb(0, 0, 0);"><tspan dy="0" >RbacExceptionFilter</tspan></text><text  id="v-109" font-size="17" xml:space="preserve" y="0.8em" text-anchor="middle" font-family="Open Sans" fill="#000000" transform="matrix(1,0,0,1,225,128.9)" style="fill: rgb(0, 0, 0);"><tspan dy="0" >[Container]</tspan></text><text  id="v-110" font-size="24" xml:space="preserve" y="0.8em" text-anchor="middle" font-family="Open Sans" fill="#000000" transform="matrix(1,0,0,1,225,159.3)" style="fill: rgb(0, 0, 0);"><tspan dy="0" >Handles forbidden access, missing</tspan><tspan dy="1.2em" x="0" >roles, etc.</tspan></text><g  id="v-111" color="#000000" transform="matrix(1,0,0,1,222.5,268)" display="none" style="fill: rgb(0, 0, 0);"><g ></g><g ></g><g ></g><g ></g></g><image  id="v-112"></image></g></g><!--z-index:39--><g   id="j_14"  transform="translate(1650,3171)" style=""><g  id="v-116" style="opacity: 1;"><rect  id="v-117" rx="20" ry="20" stroke="#003049" stroke-width="6" pointer-events="visiblePainted" fill="#d6f0ff" width="450" height="300" style="fill: rgb(214, 240, 255); stroke: rgb(0, 48, 73);"></rect><text  id="v-118" font-size="34" xml:space="preserve" y="0.8em" font-weight="bold" text-anchor="middle" pointer-events="visible" font-family="Open Sans" fill="#000000" transform="matrix(1,0,0,1,225,88.1)" style="fill: rgb(0, 0, 0);"><tspan dy="0" >RolesDecorator</tspan></text><text  id="v-119" font-size="17" xml:space="preserve" y="0.8em" text-anchor="middle" font-family="Open Sans" fill="#000000" transform="matrix(1,0,0,1,225,128.9)" style="fill: rgb(0, 0, 0);"><tspan dy="0" >[Container]</tspan></text><text  id="v-120" font-size="24" xml:space="preserve" y="0.8em" text-anchor="middle" font-family="Open Sans" fill="#000000" transform="matrix(1,0,0,1,225,159.3)" style="fill: rgb(0, 0, 0);"><tspan dy="0" >Custom decorator to tag handlers</tspan><tspan dy="1.2em" x="0" >with required roles</tspan></text><g  id="v-121" color="#000000" transform="matrix(1,0,0,1,222.5,268)" display="none" style="fill: rgb(0, 0, 0);"><g ></g><g ></g><g ></g><g ></g></g><image  id="v-122"></image></g></g><!--z-index:40--><g   id="j_15"  transform="translate(3150,2571)" style=""><g  id="v-126" style="opacity: 1;"><path  d="M 0,30 a 225,30 0,0,0 450 0 a 225,30 0,0,0 -450 0 l 0,240 a 225,30 0,0,0 450 0 l 0,-240" id="v-127" stroke="#003049" stroke-width="6" pointer-events="visiblePainted" fill="#d6f0ff" style="fill: rgb(214, 240, 255); stroke: rgb(0, 48, 73);"></path><rect  id="v-128" stroke-width="0" pointer-events="visiblePainted" fill="none" stroke="none" width="450" height="270" x="0" y="30"></rect><text  id="v-129" font-size="34" xml:space="preserve" y="0.8em" font-weight="bold" text-anchor="middle" pointer-events="visible" font-family="Open Sans" fill="#000000" transform="matrix(1,0,0,1,225,110.6)" style="fill: rgb(0, 0, 0);"><tspan dy="0" >RbacDB</tspan></text><text  id="v-130" font-size="17" xml:space="preserve" y="0.8em" text-anchor="middle" font-family="Open Sans" fill="#000000" transform="matrix(1,0,0,1,225,151.4)" style="fill: rgb(0, 0, 0);"><tspan dy="0" >[Container: PostgreSQL]</tspan></text><text  id="v-131" font-size="24" xml:space="preserve" y="0.8em" text-anchor="middle" font-family="Open Sans" fill="#000000" transform="matrix(1,0,0,1,225,181.8)" style="fill: rgb(0, 0, 0);"><tspan dy="0" >Stores roles, permissions, and</tspan><tspan dy="1.2em" x="0" >mappings</tspan></text><g  id="v-132" font-weight="normal" text-anchor="middle" color="#000000" transform="matrix(1,0,0,1,222.5,268)" display="none" style="fill: rgb(0, 0, 0);"><g ></g><g ></g><g ></g><g ></g></g><image  id="v-133"></image></g></g><!--z-index:41--><g   id="j_16" ><path  stroke="#707070" d="M 600 2121 L 900 2121" id="v-146" stroke-width="2" stroke-dasharray="30 30" fill="none" style="opacity: 1;"></path><path  fill="black" stroke="black" d="M 0 0 0 0" transform="matrix(1,0,0,1,600,2121)"></path><path  fill="#707070" stroke="#707070" d="M 20 0 L 0 10 L 20 20 z" id="v-148" transform="matrix(-1,1.2246467991473532e-16,-1.2246467991473532e-16,-1,900,2131)" style="opacity: 1;"></path><path  d="M 600 2121 L 900 2121" id="v-147" fill="none" style="cursor: auto; pointer-events: visiblepainted;"></path><g ><g id="v-140"  label-idx="0" cursor="move" transform="matrix(1,0,0,1,750,2121)" style="cursor: default; opacity: 1;"><rect joint-selector="rect" id="v-143" fill="#ffffff" rx="3" ry="3" pointer-events="none" width="161.70907592773438" height="60.68527793884277" transform="matrix(1,0,0,1,-83.4,-30.3)"></rect><text joint-selector="text" id="v-142" font-size="24px" xml:space="preserve" y="0.8em" fill="#707070" text-anchor="middle" pointer-events="none" font-family="Open Sans" font-weight="normal" transform="matrix(1,0,0,1,0,-24)"><tspan dy="0" >Assigns roles,</tspan><tspan dy="1.2em" x="0" >checks access</tspan></text></g><g id="v-141"  label-idx="1" cursor="move" transform="matrix(1,0,0,1,740,2161.800048828125)" style="cursor: default; opacity: 1;"><rect joint-selector="rect" id="v-145" fill="#ffffff" rx="3" ry="3"  width="0" height="0" transform="matrix(1,0,0,1,0,0)" display="none"></rect><text joint-selector="text" id="v-144" fill="#000000" font-size="14" text-anchor="middle" pointer-events="none"></text></g></g><g  display="none" style="display: none;"></g><g  id="v-150" display="none"><g  id="v-138"><path  end="source" d="M 26 0 L 0 13 L 26 26 z"></path></g><g  id="v-139"><path  end="target" d="M 26 0 L 0 13 L 26 26 z"></path></g></g><g  id="v-149" display="none"><g  id="v-137" transform="translate(640, 2121) "><g  event="remove"><circle r="11"></circle><path transform="scale(.8) translate(-16, -16)" d="M24.778,21.419 19.276,15.917 24.777,10.415 21.949,7.585 16.447,13.087 10.945,7.585 8.117,10.415 13.618,15.917 8.116,21.419 10.946,24.248 16.447,18.746 21.948,24.248z"></path><title>Remove link.</title></g><g  event="link:options"><circle r="11" transform="translate(25)"></circle><path fill="white" transform="scale(.55) translate(29, -16)" d="M31.229,17.736c0.064-0.571,0.104-1.148,0.104-1.736s-0.04-1.166-0.104-1.737l-4.377-1.557c-0.218-0.716-0.504-1.401-0.851-2.05l1.993-4.192c-0.725-0.91-1.549-1.734-2.458-2.459l-4.193,1.994c-0.647-0.347-1.334-0.632-2.049-0.849l-1.558-4.378C17.165,0.708,16.588,0.667,16,0.667s-1.166,0.041-1.737,0.105L12.707,5.15c-0.716,0.217-1.401,0.502-2.05,0.849L6.464,4.005C5.554,4.73,4.73,5.554,4.005,6.464l1.994,4.192c-0.347,0.648-0.632,1.334-0.849,2.05l-4.378,1.557C0.708,14.834,0.667,15.412,0.667,16s0.041,1.165,0.105,1.736l4.378,1.558c0.217,0.715,0.502,1.401,0.849,2.049l-1.994,4.193c0.725,0.909,1.549,1.733,2.459,2.458l4.192-1.993c0.648,0.347,1.334,0.633,2.05,0.851l1.557,4.377c0.571,0.064,1.148,0.104,1.737,0.104c0.588,0,1.165-0.04,1.736-0.104l1.558-4.377c0.715-0.218,1.399-0.504,2.049-0.851l4.193,1.993c0.909-0.725,1.733-1.549,2.458-2.458l-1.993-4.193c0.347-0.647,0.633-1.334,0.851-2.049L31.229,17.736zM16,20.871c-2.69,0-4.872-2.182-4.872-4.871c0-2.69,2.182-4.872,4.872-4.872c2.689,0,4.871,2.182,4.871,4.872C20.871,18.689,18.689,20.871,16,20.871z"></path><title>Link options.</title></g></g></g></g><!--z-index:42--><g   id="j_17" ><path  stroke="#707070" d="M 1350 2121 L 1650 2121" id="v-163" stroke-width="2" stroke-dasharray="30 30" fill="none" style="opacity: 1;"></path><path  fill="black" stroke="black" d="M 0 0 0 0" transform="matrix(1,0,0,1,1350,2121)"></path><path  fill="#707070" stroke="#707070" d="M 20 0 L 0 10 L 20 20 z" id="v-165" transform="matrix(-1,1.2246467991473532e-16,-1.2246467991473532e-16,-1,1650,2131)" style="opacity: 1;"></path><path  d="M 1350 2121 L 1650 2121" id="v-164" fill="none" style="cursor: auto; pointer-events: visiblepainted;"></path><g ><g id="v-157"  label-idx="0" cursor="move" transform="matrix(1,0,0,1,1500,2121)" style="cursor: default; opacity: 1;"><rect joint-selector="rect" id="v-160" fill="#ffffff" rx="3" ry="3" pointer-events="none" width="162.1811981201172" height="89.48527526855469" transform="matrix(1,0,0,1,-79.6,-44.7)"></rect><text joint-selector="text" id="v-159" font-size="24px" xml:space="preserve" y="0.8em" fill="#707070" text-anchor="middle" pointer-events="none" font-family="Open Sans" font-weight="normal" transform="matrix(1,0,0,1,0,-38.4)"><tspan dy="0" >Uses DTOs for</tspan><tspan dy="1.2em" x="0" >validation/</tspan><tspan dy="1.2em" x="0" >serialization</tspan></text></g><g id="v-158"  label-idx="1" cursor="move" transform="matrix(1,0,0,1,1490,2176.199951171875)" style="cursor: default; opacity: 1;"><rect joint-selector="rect" id="v-162" fill="#ffffff" rx="3" ry="3"  width="0" height="0" transform="matrix(1,0,0,1,0,0)" display="none"></rect><text joint-selector="text" id="v-161" fill="#000000" font-size="14" text-anchor="middle" pointer-events="none"></text></g></g><g  display="none" style="display: none;"></g><g  id="v-167" display="none"><g  id="v-155"><path  end="source" d="M 26 0 L 0 13 L 26 26 z"></path></g><g  id="v-156"><path  end="target" d="M 26 0 L 0 13 L 26 26 z"></path></g></g><g  id="v-166" display="none"><g  id="v-154" transform="translate(1390, 2121) "><g  event="remove"><circle r="11"></circle><path transform="scale(.8) translate(-16, -16)" d="M24.778,21.419 19.276,15.917 24.777,10.415 21.949,7.585 16.447,13.087 10.945,7.585 8.117,10.415 13.618,15.917 8.116,21.419 10.946,24.248 16.447,18.746 21.948,24.248z"></path><title>Remove link.</title></g><g  event="link:options"><circle r="11" transform="translate(25)"></circle><path fill="white" transform="scale(.55) translate(29, -16)" d="M31.229,17.736c0.064-0.571,0.104-1.148,0.104-1.736s-0.04-1.166-0.104-1.737l-4.377-1.557c-0.218-0.716-0.504-1.401-0.851-2.05l1.993-4.192c-0.725-0.91-1.549-1.734-2.458-2.459l-4.193,1.994c-0.647-0.347-1.334-0.632-2.049-0.849l-1.558-4.378C17.165,0.708,16.588,0.667,16,0.667s-1.166,0.041-1.737,0.105L12.707,5.15c-0.716,0.217-1.401,0.502-2.05,0.849L6.464,4.005C5.554,4.73,4.73,5.554,4.005,6.464l1.994,4.192c-0.347,0.648-0.632,1.334-0.849,2.05l-4.378,1.557C0.708,14.834,0.667,15.412,0.667,16s0.041,1.165,0.105,1.736l4.378,1.558c0.217,0.715,0.502,1.401,0.849,2.049l-1.994,4.193c0.725,0.909,1.549,1.733,2.459,2.458l4.192-1.993c0.648,0.347,1.334,0.633,2.05,0.851l1.557,4.377c0.571,0.064,1.148,0.104,1.737,0.104c0.588,0,1.165-0.04,1.736-0.104l1.558-4.377c0.715-0.218,1.399-0.504,2.049-0.851l4.193,1.993c0.909-0.725,1.733-1.549,2.458-2.458l-1.993-4.193c0.347-0.647,0.633-1.334,0.851-2.049L31.229,17.736zM16,20.871c-2.69,0-4.872-2.182-4.872-4.871c0-2.69,2.182-4.872,4.872-4.872c2.689,0,4.871,2.182,4.871,4.872C20.871,18.689,18.689,20.871,16,20.871z"></path><title>Link options.</title></g></g></g></g><!--z-index:43--><g   id="j_18" ><path  stroke="#707070" d="M 1178 1971 L 1647 630 C 1649 624 1652 618.3333333333333 1656 613 L 1763 471" id="v-181" stroke-width="2" stroke-dasharray="30 30" fill="none" style="opacity: 1;"></path><path  fill="black" stroke="black" d="M 0 0 0 0" transform="matrix(0.33035030683284927,-0.943858397629349,0.943858397629349,0.33035030683284927,1177.5,1971)"></path><path  fill="#707070" stroke="#707070" d="M 20 0 L 0 10 L 20 20 z" id="v-183" transform="matrix(-0.5999999761129288,0.8000000179153028,-0.8000000179153028,-0.5999999761129288,1770.4999999402824,476.9999995819763)" style="opacity: 1;"></path><path  d="M 1178 1971 L 1647 630 C 1649 624 1652 618.3333333333333 1656 613 L 1763 471" id="v-182" fill="none" style="cursor: auto; pointer-events: visiblepainted;"></path><g ><g id="v-175"  label-idx="0" cursor="move" transform="matrix(1,0,0,1,1445.036865234375,1207.46826171875)" style="cursor: default; opacity: 1;"><rect joint-selector="rect" id="v-178" fill="#ffffff" rx="3" ry="3" pointer-events="none" width="176.648193359375" height="31.885272979736328" transform="matrix(1,0,0,1,-89.4,-15.9)"></rect><text joint-selector="text" id="v-177" font-size="24px" xml:space="preserve" y="0.8em" fill="#707070" text-anchor="middle" pointer-events="none" font-family="Open Sans" font-weight="normal" transform="matrix(1,0,0,1,0,-9.6)"><tspan dy="0" >Validates input</tspan></text></g><g id="v-176"  label-idx="1" cursor="move" transform="matrix(1,0,0,1,1435.036865234375,1233.8682861328125)" style="cursor: default; opacity: 1;"><rect joint-selector="rect" id="v-180" fill="#ffffff" rx="3" ry="3"  width="0" height="0" transform="matrix(1,0,0,1,0,0)" display="none"></rect><text joint-selector="text" id="v-179" fill="#000000" font-size="14" text-anchor="middle" pointer-events="none"></text></g></g><g  display="none" style="display: none;"><g  transform="translate(1650, 621)" id="v-312"><circle  idx="0" r="10"></circle><path  idx="0" d="M16,5.333c-7.732,0-14,4.701-14,10.5c0,1.982,0.741,3.833,2.016,5.414L2,25.667l5.613-1.441c2.339,1.317,5.237,2.107,8.387,2.107c7.732,0,14-4.701,14-10.5C30,10.034,23.732,5.333,16,5.333z" transform="translate(5, -33)"></path><path  idx="0" transform="scale(.8) translate(9.5, -37)" d="M24.778,21.419 19.276,15.917 24.777,10.415 21.949,7.585 16.447,13.087 10.945,7.585 8.117,10.415 13.618,15.917 8.116,21.419 10.946,24.248 16.447,18.746 21.948,24.248z"><title>Remove vertex.</title></path></g></g><g  id="v-185" display="none"><g  id="v-173"><path  end="source" d="M 26 0 L 0 13 L 26 26 z"></path></g><g  id="v-174"><path  end="target" d="M 26 0 L 0 13 L 26 26 z"></path></g></g><g  id="v-184" display="none"><g  id="v-171" transform="translate(1191.2052374293742, 1933.2425940452226) "><g  event="remove"><circle r="11"></circle><path transform="scale(.8) translate(-16, -16)" d="M24.778,21.419 19.276,15.917 24.777,10.415 21.949,7.585 16.447,13.087 10.945,7.585 8.117,10.415 13.618,15.917 8.116,21.419 10.946,24.248 16.447,18.746 21.948,24.248z"></path><title>Remove link.</title></g><g  event="link:options"><circle r="11" transform="translate(25)"></circle><path fill="white" transform="scale(.55) translate(29, -16)" d="M31.229,17.736c0.064-0.571,0.104-1.148,0.104-1.736s-0.04-1.166-0.104-1.737l-4.377-1.557c-0.218-0.716-0.504-1.401-0.851-2.05l1.993-4.192c-0.725-0.91-1.549-1.734-2.458-2.459l-4.193,1.994c-0.647-0.347-1.334-0.632-2.049-0.849l-1.558-4.378C17.165,0.708,16.588,0.667,16,0.667s-1.166,0.041-1.737,0.105L12.707,5.15c-0.716,0.217-1.401,0.502-2.05,0.849L6.464,4.005C5.554,4.73,4.73,5.554,4.005,6.464l1.994,4.192c-0.347,0.648-0.632,1.334-0.849,2.05l-4.378,1.557C0.708,14.834,0.667,15.412,0.667,16s0.041,1.165,0.105,1.736l4.378,1.558c0.217,0.715,0.502,1.401,0.849,2.049l-1.994,4.193c0.725,0.909,1.549,1.733,2.459,2.458l4.192-1.993c0.648,0.347,1.334,0.633,2.05,0.851l1.557,4.377c0.571,0.064,1.148,0.104,1.737,0.104c0.588,0,1.165-0.04,1.736-0.104l1.558-4.377c0.715-0.218,1.399-0.504,2.049-0.851l4.193,1.993c0.909-0.725,1.733-1.549,2.458-2.458l-1.993-4.193c0.347-0.647,0.633-1.334,0.851-2.049L31.229,17.736zM16,20.871c-2.69,0-4.872-2.182-4.872-4.871c0-2.69,2.182-4.872,4.872-4.872c2.689,0,4.871,2.182,4.871,4.872C20.871,18.689,18.689,20.871,16,20.871z"></path><title>Link options.</title></g></g></g></g><!--z-index:44--><g   id="j_19" ><path  stroke="#707070" d="M 1313 1971 L 1688 1671" id="v-198" stroke-width="2" stroke-dasharray="30 30" fill="none" style="opacity: 1;"></path><path  fill="black" stroke="black" d="M 0 0 0 0" transform="matrix(0.7808686753084834,-0.624695215222571,0.624695215222571,0.7808686753084834,1312.5,1971)"></path><path  fill="#707070" stroke="#707070" d="M 20 0 L 0 10 L 20 20 z" id="v-200" transform="matrix(-0.7808688416748546,0.6246950072646418,-0.6246950072646418,-0.7808688416748546,1693.7469226690826,1678.8086865862897)" style="opacity: 1;"></path><path  d="M 1313 1971 L 1688 1671" id="v-199" fill="none" style="cursor: auto; pointer-events: visiblepainted;"></path><g ><g id="v-192"  label-idx="0" cursor="move" transform="matrix(1,0,0,1,1500.5,1821)" style="cursor: default; opacity: 1;"><rect joint-selector="rect" id="v-195" fill="#ffffff" rx="3" ry="3" pointer-events="none" width="207.58822631835938" height="60.68527793884277" transform="matrix(1,0,0,1,-104.2,-30.3)"></rect><text joint-selector="text" id="v-194" font-size="24px" xml:space="preserve" y="0.8em" fill="#707070" text-anchor="middle" pointer-events="none" font-family="Open Sans" font-weight="normal" transform="matrix(1,0,0,1,0,-24)"><tspan dy="0" >Protects</tspan><tspan dy="1.2em" x="0" >endpoints by role</tspan></text></g><g id="v-193"  label-idx="1" cursor="move" transform="matrix(1,0,0,1,1490.5,1861.800048828125)" style="cursor: default; opacity: 1;"><rect joint-selector="rect" id="v-197" fill="#ffffff" rx="3" ry="3"  width="0" height="0" transform="matrix(1,0,0,1,0,0)" display="none"></rect><text joint-selector="text" id="v-196" fill="#000000" font-size="14" text-anchor="middle" pointer-events="none"></text></g></g><g  display="none" style="display: none;"></g><g  id="v-202" display="none"><g  id="v-190"><path  end="source" d="M 26 0 L 0 13 L 26 26 z"></path></g><g  id="v-191"><path  end="target" d="M 26 0 L 0 13 L 26 26 z"></path></g></g><g  id="v-201" display="none"><g  id="v-189" transform="translate(1344.2347523777214, 1946.012198097823) "><g  event="remove"><circle r="11"></circle><path transform="scale(.8) translate(-16, -16)" d="M24.778,21.419 19.276,15.917 24.777,10.415 21.949,7.585 16.447,13.087 10.945,7.585 8.117,10.415 13.618,15.917 8.116,21.419 10.946,24.248 16.447,18.746 21.948,24.248z"></path><title>Remove link.</title></g><g  event="link:options"><circle r="11" transform="translate(25)"></circle><path fill="white" transform="scale(.55) translate(29, -16)" d="M31.229,17.736c0.064-0.571,0.104-1.148,0.104-1.736s-0.04-1.166-0.104-1.737l-4.377-1.557c-0.218-0.716-0.504-1.401-0.851-2.05l1.993-4.192c-0.725-0.91-1.549-1.734-2.458-2.459l-4.193,1.994c-0.647-0.347-1.334-0.632-2.049-0.849l-1.558-4.378C17.165,0.708,16.588,0.667,16,0.667s-1.166,0.041-1.737,0.105L12.707,5.15c-0.716,0.217-1.401,0.502-2.05,0.849L6.464,4.005C5.554,4.73,4.73,5.554,4.005,6.464l1.994,4.192c-0.347,0.648-0.632,1.334-0.849,2.05l-4.378,1.557C0.708,14.834,0.667,15.412,0.667,16s0.041,1.165,0.105,1.736l4.378,1.558c0.217,0.715,0.502,1.401,0.849,2.049l-1.994,4.193c0.725,0.909,1.549,1.733,2.459,2.458l4.192-1.993c0.648,0.347,1.334,0.633,2.05,0.851l1.557,4.377c0.571,0.064,1.148,0.104,1.737,0.104c0.588,0,1.165-0.04,1.736-0.104l1.558-4.377c0.715-0.218,1.399-0.504,2.049-0.851l4.193,1.993c0.909-0.725,1.733-1.549,2.458-2.458l-1.993-4.193c0.347-0.647,0.633-1.334,0.851-2.049L31.229,17.736zM16,20.871c-2.69,0-4.872-2.182-4.872-4.871c0-2.69,2.182-4.872,4.872-4.872c2.689,0,4.871,2.182,4.871,4.872C20.871,18.689,18.689,20.871,16,20.871z"></path><title>Link options.</title></g></g></g></g><!--z-index:45--><g   id="j_20" ><path  stroke="#707070" d="M 1213 2271 L 1645 3012 C 1648.3333333333333 3018 1652 3023.6666666666665 1656 3029 L 1763 3171" id="v-216" stroke-width="2" stroke-dasharray="30 30" fill="none" style="opacity: 1;"></path><path  fill="black" stroke="black" d="M 0 0 0 0" transform="matrix(0.5038709988513701,0.8637789164575173,-0.8637789164575173,0.5038709988513701,1212.5,2271)"></path><path  fill="#707070" stroke="#707070" d="M 20 0 L 0 10 L 20 20 z" id="v-218" transform="matrix(-0.6000000826393699,-0.7999999380204659,0.7999999380204659,-0.6000000826393699,1754.5000014461891,3177.0000002065985)" style="opacity: 1;"></path><path  d="M 1213 2271 L 1645 3012 C 1648.3333333333333 3018 1652 3023.6666666666665 1656 3029 L 1763 3171" id="v-217" fill="none" style="cursor: auto; pointer-events: visiblepainted;"></path><g ><g id="v-210"  label-idx="0" cursor="move" transform="matrix(1,0,0,1,1478.877685546875,2727.05419921875)" style="cursor: default; opacity: 1;"><rect joint-selector="rect" id="v-213" fill="#ffffff" rx="3" ry="3" pointer-events="none" width="156.6863250732422" height="118.28527069091797" transform="matrix(1,0,0,1,-76.2,-59.1)"></rect><text joint-selector="text" id="v-212" font-size="24px" xml:space="preserve" y="0.8em" fill="#707070" text-anchor="middle" pointer-events="none" font-family="Open Sans" font-weight="normal" transform="matrix(1,0,0,1,0,-52.8)"><tspan dy="0" >Decorates</tspan><tspan dy="1.2em" x="0" >handlers with</tspan><tspan dy="1.2em" x="0" >role</tspan><tspan dy="1.2em" x="0" >requirements</tspan></text></g><g id="v-211"  label-idx="1" cursor="move" transform="matrix(1,0,0,1,1468.877685546875,2796.654052734375)" style="cursor: default; opacity: 1;"><rect joint-selector="rect" id="v-215" fill="#ffffff" rx="3" ry="3"  width="0" height="0" transform="matrix(1,0,0,1,0,0)" display="none"></rect><text joint-selector="text" id="v-214" fill="#000000" font-size="14" text-anchor="middle" pointer-events="none"></text></g></g><g  display="none" style="display: none;"><g  transform="translate(1650, 3021)" id="v-313"><circle  idx="0" r="10"></circle><path  idx="0" d="M16,5.333c-7.732,0-14,4.701-14,10.5c0,1.982,0.741,3.833,2.016,5.414L2,25.667l5.613-1.441c2.339,1.317,5.237,2.107,8.387,2.107c7.732,0,14-4.701,14-10.5C30,10.034,23.732,5.333,16,5.333z" transform="translate(5, -33)"></path><path  idx="0" transform="scale(.8) translate(9.5, -37)" d="M24.778,21.419 19.276,15.917 24.777,10.415 21.949,7.585 16.447,13.087 10.945,7.585 8.117,10.415 13.618,15.917 8.116,21.419 10.946,24.248 16.447,18.746 21.948,24.248z"><title>Remove vertex.</title></path></g></g><g  id="v-220" display="none"><g  id="v-208"><path  end="source" d="M 26 0 L 0 13 L 26 26 z"></path></g><g  id="v-209"><path  end="target" d="M 26 0 L 0 13 L 26 26 z"></path></g></g><g  id="v-219" display="none"><g  id="v-206" transform="translate(1233.1461417027217, 2305.556229170641) "><g  event="remove"><circle r="11"></circle><path transform="scale(.8) translate(-16, -16)" d="M24.778,21.419 19.276,15.917 24.777,10.415 21.949,7.585 16.447,13.087 10.945,7.585 8.117,10.415 13.618,15.917 8.116,21.419 10.946,24.248 16.447,18.746 21.948,24.248z"></path><title>Remove link.</title></g><g  event="link:options"><circle r="11" transform="translate(25)"></circle><path fill="white" transform="scale(.55) translate(29, -16)" d="M31.229,17.736c0.064-0.571,0.104-1.148,0.104-1.736s-0.04-1.166-0.104-1.737l-4.377-1.557c-0.218-0.716-0.504-1.401-0.851-2.05l1.993-4.192c-0.725-0.91-1.549-1.734-2.458-2.459l-4.193,1.994c-0.647-0.347-1.334-0.632-2.049-0.849l-1.558-4.378C17.165,0.708,16.588,0.667,16,0.667s-1.166,0.041-1.737,0.105L12.707,5.15c-0.716,0.217-1.401,0.502-2.05,0.849L6.464,4.005C5.554,4.73,4.73,5.554,4.005,6.464l1.994,4.192c-0.347,0.648-0.632,1.334-0.849,2.05l-4.378,1.557C0.708,14.834,0.667,15.412,0.667,16s0.041,1.165,0.105,1.736l4.378,1.558c0.217,0.715,0.502,1.401,0.849,2.049l-1.994,4.193c0.725,0.909,1.549,1.733,2.459,2.458l4.192-1.993c0.648,0.347,1.334,0.633,2.05,0.851l1.557,4.377c0.571,0.064,1.148,0.104,1.737,0.104c0.588,0,1.165-0.04,1.736-0.104l1.558-4.377c0.715-0.218,1.399-0.504,2.049-0.851l4.193,1.993c0.909-0.725,1.733-1.549,2.458-2.458l-1.993-4.193c0.347-0.647,0.633-1.334,0.851-2.049L31.229,17.736zM16,20.871c-2.69,0-4.872-2.182-4.872-4.871c0-2.69,2.182-4.872,4.872-4.872c2.689,0,4.871,2.182,4.871,4.872C20.871,18.689,18.689,20.871,16,20.871z"></path><title>Link options.</title></g></g></g></g><!--z-index:46--><g   id="j_21" ><path  stroke="#707070" d="M 1178 2271 L 1647 3612 C 1649 3618 1652 3623.6666666666665 1656 3629 L 1763 3771" id="v-234" stroke-width="2" stroke-dasharray="30 30" fill="none" style="opacity: 1;"></path><path  fill="black" stroke="black" d="M 0 0 0 0" transform="matrix(0.33035043251519486,0.9438583536405363,-0.9438583536405363,0.33035043251519486,1177.5,2271)"></path><path  fill="#707070" stroke="#707070" d="M 20 0 L 0 10 L 20 20 z" id="v-236" transform="matrix(-0.6000000826393699,-0.7999999380204659,0.7999999380204659,-0.6000000826393699,1754.5000014461891,3777.0000002065985)" style="opacity: 1;"></path><path  d="M 1178 2271 L 1647 3612 C 1649 3618 1652 3623.6666666666665 1656 3629 L 1763 3771" id="v-235" fill="none" style="cursor: auto; pointer-events: visiblepainted;"></path><g ><g id="v-228"  label-idx="0" cursor="move" transform="matrix(1,0,0,1,1445.036865234375,3034.53173828125)" style="cursor: default; opacity: 1;"><rect joint-selector="rect" id="v-231" fill="#ffffff" rx="3" ry="3" pointer-events="none" width="167.5901641845703" height="31.885272979736328" transform="matrix(1,0,0,1,-83.2,-15.9)"></rect><text joint-selector="text" id="v-230" font-size="24px" xml:space="preserve" y="0.8em" fill="#707070" text-anchor="middle" pointer-events="none" font-family="Open Sans" font-weight="normal" transform="matrix(1,0,0,1,0,-9.6)"><tspan dy="0" >Handles errors</tspan></text></g><g id="v-229"  label-idx="1" cursor="move" transform="matrix(1,0,0,1,1435.036865234375,3060.931640625)" style="cursor: default; opacity: 1;"><rect joint-selector="rect" id="v-233" fill="#ffffff" rx="3" ry="3"  width="0" height="0" transform="matrix(1,0,0,1,0,0)" display="none"></rect><text joint-selector="text" id="v-232" fill="#000000" font-size="14" text-anchor="middle" pointer-events="none"></text></g></g><g  display="none" style="display: none;"><g  transform="translate(1650, 3621)" id="v-314"><circle  idx="0" r="10"></circle><path  idx="0" d="M16,5.333c-7.732,0-14,4.701-14,10.5c0,1.982,0.741,3.833,2.016,5.414L2,25.667l5.613-1.441c2.339,1.317,5.237,2.107,8.387,2.107c7.732,0,14-4.701,14-10.5C30,10.034,23.732,5.333,16,5.333z" transform="translate(5, -33)"></path><path  idx="0" transform="scale(.8) translate(9.5, -37)" d="M24.778,21.419 19.276,15.917 24.777,10.415 21.949,7.585 16.447,13.087 10.945,7.585 8.117,10.415 13.618,15.917 8.116,21.419 10.946,24.248 16.447,18.746 21.948,24.248z"><title>Remove vertex.</title></path></g></g><g  id="v-238" display="none"><g  id="v-226"><path  end="source" d="M 26 0 L 0 13 L 26 26 z"></path></g><g  id="v-227"><path  end="target" d="M 26 0 L 0 13 L 26 26 z"></path></g></g><g  id="v-237" display="none"><g  id="v-224" transform="translate(1191.2052374293742, 2308.7574059547774) "><g  event="remove"><circle r="11"></circle><path transform="scale(.8) translate(-16, -16)" d="M24.778,21.419 19.276,15.917 24.777,10.415 21.949,7.585 16.447,13.087 10.945,7.585 8.117,10.415 13.618,15.917 8.116,21.419 10.946,24.248 16.447,18.746 21.948,24.248z"></path><title>Remove link.</title></g><g  event="link:options"><circle r="11" transform="translate(25)"></circle><path fill="white" transform="scale(.55) translate(29, -16)" d="M31.229,17.736c0.064-0.571,0.104-1.148,0.104-1.736s-0.04-1.166-0.104-1.737l-4.377-1.557c-0.218-0.716-0.504-1.401-0.851-2.05l1.993-4.192c-0.725-0.91-1.549-1.734-2.458-2.459l-4.193,1.994c-0.647-0.347-1.334-0.632-2.049-0.849l-1.558-4.378C17.165,0.708,16.588,0.667,16,0.667s-1.166,0.041-1.737,0.105L12.707,5.15c-0.716,0.217-1.401,0.502-2.05,0.849L6.464,4.005C5.554,4.73,4.73,5.554,4.005,6.464l1.994,4.192c-0.347,0.648-0.632,1.334-0.849,2.05l-4.378,1.557C0.708,14.834,0.667,15.412,0.667,16s0.041,1.165,0.105,1.736l4.378,1.558c0.217,0.715,0.502,1.401,0.849,2.049l-1.994,4.193c0.725,0.909,1.549,1.733,2.459,2.458l4.192-1.993c0.648,0.347,1.334,0.633,2.05,0.851l1.557,4.377c0.571,0.064,1.148,0.104,1.737,0.104c0.588,0,1.165-0.04,1.736-0.104l1.558-4.377c0.715-0.218,1.399-0.504,2.049-0.851l4.193,1.993c0.909-0.725,1.733-1.549,2.458-2.458l-1.993-4.193c0.347-0.647,0.633-1.334,0.851-2.049L31.229,17.736zM16,20.871c-2.69,0-4.872-2.182-4.872-4.871c0-2.69,2.182-4.872,4.872-4.872c2.689,0,4.871,2.182,4.871,4.872C20.871,18.689,18.689,20.871,16,20.871z"></path><title>Link options.</title></g></g></g></g><!--z-index:47--><g   id="j_22" ><path  stroke="#707070" d="M 1213 1971 L 1645 1230 C 1648.3333333333333 1224 1652 1218.3333333333333 1656 1213 L 1763 1071" id="v-252" stroke-width="2" stroke-dasharray="30 30" fill="none" style="opacity: 1;"></path><path  fill="black" stroke="black" d="M 0 0 0 0" transform="matrix(0.5038710563609288,-0.8637788829102745,0.8637788829102745,0.5038710563609288,1212.5,1971)"></path><path  fill="#707070" stroke="#707070" d="M 20 0 L 0 10 L 20 20 z" id="v-254" transform="matrix(-0.5999999761129288,0.8000000179153028,-0.8000000179153028,-0.5999999761129288,1770.4999999402824,1076.9999995819762)" style="opacity: 1;"></path><path  d="M 1213 1971 L 1645 1230 C 1648.3333333333333 1224 1652 1218.3333333333333 1656 1213 L 1763 1071" id="v-253" fill="none" style="cursor: auto; pointer-events: visiblepainted;"></path><g ><g id="v-246"  label-idx="0" cursor="move" transform="matrix(1,0,0,1,1478.877685546875,1514.94580078125)" style="cursor: default; opacity: 1;"><rect joint-selector="rect" id="v-249" fill="#ffffff" rx="3" ry="3" pointer-events="none" width="131.5535125732422" height="60.68527793884277" transform="matrix(1,0,0,1,-65.1,-30.3)"></rect><text joint-selector="text" id="v-248" font-size="24px" xml:space="preserve" y="0.8em" fill="#707070" text-anchor="middle" pointer-events="none" font-family="Open Sans" font-weight="normal" transform="matrix(1,0,0,1,0,-24)"><tspan dy="0" >Logs access</tspan><tspan dy="1.2em" x="0" >attempts</tspan></text></g><g id="v-247"  label-idx="1" cursor="move" transform="matrix(1,0,0,1,1468.877685546875,1555.745849609375)" style="cursor: default; opacity: 1;"><rect joint-selector="rect" id="v-251" fill="#ffffff" rx="3" ry="3"  width="0" height="0" transform="matrix(1,0,0,1,0,0)" display="none"></rect><text joint-selector="text" id="v-250" fill="#000000" font-size="14" text-anchor="middle" pointer-events="none"></text></g></g><g  display="none" style="display: none;"><g  transform="translate(1650, 1221)" id="v-315"><circle  idx="0" r="10"></circle><path  idx="0" d="M16,5.333c-7.732,0-14,4.701-14,10.5c0,1.982,0.741,3.833,2.016,5.414L2,25.667l5.613-1.441c2.339,1.317,5.237,2.107,8.387,2.107c7.732,0,14-4.701,14-10.5C30,10.034,23.732,5.333,16,5.333z" transform="translate(5, -33)"></path><path  idx="0" transform="scale(.8) translate(9.5, -37)" d="M24.778,21.419 19.276,15.917 24.777,10.415 21.949,7.585 16.447,13.087 10.945,7.585 8.117,10.415 13.618,15.917 8.116,21.419 10.946,24.248 16.447,18.746 21.948,24.248z"><title>Remove vertex.</title></path></g></g><g  id="v-256" display="none"><g  id="v-244"><path  end="source" d="M 26 0 L 0 13 L 26 26 z"></path></g><g  id="v-245"><path  end="target" d="M 26 0 L 0 13 L 26 26 z"></path></g></g><g  id="v-255" display="none"><g  id="v-242" transform="translate(1233.1461417027217, 1936.443770829359) "><g  event="remove"><circle r="11"></circle><path transform="scale(.8) translate(-16, -16)" d="M24.778,21.419 19.276,15.917 24.777,10.415 21.949,7.585 16.447,13.087 10.945,7.585 8.117,10.415 13.618,15.917 8.116,21.419 10.946,24.248 16.447,18.746 21.948,24.248z"></path><title>Remove link.</title></g><g  event="link:options"><circle r="11" transform="translate(25)"></circle><path fill="white" transform="scale(.55) translate(29, -16)" d="M31.229,17.736c0.064-0.571,0.104-1.148,0.104-1.736s-0.04-1.166-0.104-1.737l-4.377-1.557c-0.218-0.716-0.504-1.401-0.851-2.05l1.993-4.192c-0.725-0.91-1.549-1.734-2.458-2.459l-4.193,1.994c-0.647-0.347-1.334-0.632-2.049-0.849l-1.558-4.378C17.165,0.708,16.588,0.667,16,0.667s-1.166,0.041-1.737,0.105L12.707,5.15c-0.716,0.217-1.401,0.502-2.05,0.849L6.464,4.005C5.554,4.73,4.73,5.554,4.005,6.464l1.994,4.192c-0.347,0.648-0.632,1.334-0.849,2.05l-4.378,1.557C0.708,14.834,0.667,15.412,0.667,16s0.041,1.165,0.105,1.736l4.378,1.558c0.217,0.715,0.502,1.401,0.849,2.049l-1.994,4.193c0.725,0.909,1.549,1.733,2.459,2.458l4.192-1.993c0.648,0.347,1.334,0.633,2.05,0.851l1.557,4.377c0.571,0.064,1.148,0.104,1.737,0.104c0.588,0,1.165-0.04,1.736-0.104l1.558-4.377c0.715-0.218,1.399-0.504,2.049-0.851l4.193,1.993c0.909-0.725,1.733-1.549,2.458-2.458l-1.993-4.193c0.347-0.647,0.633-1.334,0.851-2.049L31.229,17.736zM16,20.871c-2.69,0-4.872-2.182-4.872-4.871c0-2.69,2.182-4.872,4.872-4.872c2.689,0,4.871,2.182,4.871,4.872C20.871,18.689,18.689,20.871,16,20.871z"></path><title>Link options.</title></g></g></g></g><!--z-index:48--><g   id="j_23" ><path  stroke="#707070" d="M 1313 2271 L 1688 2571" id="v-269" stroke-width="2" stroke-dasharray="30 30" fill="none" style="opacity: 1;"></path><path  fill="black" stroke="black" d="M 0 0 0 0" transform="matrix(0.7808688000832672,0.624695059254128,-0.624695059254128,0.7808688000832672,1312.5,2271)"></path><path  fill="#707070" stroke="#707070" d="M 20 0 L 0 10 L 20 20 z" id="v-271" transform="matrix(-0.7808688416748548,-0.6246950072646416,0.6246950072646416,-0.7808688416748548,1681.2530225237897,2578.808568176895)" style="opacity: 1;"></path><path  d="M 1313 2271 L 1688 2571" id="v-270" fill="none" style="cursor: auto; pointer-events: visiblepainted;"></path><g ><g id="v-263"  label-idx="0" cursor="move" transform="matrix(1,0,0,1,1500.5,2421)" style="cursor: default; opacity: 1;"><rect joint-selector="rect" id="v-266" fill="#ffffff" rx="3" ry="3" pointer-events="none" width="175.06784057617188" height="31.885272979736328" transform="matrix(1,0,0,1,-83.7,-15.9)"></rect><text joint-selector="text" id="v-265" font-size="24px" xml:space="preserve" y="0.8em" fill="#707070" text-anchor="middle" pointer-events="none" font-family="Open Sans" font-weight="normal" transform="matrix(1,0,0,1,0,-9.6)"><tspan dy="0" >Delegates logic</tspan></text></g><g id="v-264"  label-idx="1" cursor="move" transform="matrix(1,0,0,1,1490.5,2447.39990234375)" style="cursor: default; opacity: 1;"><rect joint-selector="rect" id="v-268" fill="#ffffff" rx="3" ry="3"  width="0" height="0" transform="matrix(1,0,0,1,0,0)" display="none"></rect><text joint-selector="text" id="v-267" fill="#000000" font-size="14" text-anchor="middle" pointer-events="none"></text></g></g><g  display="none" style="display: none;"></g><g  id="v-273" display="none"><g  id="v-261"><path  end="source" d="M 26 0 L 0 13 L 26 26 z"></path></g><g  id="v-262"><path  end="target" d="M 26 0 L 0 13 L 26 26 z"></path></g></g><g  id="v-272" display="none"><g  id="v-260" transform="translate(1344.2347523777214, 2295.987801902177) "><g  event="remove"><circle r="11"></circle><path transform="scale(.8) translate(-16, -16)" d="M24.778,21.419 19.276,15.917 24.777,10.415 21.949,7.585 16.447,13.087 10.945,7.585 8.117,10.415 13.618,15.917 8.116,21.419 10.946,24.248 16.447,18.746 21.948,24.248z"></path><title>Remove link.</title></g><g  event="link:options"><circle r="11" transform="translate(25)"></circle><path fill="white" transform="scale(.55) translate(29, -16)" d="M31.229,17.736c0.064-0.571,0.104-1.148,0.104-1.736s-0.04-1.166-0.104-1.737l-4.377-1.557c-0.218-0.716-0.504-1.401-0.851-2.05l1.993-4.192c-0.725-0.91-1.549-1.734-2.458-2.459l-4.193,1.994c-0.647-0.347-1.334-0.632-2.049-0.849l-1.558-4.378C17.165,0.708,16.588,0.667,16,0.667s-1.166,0.041-1.737,0.105L12.707,5.15c-0.716,0.217-1.401,0.502-2.05,0.849L6.464,4.005C5.554,4.73,4.73,5.554,4.005,6.464l1.994,4.192c-0.347,0.648-0.632,1.334-0.849,2.05l-4.378,1.557C0.708,14.834,0.667,15.412,0.667,16s0.041,1.165,0.105,1.736l4.378,1.558c0.217,0.715,0.502,1.401,0.849,2.049l-1.994,4.193c0.725,0.909,1.549,1.733,2.459,2.458l4.192-1.993c0.648,0.347,1.334,0.633,2.05,0.851l1.557,4.377c0.571,0.064,1.148,0.104,1.737,0.104c0.588,0,1.165-0.04,1.736-0.104l1.558-4.377c0.715-0.218,1.399-0.504,2.049-0.851l4.193,1.993c0.909-0.725,1.733-1.549,2.458-2.458l-1.993-4.193c0.347-0.647,0.633-1.334,0.851-2.049L31.229,17.736zM16,20.871c-2.69,0-4.872-2.182-4.872-4.871c0-2.69,2.182-4.872,4.872-4.872c2.689,0,4.871,2.182,4.871,4.872C20.871,18.689,18.689,20.871,16,20.871z"></path><title>Link options.</title></g></g></g></g><!--z-index:49--><g   id="j_24" ><path  stroke="#707070" d="M 2100 2721 L 2400 2721" id="v-286" stroke-width="2" stroke-dasharray="30 30" fill="none" style="opacity: 1;"></path><path  fill="black" stroke="black" d="M 0 0 0 0" transform="matrix(1,0,0,1,2100,2721)"></path><path  fill="#707070" stroke="#707070" d="M 20 0 L 0 10 L 20 20 z" id="v-288" transform="matrix(-1,1.2246467991473532e-16,-1.2246467991473532e-16,-1,2400,2731)" style="opacity: 1;"></path><path  d="M 2100 2721 L 2400 2721" id="v-287" fill="none" style="cursor: auto; pointer-events: visiblepainted;"></path><g ><g id="v-280"  label-idx="0" cursor="move" transform="matrix(1,0,0,1,2250,2721)" style="cursor: default; opacity: 1;"><rect joint-selector="rect" id="v-283" fill="#ffffff" rx="3" ry="3" pointer-events="none" width="200.93405151367188" height="89.48527526855469" transform="matrix(1,0,0,1,-99.8,-44.7)"></rect><text joint-selector="text" id="v-282" font-size="24px" xml:space="preserve" y="0.8em" fill="#707070" text-anchor="middle" pointer-events="none" font-family="Open Sans" font-weight="normal" transform="matrix(1,0,0,1,0,-38.4)"><tspan dy="0" >Fetches and</tspan><tspan dy="1.2em" x="0" >updates</tspan><tspan dy="1.2em" x="0" >roles/permissions</tspan></text></g><g id="v-281"  label-idx="1" cursor="move" transform="matrix(1,0,0,1,2240,2776.199951171875)" style="cursor: default; opacity: 1;"><rect joint-selector="rect" id="v-285" fill="#ffffff" rx="3" ry="3"  width="0" height="0" transform="matrix(1,0,0,1,0,0)" display="none"></rect><text joint-selector="text" id="v-284" fill="#000000" font-size="14" text-anchor="middle" pointer-events="none"></text></g></g><g  display="none" style="display: none;"></g><g  id="v-290" display="none"><g  id="v-278"><path  end="source" d="M 26 0 L 0 13 L 26 26 z"></path></g><g  id="v-279"><path  end="target" d="M 26 0 L 0 13 L 26 26 z"></path></g></g><g  id="v-289" display="none"><g  id="v-277" transform="translate(2140, 2721.0000000000005) "><g  event="remove"><circle r="11"></circle><path transform="scale(.8) translate(-16, -16)" d="M24.778,21.419 19.276,15.917 24.777,10.415 21.949,7.585 16.447,13.087 10.945,7.585 8.117,10.415 13.618,15.917 8.116,21.419 10.946,24.248 16.447,18.746 21.948,24.248z"></path><title>Remove link.</title></g><g  event="link:options"><circle r="11" transform="translate(25)"></circle><path fill="white" transform="scale(.55) translate(29, -16)" d="M31.229,17.736c0.064-0.571,0.104-1.148,0.104-1.736s-0.04-1.166-0.104-1.737l-4.377-1.557c-0.218-0.716-0.504-1.401-0.851-2.05l1.993-4.192c-0.725-0.91-1.549-1.734-2.458-2.459l-4.193,1.994c-0.647-0.347-1.334-0.632-2.049-0.849l-1.558-4.378C17.165,0.708,16.588,0.667,16,0.667s-1.166,0.041-1.737,0.105L12.707,5.15c-0.716,0.217-1.401,0.502-2.05,0.849L6.464,4.005C5.554,4.73,4.73,5.554,4.005,6.464l1.994,4.192c-0.347,0.648-0.632,1.334-0.849,2.05l-4.378,1.557C0.708,14.834,0.667,15.412,0.667,16s0.041,1.165,0.105,1.736l4.378,1.558c0.217,0.715,0.502,1.401,0.849,2.049l-1.994,4.193c0.725,0.909,1.549,1.733,2.459,2.458l4.192-1.993c0.648,0.347,1.334,0.633,2.05,0.851l1.557,4.377c0.571,0.064,1.148,0.104,1.737,0.104c0.588,0,1.165-0.04,1.736-0.104l1.558-4.377c0.715-0.218,1.399-0.504,2.049-0.851l4.193,1.993c0.909-0.725,1.733-1.549,2.458-2.458l-1.993-4.193c0.347-0.647,0.633-1.334,0.851-2.049L31.229,17.736zM16,20.871c-2.69,0-4.872-2.182-4.872-4.871c0-2.69,2.182-4.872,4.872-4.872c2.689,0,4.871,2.182,4.871,4.872C20.871,18.689,18.689,20.871,16,20.871z"></path><title>Link options.</title></g></g></g></g><!--z-index:50--><g   id="j_25" ><path  stroke="#707070" d="M 2850 2721 L 3150 2721" id="v-303" stroke-width="2" stroke-dasharray="30 30" fill="none" style="opacity: 1;"></path><path  fill="black" stroke="black" d="M 0 0 0 0" transform="matrix(1,0,0,1,2850,2721)"></path><path  fill="#707070" stroke="#707070" d="M 20 0 L 0 10 L 20 20 z" id="v-305" transform="matrix(-1,1.2246467991473532e-16,-1.2246467991473532e-16,-1,3150,2731)" style="opacity: 1;"></path><path  d="M 2850 2721 L 3150 2721" id="v-304" fill="none" style="cursor: auto; pointer-events: visiblepainted;"></path><g ><g id="v-297"  label-idx="0" cursor="move" transform="matrix(1,0,0,1,3000,2721)" style="cursor: default; opacity: 1;"><rect joint-selector="rect" id="v-300" fill="#ffffff" rx="3" ry="3" pointer-events="none" width="178.25228881835938" height="60.68527793884277" transform="matrix(1,0,0,1,-86.8,-30.3)"></rect><text joint-selector="text" id="v-299" font-size="24px" xml:space="preserve" y="0.8em" fill="#707070" text-anchor="middle" pointer-events="none" font-family="Open Sans" font-weight="normal" transform="matrix(1,0,0,1,0,-24)"><tspan dy="0" >Reads/writes to</tspan><tspan dy="1.2em" x="0" >RBAC schema</tspan></text></g><g id="v-298"  label-idx="1" cursor="move" transform="matrix(1,0,0,1,2990,2761.800048828125)" style="cursor: default; opacity: 1;"><rect joint-selector="rect" id="v-302" fill="#ffffff" rx="3" ry="3"  width="0" height="0" transform="matrix(1,0,0,1,0,0)" display="none"></rect><text joint-selector="text" id="v-301" fill="#000000" font-size="14" text-anchor="middle" pointer-events="none"></text></g></g><g  display="none" style="display: none;"></g><g  id="v-307" display="none"><g  id="v-295"><path  end="source" d="M 26 0 L 0 13 L 26 26 z"></path></g><g  id="v-296"><path  end="target" d="M 26 0 L 0 13 L 26 26 z"></path></g></g><g  id="v-306" display="none"><g  id="v-294" transform="translate(2890, 2721.0000000000005) "><g  event="remove"><circle r="11"></circle><path transform="scale(.8) translate(-16, -16)" d="M24.778,21.419 19.276,15.917 24.777,10.415 21.949,7.585 16.447,13.087 10.945,7.585 8.117,10.415 13.618,15.917 8.116,21.419 10.946,24.248 16.447,18.746 21.948,24.248z"></path><title>Remove link.</title></g><g  event="link:options"><circle r="11" transform="translate(25)"></circle><path fill="white" transform="scale(.55) translate(29, -16)" d="M31.229,17.736c0.064-0.571,0.104-1.148,0.104-1.736s-0.04-1.166-0.104-1.737l-4.377-1.557c-0.218-0.716-0.504-1.401-0.851-2.05l1.993-4.192c-0.725-0.91-1.549-1.734-2.458-2.459l-4.193,1.994c-0.647-0.347-1.334-0.632-2.049-0.849l-1.558-4.378C17.165,0.708,16.588,0.667,16,0.667s-1.166,0.041-1.737,0.105L12.707,5.15c-0.716,0.217-1.401,0.502-2.05,0.849L6.464,4.005C5.554,4.73,4.73,5.554,4.005,6.464l1.994,4.192c-0.347,0.648-0.632,1.334-0.849,2.05l-4.378,1.557C0.708,14.834,0.667,15.412,0.667,16s0.041,1.165,0.105,1.736l4.378,1.558c0.217,0.715,0.502,1.401,0.849,2.049l-1.994,4.193c0.725,0.909,1.549,1.733,2.459,2.458l4.192-1.993c0.648,0.347,1.334,0.633,2.05,0.851l1.557,4.377c0.571,0.064,1.148,0.104,1.737,0.104c0.588,0,1.165-0.04,1.736-0.104l1.558-4.377c0.715-0.218,1.399-0.504,2.049-0.851l4.193,1.993c0.909-0.725,1.733-1.549,2.458-2.458l-1.993-4.193c0.347-0.647,0.633-1.334,0.851-2.049L31.229,17.736zM16,20.871c-2.69,0-4.872-2.182-4.872-4.871c0-2.69,2.182-4.872,4.872-4.872c2.689,0,4.871,2.182,4.871,4.872C20.871,18.689,18.689,20.871,16,20.871z"></path><title>Link options.</title></g></g></g></g><!--z-index:51--></g><g ></g><g ></g><g ></g></g></svg>