<svg xmlns="http://www.w3.org/2000/svg" xmlns:xlink="http://www.w3.org/1999/xlink" version="1.1" viewBox="0 0 3100 2950" style="background: #ffffff"><defs><style>@import url(https://fonts.googleapis.com/css?family=Open+Sans:400,700);</style></defs><defs joint-selector="defs"></defs><g joint-selector="layers"  transform="matrix(1,0,0,1,0,0)"><g ></g><g ><!--z-index:0--><!--z-index:1--><!--z-index:2--><!--z-index:3--><!--z-index:4--><!--z-index:5--><!--z-index:6--><!--z-index:7--><!--z-index:8--><!--z-index:9--><!--z-index:10--><!--z-index:11--><!--z-index:12--><!--z-index:13--><!--z-index:14--><!--z-index:15--><!--z-index:16--><!--z-index:17--><!--z-index:18--><!--z-index:19--><!--z-index:20--><g   id="j_53"  transform="translate(20,2913.6)"><g id="v-688"><text  id="v-689" font-size="22px" xml:space="preserve" y="0.8em" font-weight="normal" text-anchor="start" fill="#aaaaaa" pointer-events="none" display="block" font-family="Open Sans"><tspan dy="0"  display="none">Thursday, July 17, 2025 at 9:55 AM West Africa Standard Time</tspan></text></g></g><!--z-index:21--><g   id="j_52"  transform="translate(20,2887.2)"><g id="v-686"><text  id="v-687" font-size="22px" xml:space="preserve" y="0.8em" font-weight="normal" text-anchor="start" fill="#aaaaaa" pointer-events="none" display="block" font-family="Open Sans"><tspan dy="0"  display="none">Shows domain-aligned microservices and their connections to external systems.</tspan></text></g></g><!--z-index:22--><g   id="j_51"  transform="translate(20,2844)"><g id="v-684"><text  id="v-685" font-size="36px" xml:space="preserve" y="0.8em" font-weight="normal" text-anchor="start" fill="#000000" pointer-events="none" display="block" font-family="Open Sans"><tspan dy="0"  display="none">Container Diagram – Core Backend Microservices</tspan></text></g></g><!--z-index:23--><g   id="j_54"  transform="translate(224,751)" style=""><g  id="v-693" style="opacity: 1;"><rect  x="0" y="160" width="400" height="240" rx="70" id="v-695" stroke="#0dbdc2" stroke-width="2" pointer-events="visiblePainted" fill="#0ed2d8" style="fill: rgb(14, 210, 216); stroke: rgb(13, 189, 194);"></rect><circle  cx="200" cy="88.88888888888889" r="88.88888888888889" id="v-694" stroke="#0dbdc2" stroke-width="2" pointer-events="visiblePainted" fill="#0ed2d8" style="fill: rgb(14, 210, 216); stroke: rgb(13, 189, 194);"></circle><line  x1="80" y1="266.6666666666667" x2="80" y2="400" id="v-701" stroke="#0dbdc2" stroke-width="2" style="stroke: rgb(13, 189, 194);"></line><line  x1="320" y1="266.6666666666667" x2="320" y2="400" id="v-702" stroke="#0dbdc2" stroke-width="2" style="stroke: rgb(13, 189, 194);"></line><text  id="v-696" font-size="34" xml:space="preserve" y="0.8em" font-weight="bold" text-anchor="middle" pointer-events="visible" font-family="Open Sans" fill="#ffffff" transform="matrix(1,0,0,1,200,232.5)" style="fill: rgb(255, 255, 255);"><tspan dy="0" >Applicant</tspan></text><text  id="v-697" font-size="17" xml:space="preserve" y="0.8em" text-anchor="middle" font-family="Open Sans" fill="#ffffff" transform="matrix(1,0,0,1,200,273.3)" style="fill: rgb(255, 255, 255);"><tspan dy="0" >[Person]</tspan></text><text  id="v-698" font-size="24" xml:space="preserve" y="0.8em" text-anchor="middle" font-family="Open Sans" fill="#ffffff" transform="matrix(1,0,0,1,200,303.7)" style="fill: rgb(255, 255, 255);"><tspan dy="0" >End user applying for credit</tspan></text><g  id="v-699" font-weight="normal" text-anchor="middle" color="#ffffff" transform="matrix(1,0,0,1,197.5,368)" display="none" style="fill: rgb(255, 255, 255);"><g ></g><g ></g><g ></g><g ></g></g><image  id="v-700"></image></g></g><!--z-index:24--><g   id="j_55"  transform="translate(224,1451)" style=""><g  id="v-706" style="opacity: 1;"><rect  x="0" y="160" width="400" height="240" rx="70" id="v-708" stroke="#0dbdc2" stroke-width="2" pointer-events="visiblePainted" fill="#0ed2d8" style="fill: rgb(14, 210, 216); stroke: rgb(13, 189, 194);"></rect><circle  cx="200" cy="88.88888888888889" r="88.88888888888889" id="v-707" stroke="#0dbdc2" stroke-width="2" pointer-events="visiblePainted" fill="#0ed2d8" style="fill: rgb(14, 210, 216); stroke: rgb(13, 189, 194);"></circle><line  x1="80" y1="266.6666666666667" x2="80" y2="400" id="v-714" stroke="#0dbdc2" stroke-width="2" style="stroke: rgb(13, 189, 194);"></line><line  x1="320" y1="266.6666666666667" x2="320" y2="400" id="v-715" stroke="#0dbdc2" stroke-width="2" style="stroke: rgb(13, 189, 194);"></line><text  id="v-709" font-size="34" xml:space="preserve" y="0.8em" font-weight="bold" text-anchor="middle" pointer-events="visible" font-family="Open Sans" fill="#ffffff" transform="matrix(1,0,0,1,200,232.5)" style="fill: rgb(255, 255, 255);"><tspan dy="0" >Credit Officer</tspan></text><text  id="v-710" font-size="17" xml:space="preserve" y="0.8em" text-anchor="middle" font-family="Open Sans" fill="#ffffff" transform="matrix(1,0,0,1,200,273.3)" style="fill: rgb(255, 255, 255);"><tspan dy="0" >[Person]</tspan></text><text  id="v-711" font-size="24" xml:space="preserve" y="0.8em" text-anchor="middle" font-family="Open Sans" fill="#ffffff" transform="matrix(1,0,0,1,200,303.7)" style="fill: rgb(255, 255, 255);"><tspan dy="0" >Reviews credit applications</tspan></text><g  id="v-712" font-weight="normal" text-anchor="middle" color="#ffffff" transform="matrix(1,0,0,1,197.5,368)" display="none" style="fill: rgb(255, 255, 255);"><g ></g><g ></g><g ></g><g ></g></g><image  id="v-713"></image></g></g><!--z-index:25--><g   id="j_56"  transform="translate(224,2151)" style=""><g  id="v-719" style="opacity: 1;"><rect  x="0" y="160" width="400" height="240" rx="70" id="v-721" stroke="#0dbdc2" stroke-width="2" pointer-events="visiblePainted" fill="#0ed2d8" style="fill: rgb(14, 210, 216); stroke: rgb(13, 189, 194);"></rect><circle  cx="200" cy="88.88888888888889" r="88.88888888888889" id="v-720" stroke="#0dbdc2" stroke-width="2" pointer-events="visiblePainted" fill="#0ed2d8" style="fill: rgb(14, 210, 216); stroke: rgb(13, 189, 194);"></circle><line  x1="80" y1="266.6666666666667" x2="80" y2="400" id="v-727" stroke="#0dbdc2" stroke-width="2" style="stroke: rgb(13, 189, 194);"></line><line  x1="320" y1="266.6666666666667" x2="320" y2="400" id="v-728" stroke="#0dbdc2" stroke-width="2" style="stroke: rgb(13, 189, 194);"></line><text  id="v-722" font-size="34" xml:space="preserve" y="0.8em" font-weight="bold" text-anchor="middle" pointer-events="visible" font-family="Open Sans" fill="#ffffff" transform="matrix(1,0,0,1,200,218.1)" style="fill: rgb(255, 255, 255);"><tspan dy="0" >Admin</tspan></text><text  id="v-723" font-size="17" xml:space="preserve" y="0.8em" text-anchor="middle" font-family="Open Sans" fill="#ffffff" transform="matrix(1,0,0,1,200,258.9)" style="fill: rgb(255, 255, 255);"><tspan dy="0" >[Person]</tspan></text><text  id="v-724" font-size="24" xml:space="preserve" y="0.8em" text-anchor="middle" font-family="Open Sans" fill="#ffffff" transform="matrix(1,0,0,1,200,289.3)" style="fill: rgb(255, 255, 255);"><tspan dy="0" >Manages system configuration</tspan><tspan dy="1.2em" x="0" >and users</tspan></text><g  id="v-725" font-weight="normal" text-anchor="middle" color="#ffffff" transform="matrix(1,0,0,1,197.5,368)" display="none" style="fill: rgb(255, 255, 255);"><g ></g><g ></g><g ></g><g ></g></g><image  id="v-726"></image></g></g><!--z-index:26--><g   id="j_57"  transform="translate(949,1501)" style=""><g  id="v-735" style="opacity: 1;"><rect  id="v-736" rx="10" ry="10" stroke="#057276" stroke-width="7" pointer-events="visiblePainted" fill="#d6f0ff" x="10" y="0" width="150" height="75" style="fill: rgb(214, 240, 255); stroke: rgb(5, 114, 118);"></rect><rect  id="v-737" rx="5" ry="5" stroke="#057276" stroke-width="7" pointer-events="visiblePainted" fill="#d6f0ff" x="0" y="37.5" width="450" height="262.5" style="fill: rgb(214, 240, 255); stroke: rgb(5, 114, 118);"></rect><text  id="v-738" font-size="34" xml:space="preserve" y="0.8em" font-weight="bold" text-anchor="middle" pointer-events="visible" font-family="Open Sans" fill="#000000" transform="matrix(1,0,0,1,225,106.9)" style="fill: rgb(0, 0, 0);"><tspan dy="0" >Web App (Angular SPA)</tspan></text><text  id="v-739" font-size="17" xml:space="preserve" y="0.8em" text-anchor="middle" font-family="Open Sans" fill="#000000" transform="matrix(1,0,0,1,225,147.7)" style="fill: rgb(0, 0, 0);"><tspan dy="0" >[Software System]</tspan></text><text  id="v-740" font-size="24" xml:space="preserve" y="0.8em" text-anchor="middle" font-family="Open Sans" fill="#000000" transform="matrix(1,0,0,1,225,178.1)" style="fill: rgb(0, 0, 0);"><tspan dy="0" >Frontend used by applicants,</tspan><tspan dy="1.2em" x="0" >officers, and admins</tspan></text><g  id="v-741" font-weight="normal" text-anchor="middle" color="#000000" transform="matrix(1,0,0,1,222.5,268)" display="none" style="fill: rgb(0, 0, 0);"><g ></g><g ></g><g ></g><g ></g></g><image  id="v-742"></image></g></g><!--z-index:27--><g   id="j_58"  transform="translate(1699,1501)" style=""><g  id="v-749" style="opacity: 1;"><rect  id="v-750" rx="10" ry="10" stroke="#057276" stroke-width="7" pointer-events="visiblePainted" fill="#d6f0ff" x="10" y="0" width="150" height="75" style="fill: rgb(214, 240, 255); stroke: rgb(5, 114, 118);"></rect><rect  id="v-751" rx="5" ry="5" stroke="#057276" stroke-width="7" pointer-events="visiblePainted" fill="#d6f0ff" x="0" y="37.5" width="450" height="262.5" style="fill: rgb(214, 240, 255); stroke: rgb(5, 114, 118);"></rect><text  id="v-752" font-size="34" xml:space="preserve" y="0.8em" font-weight="bold" text-anchor="middle" pointer-events="visible" font-family="Open Sans" fill="#000000" transform="matrix(1,0,0,1,225,86.5)" style="fill: rgb(0, 0, 0);"><tspan dy="0" >Core Backend</tspan><tspan dy="1.2em" x="0" >(Microservices)</tspan></text><text  id="v-753" font-size="17" xml:space="preserve" y="0.8em" text-anchor="middle" font-family="Open Sans" fill="#000000" transform="matrix(1,0,0,1,225,168.1)" style="fill: rgb(0, 0, 0);"><tspan dy="0" >[Software System]</tspan></text><text  id="v-754" font-size="24" xml:space="preserve" y="0.8em" text-anchor="middle" font-family="Open Sans" fill="#000000" transform="matrix(1,0,0,1,225,198.5)" style="fill: rgb(0, 0, 0);"><tspan dy="0" >Domain-aligned microservices</tspan><tspan dy="1.2em" x="0" >handling business logic</tspan></text><g  id="v-755" font-weight="normal" text-anchor="middle" color="#000000" transform="matrix(1,0,0,1,222.5,268)" display="none" style="fill: rgb(0, 0, 0);"><g ></g><g ></g><g ></g><g ></g></g><image  id="v-756"></image></g></g><!--z-index:28--><g   id="j_59"  transform="translate(199,151)" style=""><g  id="v-763" style="opacity: 1;"><rect  id="v-764" rx="20" ry="20" stroke="#e76f51" stroke-width="6" pointer-events="visiblePainted" fill="#ffe8e0" width="450" height="300" style="fill: rgb(255, 232, 224); stroke: rgb(231, 111, 81);"></rect><text  id="v-765" font-size="34" xml:space="preserve" y="0.8em" font-weight="bold" text-anchor="middle" pointer-events="visible" font-family="Open Sans" fill="#e76f51" transform="matrix(1,0,0,1,225,102.5)" style="fill: rgb(231, 111, 81);"><tspan dy="0" >eID / Identity Provider</tspan></text><text  id="v-766" font-size="17" xml:space="preserve" y="0.8em" text-anchor="middle" font-family="Open Sans" fill="#e76f51" transform="matrix(1,0,0,1,225,143.3)" style="fill: rgb(231, 111, 81);"><tspan dy="0" >[Software System]</tspan></text><text  id="v-767" font-size="24" xml:space="preserve" y="0.8em" text-anchor="middle" font-family="Open Sans" fill="#e76f51" transform="matrix(1,0,0,1,225,173.7)" style="fill: rgb(231, 111, 81);"><tspan dy="0" >Verifies applicant identity</tspan></text><g  id="v-768" color="#e76f51" transform="matrix(1,0,0,1,222.5,268)" display="none" style="fill: rgb(231, 111, 81);"><g ></g><g ></g><g ></g><g ></g></g><image  id="v-769"></image></g></g><!--z-index:29--><g   id="j_60"  transform="translate(2449,601)" style=""><g  id="v-776" style="opacity: 1;"><rect  id="v-777" rx="20" ry="20" stroke="#e76f51" stroke-width="6" pointer-events="visiblePainted" fill="#ffe8e0" width="450" height="300" style="fill: rgb(255, 232, 224); stroke: rgb(231, 111, 81);"></rect><text  id="v-778" font-size="34" xml:space="preserve" y="0.8em" font-weight="bold" text-anchor="middle" pointer-events="visible" font-family="Open Sans" fill="#e76f51" transform="matrix(1,0,0,1,225,102.5)" style="fill: rgb(231, 111, 81);"><tspan dy="0" >External Credit Info API</tspan></text><text  id="v-779" font-size="17" xml:space="preserve" y="0.8em" text-anchor="middle" font-family="Open Sans" fill="#e76f51" transform="matrix(1,0,0,1,225,143.3)" style="fill: rgb(231, 111, 81);"><tspan dy="0" >[Software System]</tspan></text><text  id="v-780" font-size="24" xml:space="preserve" y="0.8em" text-anchor="middle" font-family="Open Sans" fill="#e76f51" transform="matrix(1,0,0,1,225,173.7)" style="fill: rgb(231, 111, 81);"><tspan dy="0" >Provides credit history data</tspan></text><g  id="v-781" color="#e76f51" transform="matrix(1,0,0,1,222.5,268)" display="none" style="fill: rgb(231, 111, 81);"><g ></g><g ></g><g ></g><g ></g></g><image  id="v-782"></image></g></g><!--z-index:30--><g   id="j_61"  transform="translate(2449,1201)" style=""><g  id="v-786" style="opacity: 1;"><rect  id="v-787" rx="20" ry="20" stroke="#e76f51" stroke-width="6" pointer-events="visiblePainted" fill="#ffe8e0" width="450" height="300" style="fill: rgb(255, 232, 224); stroke: rgb(231, 111, 81);"></rect><text  id="v-788" font-size="34" xml:space="preserve" y="0.8em" font-weight="bold" text-anchor="middle" pointer-events="visible" font-family="Open Sans" fill="#e76f51" transform="matrix(1,0,0,1,225,102.5)" style="fill: rgb(231, 111, 81);"><tspan dy="0" >Email Service Provider</tspan></text><text  id="v-789" font-size="17" xml:space="preserve" y="0.8em" text-anchor="middle" font-family="Open Sans" fill="#e76f51" transform="matrix(1,0,0,1,225,143.3)" style="fill: rgb(231, 111, 81);"><tspan dy="0" >[Software System]</tspan></text><text  id="v-790" font-size="24" xml:space="preserve" y="0.8em" text-anchor="middle" font-family="Open Sans" fill="#e76f51" transform="matrix(1,0,0,1,225,173.7)" style="fill: rgb(231, 111, 81);"><tspan dy="0" >Sends system emails</tspan></text><g  id="v-791" color="#e76f51" transform="matrix(1,0,0,1,222.5,268)" display="none" style="fill: rgb(231, 111, 81);"><g ></g><g ></g><g ></g><g ></g></g><image  id="v-792"></image></g></g><!--z-index:31--><g   id="j_62"  transform="translate(2449,1801)" style=""><g  id="v-799" style="opacity: 1;"><rect  id="v-800" rx="20" ry="20" stroke="#e76f51" stroke-width="6" pointer-events="visiblePainted" fill="#ffe8e0" width="450" height="300" style="fill: rgb(255, 232, 224); stroke: rgb(231, 111, 81);"></rect><text  id="v-801" font-size="34" xml:space="preserve" y="0.8em" font-weight="bold" text-anchor="middle" pointer-events="visible" font-family="Open Sans" fill="#e76f51" transform="matrix(1,0,0,1,225,102.5)" style="fill: rgb(231, 111, 81);"><tspan dy="0" >Document Storage (S3)</tspan></text><text  id="v-802" font-size="17" xml:space="preserve" y="0.8em" text-anchor="middle" font-family="Open Sans" fill="#e76f51" transform="matrix(1,0,0,1,225,143.3)" style="fill: rgb(231, 111, 81);"><tspan dy="0" >[Software System]</tspan></text><text  id="v-803" font-size="24" xml:space="preserve" y="0.8em" text-anchor="middle" font-family="Open Sans" fill="#e76f51" transform="matrix(1,0,0,1,225,173.7)" style="fill: rgb(231, 111, 81);"><tspan dy="0" >Stores applicant documents</tspan></text><g  id="v-804" color="#e76f51" transform="matrix(1,0,0,1,222.5,268)" display="none" style="fill: rgb(231, 111, 81);"><g ></g><g ></g><g ></g><g ></g></g><image  id="v-805"></image></g></g><!--z-index:32--><g   id="j_63"  transform="translate(2449,2401)" style=""><g  id="v-812" style="opacity: 1;"><rect  id="v-813" rx="20" ry="20" stroke="#e76f51" stroke-width="6" pointer-events="visiblePainted" fill="#ffe8e0" width="450" height="300" style="fill: rgb(255, 232, 224); stroke: rgb(231, 111, 81);"></rect><text  id="v-814" font-size="34" xml:space="preserve" y="0.8em" font-weight="bold" text-anchor="middle" pointer-events="visible" font-family="Open Sans" fill="#e76f51" transform="matrix(1,0,0,1,225,102.5)" style="fill: rgb(231, 111, 81);"><tspan dy="0" >Monitoring System</tspan></text><text  id="v-815" font-size="17" xml:space="preserve" y="0.8em" text-anchor="middle" font-family="Open Sans" fill="#e76f51" transform="matrix(1,0,0,1,225,143.3)" style="fill: rgb(231, 111, 81);"><tspan dy="0" >[Software System]</tspan></text><text  id="v-816" font-size="24" xml:space="preserve" y="0.8em" text-anchor="middle" font-family="Open Sans" fill="#e76f51" transform="matrix(1,0,0,1,225,173.7)" style="fill: rgb(231, 111, 81);"><tspan dy="0" >Aggregates logs and metrics</tspan></text><g  id="v-817" color="#e76f51" transform="matrix(1,0,0,1,222.5,268)" display="none" style="fill: rgb(231, 111, 81);"><g ></g><g ></g><g ></g><g ></g></g><image  id="v-818"></image></g></g><!--z-index:33--><g   id="j_64" ><path  stroke="#707070" d="M 624 1138 L 1013 1501" id="v-828" stroke-width="2" stroke-dasharray="30 30" fill="none" style="opacity: 1;"></path><path  fill="black" stroke="black" d="M 0 0 0 0" transform="matrix(0.7310621232427924,0.6823109056432707,-0.6823109056432707,0.7310621232427924,624,1137.6700439453125)"></path><path  fill="#707070" stroke="#707070" d="M 20 0 L 0 10 L 20 20 z" id="v-830" transform="matrix(-0.7310621232427924,-0.6823109056432706,0.6823109056432706,-0.7310621232427924,1006.4668822931827,1508.310610171673)" style="opacity: 1;"></path><path  d="M 624 1138 L 1013 1501" id="v-829" fill="none" style="cursor: auto; pointer-events: visiblepainted;"></path><g ><g id="v-822"  label-idx="0" cursor="move" transform="matrix(1,0,0,1,818.5,1319.5)" style="cursor: default; opacity: 1;"><rect joint-selector="rect" id="v-825" fill="#ffffff" rx="3" ry="3" pointer-events="none" width="54.44219970703125" height="32.18615531921387" transform="matrix(1,0,0,1,-26.9,-16.1)"></rect><text joint-selector="text" id="v-824" font-size="24px" xml:space="preserve" y="0.8em" fill="#707070" text-anchor="middle" pointer-events="none" font-family="Open Sans" font-weight="normal" transform="matrix(1,0,0,1,0,-11.2)"><tspan dy="0" >Uses</tspan></text></g><g id="v-823"  label-idx="1" cursor="move" transform="matrix(1,0,0,1,808.5,1345.9000244140625)" style="cursor: default; opacity: 1;"><rect joint-selector="rect" id="v-827" fill="#ffffff" rx="3" ry="3"  width="0" height="0" transform="matrix(1,0,0,1,0,0)" display="none"></rect><text joint-selector="text" id="v-826" fill="#000000" font-size="14" text-anchor="middle" pointer-events="none"></text></g></g><g  display="none" style="display: none;"></g><g  id="v-832" display="none"><g  id="v-820"><path  end="source" d="M 26 0 L 0 13 L 26 26 z"></path></g><g  id="v-821"><path  end="target" d="M 26 0 L 0 13 L 26 26 z"></path></g></g><g  id="v-831" display="none"><g  id="v-819" transform="translate(653.2447106280937, 1165.2900513059074) "><g  event="remove"><circle r="11"></circle><path transform="scale(.8) translate(-16, -16)" d="M24.778,21.419 19.276,15.917 24.777,10.415 21.949,7.585 16.447,13.087 10.945,7.585 8.117,10.415 13.618,15.917 8.116,21.419 10.946,24.248 16.447,18.746 21.948,24.248z"></path><title>Remove link.</title></g><g  event="link:options"><circle r="11" transform="translate(25)"></circle><path fill="white" transform="scale(.55) translate(29, -16)" d="M31.229,17.736c0.064-0.571,0.104-1.148,0.104-1.736s-0.04-1.166-0.104-1.737l-4.377-1.557c-0.218-0.716-0.504-1.401-0.851-2.05l1.993-4.192c-0.725-0.91-1.549-1.734-2.458-2.459l-4.193,1.994c-0.647-0.347-1.334-0.632-2.049-0.849l-1.558-4.378C17.165,0.708,16.588,0.667,16,0.667s-1.166,0.041-1.737,0.105L12.707,5.15c-0.716,0.217-1.401,0.502-2.05,0.849L6.464,4.005C5.554,4.73,4.73,5.554,4.005,6.464l1.994,4.192c-0.347,0.648-0.632,1.334-0.849,2.05l-4.378,1.557C0.708,14.834,0.667,15.412,0.667,16s0.041,1.165,0.105,1.736l4.378,1.558c0.217,0.715,0.502,1.401,0.849,2.049l-1.994,4.193c0.725,0.909,1.549,1.733,2.459,2.458l4.192-1.993c0.648,0.347,1.334,0.633,2.05,0.851l1.557,4.377c0.571,0.064,1.148,0.104,1.737,0.104c0.588,0,1.165-0.04,1.736-0.104l1.558-4.377c0.715-0.218,1.399-0.504,2.049-0.851l4.193,1.993c0.909-0.725,1.733-1.549,2.458-2.458l-1.993-4.193c0.347-0.647,0.633-1.334,0.851-2.049L31.229,17.736zM16,20.871c-2.69,0-4.872-2.182-4.872-4.871c0-2.69,2.182-4.872,4.872-4.872c2.689,0,4.871,2.182,4.871,4.872C20.871,18.689,18.689,20.871,16,20.871z"></path><title>Link options.</title></g></g></g></g><!--z-index:34--><g   id="j_65" ><path  stroke="#707070" d="M 624 1651 L 949 1651" id="v-842" stroke-width="2" stroke-dasharray="30 30" fill="none" style="opacity: 1;"></path><path  fill="black" stroke="black" d="M 0 0 0 0" transform="matrix(1,0,0,1,624,1651)"></path><path  fill="#707070" stroke="#707070" d="M 20 0 L 0 10 L 20 20 z" id="v-844" transform="matrix(-1,1.2246467991473532e-16,-1.2246467991473532e-16,-1,949,1661)" style="opacity: 1;"></path><path  d="M 624 1651 L 949 1651" id="v-843" fill="none" style="cursor: auto; pointer-events: visiblepainted;"></path><g ><g id="v-836"  label-idx="0" cursor="move" transform="matrix(1,0,0,1,786.5,1651)" style="cursor: default; opacity: 1;"><rect joint-selector="rect" id="v-839" fill="#ffffff" rx="3" ry="3" pointer-events="none" width="54.44219970703125" height="32.18615531921387" transform="matrix(1,0,0,1,-26.9,-16.1)"></rect><text joint-selector="text" id="v-838" font-size="24px" xml:space="preserve" y="0.8em" fill="#707070" text-anchor="middle" pointer-events="none" font-family="Open Sans" font-weight="normal" transform="matrix(1,0,0,1,0,-11.2)"><tspan dy="0" >Uses</tspan></text></g><g id="v-837"  label-idx="1" cursor="move" transform="matrix(1,0,0,1,776.5,1677.4000244140625)" style="cursor: default; opacity: 1;"><rect joint-selector="rect" id="v-841" fill="#ffffff" rx="3" ry="3"  width="0" height="0" transform="matrix(1,0,0,1,0,0)" display="none"></rect><text joint-selector="text" id="v-840" fill="#000000" font-size="14" text-anchor="middle" pointer-events="none"></text></g></g><g  display="none" style="display: none;"></g><g  id="v-846" display="none"><g  id="v-834"><path  end="source" d="M 26 0 L 0 13 L 26 26 z"></path></g><g  id="v-835"><path  end="target" d="M 26 0 L 0 13 L 26 26 z"></path></g></g><g  id="v-845" display="none"><g  id="v-833" transform="translate(664, 1651) "><g  event="remove"><circle r="11"></circle><path transform="scale(.8) translate(-16, -16)" d="M24.778,21.419 19.276,15.917 24.777,10.415 21.949,7.585 16.447,13.087 10.945,7.585 8.117,10.415 13.618,15.917 8.116,21.419 10.946,24.248 16.447,18.746 21.948,24.248z"></path><title>Remove link.</title></g><g  event="link:options"><circle r="11" transform="translate(25)"></circle><path fill="white" transform="scale(.55) translate(29, -16)" d="M31.229,17.736c0.064-0.571,0.104-1.148,0.104-1.736s-0.04-1.166-0.104-1.737l-4.377-1.557c-0.218-0.716-0.504-1.401-0.851-2.05l1.993-4.192c-0.725-0.91-1.549-1.734-2.458-2.459l-4.193,1.994c-0.647-0.347-1.334-0.632-2.049-0.849l-1.558-4.378C17.165,0.708,16.588,0.667,16,0.667s-1.166,0.041-1.737,0.105L12.707,5.15c-0.716,0.217-1.401,0.502-2.05,0.849L6.464,4.005C5.554,4.73,4.73,5.554,4.005,6.464l1.994,4.192c-0.347,0.648-0.632,1.334-0.849,2.05l-4.378,1.557C0.708,14.834,0.667,15.412,0.667,16s0.041,1.165,0.105,1.736l4.378,1.558c0.217,0.715,0.502,1.401,0.849,2.049l-1.994,4.193c0.725,0.909,1.549,1.733,2.459,2.458l4.192-1.993c0.648,0.347,1.334,0.633,2.05,0.851l1.557,4.377c0.571,0.064,1.148,0.104,1.737,0.104c0.588,0,1.165-0.04,1.736-0.104l1.558-4.377c0.715-0.218,1.399-0.504,2.049-0.851l4.193,1.993c0.909-0.725,1.733-1.549,2.458-2.458l-1.993-4.193c0.347-0.647,0.633-1.334,0.851-2.049L31.229,17.736zM16,20.871c-2.69,0-4.872-2.182-4.872-4.871c0-2.69,2.182-4.872,4.872-4.872c2.689,0,4.871,2.182,4.871,4.872C20.871,18.689,18.689,20.871,16,20.871z"></path><title>Link options.</title></g></g></g></g><!--z-index:35--><g   id="j_66" ><path  stroke="#707070" d="M 624 2164 L 1013 1801" id="v-856" stroke-width="2" stroke-dasharray="30 30" fill="none" style="opacity: 1;"></path><path  fill="black" stroke="black" d="M 0 0 0 0" transform="matrix(0.7310623049531519,-0.6823107109496265,0.6823107109496265,0.7310623049531519,624,2164.330078125)"></path><path  fill="#707070" stroke="#707070" d="M 20 0 L 0 10 L 20 20 z" id="v-858" transform="matrix(-0.7310621232427923,0.6823109056432708,-0.6823109056432708,-0.7310621232427923,1020.1131004060481,1808.3106322931826)" style="opacity: 1;"></path><path  d="M 624 2164 L 1013 1801" id="v-857" fill="none" style="cursor: auto; pointer-events: visiblepainted;"></path><g ><g id="v-850"  label-idx="0" cursor="move" transform="matrix(1,0,0,1,818.5,1982.5)" style="cursor: default; opacity: 1;"><rect joint-selector="rect" id="v-853" fill="#ffffff" rx="3" ry="3" pointer-events="none" width="54.44219970703125" height="32.18615531921387" transform="matrix(1,0,0,1,-26.9,-16.1)"></rect><text joint-selector="text" id="v-852" font-size="24px" xml:space="preserve" y="0.8em" fill="#707070" text-anchor="middle" pointer-events="none" font-family="Open Sans" font-weight="normal" transform="matrix(1,0,0,1,0,-11.2)"><tspan dy="0" >Uses</tspan></text></g><g id="v-851"  label-idx="1" cursor="move" transform="matrix(1,0,0,1,808.5,2008.9000244140625)" style="cursor: default; opacity: 1;"><rect joint-selector="rect" id="v-855" fill="#ffffff" rx="3" ry="3"  width="0" height="0" transform="matrix(1,0,0,1,0,0)" display="none"></rect><text joint-selector="text" id="v-854" fill="#000000" font-size="14" text-anchor="middle" pointer-events="none"></text></g></g><g  display="none" style="display: none;"></g><g  id="v-860" display="none"><g  id="v-848"><path  end="source" d="M 26 0 L 0 13 L 26 26 z"></path></g><g  id="v-849"><path  end="target" d="M 26 0 L 0 13 L 26 26 z"></path></g></g><g  id="v-859" display="none"><g  id="v-847" transform="translate(653.2447106280937, 2136.7099486940924) "><g  event="remove"><circle r="11"></circle><path transform="scale(.8) translate(-16, -16)" d="M24.778,21.419 19.276,15.917 24.777,10.415 21.949,7.585 16.447,13.087 10.945,7.585 8.117,10.415 13.618,15.917 8.116,21.419 10.946,24.248 16.447,18.746 21.948,24.248z"></path><title>Remove link.</title></g><g  event="link:options"><circle r="11" transform="translate(25)"></circle><path fill="white" transform="scale(.55) translate(29, -16)" d="M31.229,17.736c0.064-0.571,0.104-1.148,0.104-1.736s-0.04-1.166-0.104-1.737l-4.377-1.557c-0.218-0.716-0.504-1.401-0.851-2.05l1.993-4.192c-0.725-0.91-1.549-1.734-2.458-2.459l-4.193,1.994c-0.647-0.347-1.334-0.632-2.049-0.849l-1.558-4.378C17.165,0.708,16.588,0.667,16,0.667s-1.166,0.041-1.737,0.105L12.707,5.15c-0.716,0.217-1.401,0.502-2.05,0.849L6.464,4.005C5.554,4.73,4.73,5.554,4.005,6.464l1.994,4.192c-0.347,0.648-0.632,1.334-0.849,2.05l-4.378,1.557C0.708,14.834,0.667,15.412,0.667,16s0.041,1.165,0.105,1.736l4.378,1.558c0.217,0.715,0.502,1.401,0.849,2.049l-1.994,4.193c0.725,0.909,1.549,1.733,2.459,2.458l4.192-1.993c0.648,0.347,1.334,0.633,2.05,0.851l1.557,4.377c0.571,0.064,1.148,0.104,1.737,0.104c0.588,0,1.165-0.04,1.736-0.104l1.558-4.377c0.715-0.218,1.399-0.504,2.049-0.851l4.193,1.993c0.909-0.725,1.733-1.549,2.458-2.458l-1.993-4.193c0.347-0.647,0.633-1.334,0.851-2.049L31.229,17.736zM16,20.871c-2.69,0-4.872-2.182-4.872-4.871c0-2.69,2.182-4.872,4.872-4.872c2.689,0,4.871,2.182,4.871,4.872C20.871,18.689,18.689,20.871,16,20.871z"></path><title>Link options.</title></g></g></g></g><!--z-index:36--><g   id="j_67" ><path  stroke="#707070" d="M 1399 1651 L 1699 1651" id="v-873" stroke-width="2" stroke-dasharray="30 30" fill="none" style="opacity: 1;"></path><path  fill="black" stroke="black" d="M 0 0 0 0" transform="matrix(1,0,0,1,1399,1651)"></path><path  fill="#707070" stroke="#707070" d="M 20 0 L 0 10 L 20 20 z" id="v-875" transform="matrix(-1,1.2246467991473532e-16,-1.2246467991473532e-16,-1,1699,1661)" style="opacity: 1;"></path><path  d="M 1399 1651 L 1699 1651" id="v-874" fill="none" style="cursor: auto; pointer-events: visiblepainted;"></path><g ><g id="v-867"  label-idx="0" cursor="move" transform="matrix(1,0,0,1,1549,1651)" style="cursor: default; opacity: 1;"><rect joint-selector="rect" id="v-870" fill="#ffffff" rx="3" ry="3" pointer-events="none" width="154.19271850585938" height="32.18615531921387" transform="matrix(1,0,0,1,-76.4,-16.1)"></rect><text joint-selector="text" id="v-869" font-size="24px" xml:space="preserve" y="0.8em" fill="#707070" text-anchor="middle" pointer-events="none" font-family="Open Sans" font-weight="normal" transform="matrix(1,0,0,1,0,-11.2)"><tspan dy="0" >Uses for login</tspan></text></g><g id="v-868"  label-idx="1" cursor="move" transform="matrix(1,0,0,1,1539,1677.4000244140625)" style="cursor: default; opacity: 1;"><rect joint-selector="rect" id="v-872" fill="#ffffff" rx="3" ry="3"  width="0" height="0" transform="matrix(1,0,0,1,0,0)" display="none"></rect><text joint-selector="text" id="v-871" fill="#000000" font-size="14" text-anchor="middle" pointer-events="none"></text></g></g><g  display="none" style="display: none;"></g><g  id="v-877" display="none"><g  id="v-865"><path  end="source" d="M 26 0 L 0 13 L 26 26 z"></path></g><g  id="v-866"><path  end="target" d="M 26 0 L 0 13 L 26 26 z"></path></g></g><g  id="v-876" display="none"><g  id="v-864" transform="translate(1439, 1651) "><g  event="remove"><circle r="11"></circle><path transform="scale(.8) translate(-16, -16)" d="M24.778,21.419 19.276,15.917 24.777,10.415 21.949,7.585 16.447,13.087 10.945,7.585 8.117,10.415 13.618,15.917 8.116,21.419 10.946,24.248 16.447,18.746 21.948,24.248z"></path><title>Remove link.</title></g><g  event="link:options"><circle r="11" transform="translate(25)"></circle><path fill="white" transform="scale(.55) translate(29, -16)" d="M31.229,17.736c0.064-0.571,0.104-1.148,0.104-1.736s-0.04-1.166-0.104-1.737l-4.377-1.557c-0.218-0.716-0.504-1.401-0.851-2.05l1.993-4.192c-0.725-0.91-1.549-1.734-2.458-2.459l-4.193,1.994c-0.647-0.347-1.334-0.632-2.049-0.849l-1.558-4.378C17.165,0.708,16.588,0.667,16,0.667s-1.166,0.041-1.737,0.105L12.707,5.15c-0.716,0.217-1.401,0.502-2.05,0.849L6.464,4.005C5.554,4.73,4.73,5.554,4.005,6.464l1.994,4.192c-0.347,0.648-0.632,1.334-0.849,2.05l-4.378,1.557C0.708,14.834,0.667,15.412,0.667,16s0.041,1.165,0.105,1.736l4.378,1.558c0.217,0.715,0.502,1.401,0.849,2.049l-1.994,4.193c0.725,0.909,1.549,1.733,2.459,2.458l4.192-1.993c0.648,0.347,1.334,0.633,2.05,0.851l1.557,4.377c0.571,0.064,1.148,0.104,1.737,0.104c0.588,0,1.165-0.04,1.736-0.104l1.558-4.377c0.715-0.218,1.399-0.504,2.049-0.851l4.193,1.993c0.909-0.725,1.733-1.549,2.458-2.458l-1.993-4.193c0.347-0.647,0.633-1.334,0.851-2.049L31.229,17.736zM16,20.871c-2.69,0-4.872-2.182-4.872-4.871c0-2.69,2.182-4.872,4.872-4.872c2.689,0,4.871,2.182,4.871,4.872C20.871,18.689,18.689,20.871,16,20.871z"></path><title>Link options.</title></g></g></g></g><!--z-index:37--><g   id="j_68" ><path  stroke="#707070" d="M 2149 1741 L 2449 1861" id="v-890" stroke-width="2" stroke-dasharray="30 30" fill="none" style="opacity: 1;"></path><path  fill="black" stroke="black" d="M 0 0 0 0" transform="matrix(0.9284766955435519,0.371390664708372,-0.371390664708372,0.9284766955435519,2149,1741)"></path><path  fill="#707070" stroke="#707070" d="M 20 0 L 0 10 L 20 20 z" id="v-892" transform="matrix(-0.928476707906966,-0.3713906337998342,0.3713906337998342,-0.928476707906966,2445.286192772321,1870.284806229568)" style="opacity: 1;"></path><path  d="M 2149 1741 L 2449 1861" id="v-891" fill="none" style="cursor: auto; pointer-events: visiblepainted;"></path><g ><g id="v-884"  label-idx="0" cursor="move" transform="matrix(1,0,0,1,2299,1801)" style="cursor: default; opacity: 1;"><rect joint-selector="rect" id="v-887" fill="#ffffff" rx="3" ry="3" pointer-events="none" width="154.00547790527344" height="60.98615837097168" transform="matrix(1,0,0,1,-76.3,-30.5)"></rect><text joint-selector="text" id="v-886" font-size="24px" xml:space="preserve" y="0.8em" fill="#707070" text-anchor="middle" pointer-events="none" font-family="Open Sans" font-weight="normal" transform="matrix(1,0,0,1,0,-25.6)"><tspan dy="0" >Stores</tspan><tspan dy="1.2em" x="0" >documents in</tspan></text></g><g id="v-885"  label-idx="1" cursor="move" transform="matrix(1,0,0,1,2289,1841.800048828125)" style="cursor: default; opacity: 1;"><rect joint-selector="rect" id="v-889" fill="#ffffff" rx="3" ry="3"  width="0" height="0" transform="matrix(1,0,0,1,0,0)" display="none"></rect><text joint-selector="text" id="v-888" fill="#000000" font-size="14" text-anchor="middle" pointer-events="none"></text></g></g><g  display="none" style="display: none;"></g><g  id="v-894" display="none"><g  id="v-882"><path  end="source" d="M 26 0 L 0 13 L 26 26 z"></path></g><g  id="v-883"><path  end="target" d="M 26 0 L 0 13 L 26 26 z"></path></g></g><g  id="v-893" display="none"><g  id="v-881" transform="translate(2186.1390676354104, 1755.8556270541642) "><g  event="remove"><circle r="11"></circle><path transform="scale(.8) translate(-16, -16)" d="M24.778,21.419 19.276,15.917 24.777,10.415 21.949,7.585 16.447,13.087 10.945,7.585 8.117,10.415 13.618,15.917 8.116,21.419 10.946,24.248 16.447,18.746 21.948,24.248z"></path><title>Remove link.</title></g><g  event="link:options"><circle r="11" transform="translate(25)"></circle><path fill="white" transform="scale(.55) translate(29, -16)" d="M31.229,17.736c0.064-0.571,0.104-1.148,0.104-1.736s-0.04-1.166-0.104-1.737l-4.377-1.557c-0.218-0.716-0.504-1.401-0.851-2.05l1.993-4.192c-0.725-0.91-1.549-1.734-2.458-2.459l-4.193,1.994c-0.647-0.347-1.334-0.632-2.049-0.849l-1.558-4.378C17.165,0.708,16.588,0.667,16,0.667s-1.166,0.041-1.737,0.105L12.707,5.15c-0.716,0.217-1.401,0.502-2.05,0.849L6.464,4.005C5.554,4.73,4.73,5.554,4.005,6.464l1.994,4.192c-0.347,0.648-0.632,1.334-0.849,2.05l-4.378,1.557C0.708,14.834,0.667,15.412,0.667,16s0.041,1.165,0.105,1.736l4.378,1.558c0.217,0.715,0.502,1.401,0.849,2.049l-1.994,4.193c0.725,0.909,1.549,1.733,2.459,2.458l4.192-1.993c0.648,0.347,1.334,0.633,2.05,0.851l1.557,4.377c0.571,0.064,1.148,0.104,1.737,0.104c0.588,0,1.165-0.04,1.736-0.104l1.558-4.377c0.715-0.218,1.399-0.504,2.049-0.851l4.193,1.993c0.909-0.725,1.733-1.549,2.458-2.458l-1.993-4.193c0.347-0.647,0.633-1.334,0.851-2.049L31.229,17.736zM16,20.871c-2.69,0-4.872-2.182-4.872-4.871c0-2.69,2.182-4.872,4.872-4.872c2.689,0,4.871,2.182,4.871,4.872C20.871,18.689,18.689,20.871,16,20.871z"></path><title>Link options.</title></g></g></g></g><!--z-index:38--><g   id="j_69" ><path  stroke="#707070" d="M 2049 1501 L 2549 901" id="v-907" stroke-width="2" stroke-dasharray="30 30" fill="none" style="opacity: 1;"></path><path  fill="black" stroke="black" d="M 0 0 0 0" transform="matrix(0.6401844186703122,-0.7682212637591819,0.7682212637591819,0.6401844186703122,2049,1501)"></path><path  fill="#707070" stroke="#707070" d="M 20 0 L 0 10 L 20 20 z" id="v-909" transform="matrix(-0.6401844186703123,0.7682212637591818,-0.7682212637591818,-0.6401844186703123,2556.6822013555447,907.4018214905176)" style="opacity: 1;"></path><path  d="M 2049 1501 L 2549 901" id="v-908" fill="none" style="cursor: auto; pointer-events: visiblepainted;"></path><g ><g id="v-901"  label-idx="0" cursor="move" transform="matrix(1,0,0,1,2299,1201)" style="cursor: default; opacity: 1;"><rect joint-selector="rect" id="v-904" fill="#ffffff" rx="3" ry="3" pointer-events="none" width="185.603271484375" height="60.98615837097168" transform="matrix(1,0,0,1,-91.8,-30.5)"></rect><text joint-selector="text" id="v-903" font-size="24px" xml:space="preserve" y="0.8em" fill="#707070" text-anchor="middle" pointer-events="none" font-family="Open Sans" font-weight="normal" transform="matrix(1,0,0,1,0,-25.6)"><tspan dy="0" >Fetches external</tspan><tspan dy="1.2em" x="0" >credit info</tspan></text></g><g id="v-902"  label-idx="1" cursor="move" transform="matrix(1,0,0,1,2289,1241.800048828125)" style="cursor: default; opacity: 1;"><rect joint-selector="rect" id="v-906" fill="#ffffff" rx="3" ry="3"  width="0" height="0" transform="matrix(1,0,0,1,0,0)" display="none"></rect><text joint-selector="text" id="v-905" fill="#000000" font-size="14" text-anchor="middle" pointer-events="none"></text></g></g><g  display="none" style="display: none;"></g><g  id="v-911" display="none"><g  id="v-899"><path  end="source" d="M 26 0 L 0 13 L 26 26 z"></path></g><g  id="v-900"><path  end="target" d="M 26 0 L 0 13 L 26 26 z"></path></g></g><g  id="v-910" display="none"><g  id="v-898" transform="translate(2074.607375986579, 1470.2711488161049) "><g  event="remove"><circle r="11"></circle><path transform="scale(.8) translate(-16, -16)" d="M24.778,21.419 19.276,15.917 24.777,10.415 21.949,7.585 16.447,13.087 10.945,7.585 8.117,10.415 13.618,15.917 8.116,21.419 10.946,24.248 16.447,18.746 21.948,24.248z"></path><title>Remove link.</title></g><g  event="link:options"><circle r="11" transform="translate(25)"></circle><path fill="white" transform="scale(.55) translate(29, -16)" d="M31.229,17.736c0.064-0.571,0.104-1.148,0.104-1.736s-0.04-1.166-0.104-1.737l-4.377-1.557c-0.218-0.716-0.504-1.401-0.851-2.05l1.993-4.192c-0.725-0.91-1.549-1.734-2.458-2.459l-4.193,1.994c-0.647-0.347-1.334-0.632-2.049-0.849l-1.558-4.378C17.165,0.708,16.588,0.667,16,0.667s-1.166,0.041-1.737,0.105L12.707,5.15c-0.716,0.217-1.401,0.502-2.05,0.849L6.464,4.005C5.554,4.73,4.73,5.554,4.005,6.464l1.994,4.192c-0.347,0.648-0.632,1.334-0.849,2.05l-4.378,1.557C0.708,14.834,0.667,15.412,0.667,16s0.041,1.165,0.105,1.736l4.378,1.558c0.217,0.715,0.502,1.401,0.849,2.049l-1.994,4.193c0.725,0.909,1.549,1.733,2.459,2.458l4.192-1.993c0.648,0.347,1.334,0.633,2.05,0.851l1.557,4.377c0.571,0.064,1.148,0.104,1.737,0.104c0.588,0,1.165-0.04,1.736-0.104l1.558-4.377c0.715-0.218,1.399-0.504,2.049-0.851l4.193,1.993c0.909-0.725,1.733-1.549,2.458-2.458l-1.993-4.193c0.347-0.647,0.633-1.334,0.851-2.049L31.229,17.736zM16,20.871c-2.69,0-4.872-2.182-4.872-4.871c0-2.69,2.182-4.872,4.872-4.872c2.689,0,4.871,2.182,4.871,4.872C20.871,18.689,18.689,20.871,16,20.871z"></path><title>Link options.</title></g></g></g></g><!--z-index:39--><g   id="j_70" ><path  stroke="#707070" d="M 2149 1561 L 2449 1441" id="v-924" stroke-width="2" stroke-dasharray="30 30" fill="none" style="opacity: 1;"></path><path  fill="black" stroke="black" d="M 0 0 0 0" transform="matrix(0.9284766089996245,-0.3713908810681253,0.3713908810681253,0.9284766089996245,2149,1561)"></path><path  fill="#707070" stroke="#707070" d="M 20 0 L 0 10 L 20 20 z" id="v-926" transform="matrix(-0.928476707906966,0.37139063379983406,-0.37139063379983406,-0.928476707906966,2452.714005448318,1450.2847279285713)" style="opacity: 1;"></path><path  d="M 2149 1561 L 2449 1441" id="v-925" fill="none" style="cursor: auto; pointer-events: visiblepainted;"></path><g ><g id="v-918"  label-idx="0" cursor="move" transform="matrix(1,0,0,1,2299,1501)" style="cursor: default; opacity: 1;"><rect joint-selector="rect" id="v-921" fill="#ffffff" rx="3" ry="3" pointer-events="none" width="186.5194549560547" height="32.18615531921387" transform="matrix(1,0,0,1,-91.9,-16.1)"></rect><text joint-selector="text" id="v-920" font-size="24px" xml:space="preserve" y="0.8em" fill="#707070" text-anchor="middle" pointer-events="none" font-family="Open Sans" font-weight="normal" transform="matrix(1,0,0,1,0,-11.2)"><tspan dy="0" >Sends emails via</tspan></text></g><g id="v-919"  label-idx="1" cursor="move" transform="matrix(1,0,0,1,2289,1527.4000244140625)" style="cursor: default; opacity: 1;"><rect joint-selector="rect" id="v-923" fill="#ffffff" rx="3" ry="3"  width="0" height="0" transform="matrix(1,0,0,1,0,0)" display="none"></rect><text joint-selector="text" id="v-922" fill="#000000" font-size="14" text-anchor="middle" pointer-events="none"></text></g></g><g  display="none" style="display: none;"></g><g  id="v-928" display="none"><g  id="v-916"><path  end="source" d="M 26 0 L 0 13 L 26 26 z"></path></g><g  id="v-917"><path  end="target" d="M 26 0 L 0 13 L 26 26 z"></path></g></g><g  id="v-927" display="none"><g  id="v-915" transform="translate(2186.1390676354104, 1546.1443729458358) "><g  event="remove"><circle r="11"></circle><path transform="scale(.8) translate(-16, -16)" d="M24.778,21.419 19.276,15.917 24.777,10.415 21.949,7.585 16.447,13.087 10.945,7.585 8.117,10.415 13.618,15.917 8.116,21.419 10.946,24.248 16.447,18.746 21.948,24.248z"></path><title>Remove link.</title></g><g  event="link:options"><circle r="11" transform="translate(25)"></circle><path fill="white" transform="scale(.55) translate(29, -16)" d="M31.229,17.736c0.064-0.571,0.104-1.148,0.104-1.736s-0.04-1.166-0.104-1.737l-4.377-1.557c-0.218-0.716-0.504-1.401-0.851-2.05l1.993-4.192c-0.725-0.91-1.549-1.734-2.458-2.459l-4.193,1.994c-0.647-0.347-1.334-0.632-2.049-0.849l-1.558-4.378C17.165,0.708,16.588,0.667,16,0.667s-1.166,0.041-1.737,0.105L12.707,5.15c-0.716,0.217-1.401,0.502-2.05,0.849L6.464,4.005C5.554,4.73,4.73,5.554,4.005,6.464l1.994,4.192c-0.347,0.648-0.632,1.334-0.849,2.05l-4.378,1.557C0.708,14.834,0.667,15.412,0.667,16s0.041,1.165,0.105,1.736l4.378,1.558c0.217,0.715,0.502,1.401,0.849,2.049l-1.994,4.193c0.725,0.909,1.549,1.733,2.459,2.458l4.192-1.993c0.648,0.347,1.334,0.633,2.05,0.851l1.557,4.377c0.571,0.064,1.148,0.104,1.737,0.104c0.588,0,1.165-0.04,1.736-0.104l1.558-4.377c0.715-0.218,1.399-0.504,2.049-0.851l4.193,1.993c0.909-0.725,1.733-1.549,2.458-2.458l-1.993-4.193c0.347-0.647,0.633-1.334,0.851-2.049L31.229,17.736zM16,20.871c-2.69,0-4.872-2.182-4.872-4.871c0-2.69,2.182-4.872,4.872-4.872c2.689,0,4.871,2.182,4.871,4.872C20.871,18.689,18.689,20.871,16,20.871z"></path><title>Link options.</title></g></g></g></g><!--z-index:40--><g   id="j_71" ><path  stroke="#707070" d="M 2049 1801 L 2549 2401" id="v-941" stroke-width="2" stroke-dasharray="30 30" fill="none" style="opacity: 1;"></path><path  fill="black" stroke="black" d="M 0 0 0 0" transform="matrix(0.6401844186703123,0.7682212637591818,-0.7682212637591818,0.6401844186703123,2049,1801)"></path><path  fill="#707070" stroke="#707070" d="M 20 0 L 0 10 L 20 20 z" id="v-943" transform="matrix(-0.6401844186703125,-0.7682212637591816,0.7682212637591816,-0.6401844186703125,2541.3177760803615,2407.4019279180447)" style="opacity: 1;"></path><path  d="M 2049 1801 L 2549 2401" id="v-942" fill="none" style="cursor: auto; pointer-events: visiblepainted;"></path><g ><g id="v-935"  label-idx="0" cursor="move" transform="matrix(1,0,0,1,2299,2101)" style="cursor: default; opacity: 1;"><rect joint-selector="rect" id="v-938" fill="#ffffff" rx="3" ry="3" pointer-events="none" width="144.9153594970703" height="60.98615837097168" transform="matrix(1,0,0,1,-71.2,-30.5)"></rect><text joint-selector="text" id="v-937" font-size="24px" xml:space="preserve" y="0.8em" fill="#707070" text-anchor="middle" pointer-events="none" font-family="Open Sans" font-weight="normal" transform="matrix(1,0,0,1,0,-25.6)"><tspan dy="0" >Sends logs &amp;</tspan><tspan dy="1.2em" x="0" >metrics to</tspan></text></g><g id="v-936"  label-idx="1" cursor="move" transform="matrix(1,0,0,1,2289,2141.800048828125)" style="cursor: default; opacity: 1;"><rect joint-selector="rect" id="v-940" fill="#ffffff" rx="3" ry="3"  width="0" height="0" transform="matrix(1,0,0,1,0,0)" display="none"></rect><text joint-selector="text" id="v-939" fill="#000000" font-size="14" text-anchor="middle" pointer-events="none"></text></g></g><g  display="none" style="display: none;"></g><g  id="v-945" display="none"><g  id="v-933"><path  end="source" d="M 26 0 L 0 13 L 26 26 z"></path></g><g  id="v-934"><path  end="target" d="M 26 0 L 0 13 L 26 26 z"></path></g></g><g  id="v-944" display="none"><g  id="v-932" transform="translate(2074.607375986579, 1831.7288511838951) "><g  event="remove"><circle r="11"></circle><path transform="scale(.8) translate(-16, -16)" d="M24.778,21.419 19.276,15.917 24.777,10.415 21.949,7.585 16.447,13.087 10.945,7.585 8.117,10.415 13.618,15.917 8.116,21.419 10.946,24.248 16.447,18.746 21.948,24.248z"></path><title>Remove link.</title></g><g  event="link:options"><circle r="11" transform="translate(25)"></circle><path fill="white" transform="scale(.55) translate(29, -16)" d="M31.229,17.736c0.064-0.571,0.104-1.148,0.104-1.736s-0.04-1.166-0.104-1.737l-4.377-1.557c-0.218-0.716-0.504-1.401-0.851-2.05l1.993-4.192c-0.725-0.91-1.549-1.734-2.458-2.459l-4.193,1.994c-0.647-0.347-1.334-0.632-2.049-0.849l-1.558-4.378C17.165,0.708,16.588,0.667,16,0.667s-1.166,0.041-1.737,0.105L12.707,5.15c-0.716,0.217-1.401,0.502-2.05,0.849L6.464,4.005C5.554,4.73,4.73,5.554,4.005,6.464l1.994,4.192c-0.347,0.648-0.632,1.334-0.849,2.05l-4.378,1.557C0.708,14.834,0.667,15.412,0.667,16s0.041,1.165,0.105,1.736l4.378,1.558c0.217,0.715,0.502,1.401,0.849,2.049l-1.994,4.193c0.725,0.909,1.549,1.733,2.459,2.458l4.192-1.993c0.648,0.347,1.334,0.633,2.05,0.851l1.557,4.377c0.571,0.064,1.148,0.104,1.737,0.104c0.588,0,1.165-0.04,1.736-0.104l1.558-4.377c0.715-0.218,1.399-0.504,2.049-0.851l4.193,1.993c0.909-0.725,1.733-1.549,2.458-2.458l-1.993-4.193c0.347-0.647,0.633-1.334,0.851-2.049L31.229,17.736zM16,20.871c-2.69,0-4.872-2.182-4.872-4.871c0-2.69,2.182-4.872,4.872-4.872c2.689,0,4.871,2.182,4.871,4.872C20.871,18.689,18.689,20.871,16,20.871z"></path><title>Link options.</title></g></g></g></g><!--z-index:41--><!--z-index:42--><!--z-index:43--><!--z-index:44--><!--z-index:45--><!--z-index:46--><!--z-index:47--><!--z-index:48--><!--z-index:49--><!--z-index:50--><!--z-index:51--><!--z-index:52--><!--z-index:53--><!--z-index:54--><!--z-index:55--><!--z-index:56--><!--z-index:57--><!--z-index:58--><!--z-index:59--><!--z-index:60--></g><g ></g><g ></g><g ></g></g></svg>