<svg xmlns="http://www.w3.org/2000/svg" xmlns:xlink="http://www.w3.org/1999/xlink" version="1.1" viewBox="0 0 3140 2091" style="background: #ffffff"><defs><style>@import url(https://fonts.googleapis.com/css?family=Open+Sans:400,700);</style></defs><defs joint-selector="defs"></defs><g joint-selector="layers"  transform="matrix(1,0,0,1,0,0)"><g ></g><g ><!--z-index:1--><!--z-index:2--><!--z-index:3--><!--z-index:4--><!--z-index:5--><!--z-index:6--><!--z-index:7--><!--z-index:8--><!--z-index:9--><!--z-index:10--><!--z-index:11--><!--z-index:12--><!--z-index:13--><!--z-index:14--><!--z-index:15--><!--z-index:16--><!--z-index:17--><g   id="j_7"  transform="translate(20,2054.6)"><g id="v-52"><text  id="v-53" font-size="22px" xml:space="preserve" y="0.8em" font-weight="normal" text-anchor="start" fill="#aaaaaa" pointer-events="none" display="block" font-family="Open Sans"><tspan dy="0"  display="none">Friday, July 18, 2025 at 6:45 AM West Africa Standard Time</tspan></text></g></g><!--z-index:18--><g   id="j_6"  transform="translate(20,2011.3999999999999)"><g id="v-50"><text  id="v-51" font-size="36px" xml:space="preserve" y="0.8em" font-weight="normal" text-anchor="start" fill="#000000" pointer-events="none" display="block" font-family="Open Sans"><tspan dy="0"  display="none">Monitoring &amp; Observability Service - Container View</tspan></text></g></g><!--z-index:19--><g   id="j_8"  transform="translate(1745,165)" style=""><g  id="v-57" style="opacity: 1;"><rect  x="0" y="160" width="400" height="240" rx="70" id="v-59" stroke="#05a1c8" stroke-width="2" pointer-events="visiblePainted" fill="#06b3de" style="fill: rgb(6, 179, 222); stroke: rgb(5, 161, 200);"></rect><circle  cx="200" cy="88.88888888888889" r="88.88888888888889" id="v-58" stroke="#05a1c8" stroke-width="2" pointer-events="visiblePainted" fill="#06b3de" style="fill: rgb(6, 179, 222); stroke: rgb(5, 161, 200);"></circle><line  x1="80" y1="266.6666666666667" x2="80" y2="400" id="v-65" stroke="#05a1c8" stroke-width="2" style="stroke: rgb(5, 161, 200);"></line><line  x1="320" y1="266.6666666666667" x2="320" y2="400" id="v-66" stroke="#05a1c8" stroke-width="2" style="stroke: rgb(5, 161, 200);"></line><text  id="v-60" font-size="34" xml:space="preserve" y="0.8em" font-weight="bold" text-anchor="middle" pointer-events="visible" font-family="Open Sans" fill="#ffffff" transform="matrix(1,0,0,1,200,203.7)" style="fill: rgb(255, 255, 255);"><tspan dy="0" >Platform Admin</tspan></text><text  id="v-61" font-size="17" xml:space="preserve" y="0.8em" text-anchor="middle" font-family="Open Sans" fill="#ffffff" transform="matrix(1,0,0,1,200,244.5)" style="fill: rgb(255, 255, 255);"><tspan dy="0" >[Person]</tspan></text><text  id="v-62" font-size="24" xml:space="preserve" y="0.8em" text-anchor="middle" font-family="Open Sans" fill="#ffffff" transform="matrix(1,0,0,1,200,274.9)" style="fill: rgb(255, 255, 255);"><tspan dy="0" >Responsible for monitoring</tspan><tspan dy="1.2em" x="0" >infrastructure and application</tspan><tspan dy="1.2em" x="0" >health.</tspan></text><g  id="v-63" font-weight="normal" text-anchor="middle" color="#ffffff" transform="matrix(1,0,0,1,197.5,368)" display="none" style="fill: rgb(255, 255, 255);"><g ></g><g ></g><g ></g><g ></g></g><image  id="v-64"></image></g></g><!--z-index:20--><g   id="j_10"  transform="translate(200,845)" style=""><g id="v-83"><rect  id="v-84" width="2740" height="1011" rx="0" ry="0" fill="#ffffff" stroke="#c7c7c7" stroke-width="1" stroke-dasharray="20,20" pointer-events="none"></rect><text  id="v-85" font-size="24px" xml:space="preserve" y="972" font-weight="normal" fill="#c7c7c7" text-anchor="start" pointer-events="visible" font-family="Open Sans" transform="matrix(1,0,0,1,15,0)"><tspan dy="0" >Monitoring &amp; Observability Service</tspan></text><text  id="v-86" font-size="17px" xml:space="preserve" y="996" font-weight="normal" fill="#c7c7c7" text-anchor="start" pointer-events="visible" font-family="Open Sans" transform="matrix(1,0,0,1,15,0)"><tspan dy="0" >[Software System]</tspan></text><image  id="v-87" pointer-events="visible"></image></g></g><!--z-index:21--><g   id="j_9"  transform="translate(220,1240)" style=""><g  id="v-76" style="opacity: 1;"><rect  id="v-77" rx="20" ry="20" stroke="#003049" stroke-width="6" pointer-events="visiblePainted" fill="#d6f0ff" width="450" height="300" style="fill: rgb(214, 240, 255); stroke: rgb(0, 48, 73);"></rect><text  id="v-78" font-size="34" xml:space="preserve" y="0.8em" font-weight="bold" text-anchor="middle" pointer-events="visible" font-family="Open Sans" fill="#000000" transform="matrix(1,0,0,1,225,73.7)" style="fill: rgb(0, 0, 0);"><tspan dy="0" >Monitoring Agent</tspan></text><text  id="v-79" font-size="17" xml:space="preserve" y="0.8em" text-anchor="middle" font-family="Open Sans" fill="#000000" transform="matrix(1,0,0,1,225,114.5)" style="fill: rgb(0, 0, 0);"><tspan dy="0" >[Container: Node Exporter, Promtail, Fluent Bit]</tspan></text><text  id="v-80" font-size="24" xml:space="preserve" y="0.8em" text-anchor="middle" font-family="Open Sans" fill="#000000" transform="matrix(1,0,0,1,225,144.9)" style="fill: rgb(0, 0, 0);"><tspan dy="0" >Runs on each host or container,</tspan><tspan dy="1.2em" x="0" >exposing or forwarding metrics and</tspan><tspan dy="1.2em" x="0" >logs to Prometheus and Loki.</tspan></text><g  id="v-81" color="#000000" transform="matrix(1,0,0,1,222.5,268)" display="none" style="fill: rgb(0, 0, 0);"><g ></g><g ></g><g ></g><g ></g></g><image  id="v-82"></image></g></g><!--z-index:22--><g   id="j_11"  transform="translate(1720,1465)" style=""><g  id="v-94" style="opacity: 1;"><rect  id="v-95" rx="20" ry="20" stroke="#003049" stroke-width="6" pointer-events="visiblePainted" fill="#d6f0ff" width="450" height="300" style="fill: rgb(214, 240, 255); stroke: rgb(0, 48, 73);"></rect><text  id="v-96" font-size="34" xml:space="preserve" y="0.8em" font-weight="bold" text-anchor="middle" pointer-events="visible" font-family="Open Sans" fill="#000000" transform="matrix(1,0,0,1,225,73.7)" style="fill: rgb(0, 0, 0);"><tspan dy="0" >Prometheus Server</tspan></text><text  id="v-97" font-size="17" xml:space="preserve" y="0.8em" text-anchor="middle" font-family="Open Sans" fill="#000000" transform="matrix(1,0,0,1,225,114.5)" style="fill: rgb(0, 0, 0);"><tspan dy="0" >[Container: Prometheus]</tspan></text><text  id="v-98" font-size="24" xml:space="preserve" y="0.8em" text-anchor="middle" font-family="Open Sans" fill="#000000" transform="matrix(1,0,0,1,225,144.9)" style="fill: rgb(0, 0, 0);"><tspan dy="0" >Pulls metrics from Monitoring</tspan><tspan dy="1.2em" x="0" >Agents and stores them for</tspan><tspan dy="1.2em" x="0" >querying and alerting.</tspan></text><g  id="v-99" color="#000000" transform="matrix(1,0,0,1,222.5,268)" display="none" style="fill: rgb(0, 0, 0);"><g ></g><g ></g><g ></g><g ></g></g><image  id="v-100"></image></g></g><!--z-index:23--><g   id="j_12"  transform="translate(1720,865)" style=""><g  id="v-107" style="opacity: 1;"><rect  id="v-108" rx="20" ry="20" stroke="#003049" stroke-width="6" pointer-events="visiblePainted" fill="#d6f0ff" width="450" height="300" style="fill: rgb(214, 240, 255); stroke: rgb(0, 48, 73);"></rect><text  id="v-109" font-size="34" xml:space="preserve" y="0.8em" font-weight="bold" text-anchor="middle" pointer-events="visible" font-family="Open Sans" fill="#000000" transform="matrix(1,0,0,1,225,88.1)" style="fill: rgb(0, 0, 0);"><tspan dy="0" >Loki Log Aggregator</tspan></text><text  id="v-110" font-size="17" xml:space="preserve" y="0.8em" text-anchor="middle" font-family="Open Sans" fill="#000000" transform="matrix(1,0,0,1,225,128.9)" style="fill: rgb(0, 0, 0);"><tspan dy="0" >[Container: Grafana Loki]</tspan></text><text  id="v-111" font-size="24" xml:space="preserve" y="0.8em" text-anchor="middle" font-family="Open Sans" fill="#000000" transform="matrix(1,0,0,1,225,159.3)" style="fill: rgb(0, 0, 0);"><tspan dy="0" >Stores logs pushed from agents like</tspan><tspan dy="1.2em" x="0" >Promtail or Fluent Bit.</tspan></text><g  id="v-112" color="#000000" transform="matrix(1,0,0,1,222.5,268)" display="none" style="fill: rgb(0, 0, 0);"><g ></g><g ></g><g ></g><g ></g></g><image  id="v-113"></image></g></g><!--z-index:24--><g   id="j_13"  transform="translate(2470,865)" style=""><g  id="v-120" style="opacity: 1;"><rect  id="v-121" rx="20" ry="20" stroke="#003049" stroke-width="6" pointer-events="visiblePainted" fill="#d6f0ff" width="450" height="300" style="fill: rgb(214, 240, 255); stroke: rgb(0, 48, 73);"></rect><text  id="v-122" font-size="34" xml:space="preserve" y="0.8em" font-weight="bold" text-anchor="middle" pointer-events="visible" font-family="Open Sans" fill="#000000" transform="matrix(1,0,0,1,225,73.7)" style="fill: rgb(0, 0, 0);"><tspan dy="0" >Grafana Dashboard</tspan></text><text  id="v-123" font-size="17" xml:space="preserve" y="0.8em" text-anchor="middle" font-family="Open Sans" fill="#000000" transform="matrix(1,0,0,1,225,114.5)" style="fill: rgb(0, 0, 0);"><tspan dy="0" >[Container: Grafana]</tspan></text><text  id="v-124" font-size="24" xml:space="preserve" y="0.8em" text-anchor="middle" font-family="Open Sans" fill="#000000" transform="matrix(1,0,0,1,225,144.9)" style="fill: rgb(0, 0, 0);"><tspan dy="0" >Visualizes metrics and logs using</tspan><tspan dy="1.2em" x="0" >Prometheus and Loki as data</tspan><tspan dy="1.2em" x="0" >sources.</tspan></text><g  id="v-125" color="#000000" transform="matrix(1,0,0,1,222.5,268)" display="none" style="fill: rgb(0, 0, 0);"><g ></g><g ></g><g ></g><g ></g></g><image  id="v-126"></image></g></g><!--z-index:25--><g   id="j_14"  transform="translate(970,903)" style=""><g  id="v-133" style="opacity: 1;"><rect  id="v-134" rx="20" ry="20" stroke="#003049" stroke-width="6" pointer-events="visiblePainted" fill="#d6f0ff" width="450" height="300" style="fill: rgb(214, 240, 255); stroke: rgb(0, 48, 73);"></rect><text  id="v-135" font-size="34" xml:space="preserve" y="0.8em" font-weight="bold" text-anchor="middle" pointer-events="visible" font-family="Open Sans" fill="#000000" transform="matrix(1,0,0,1,225,88.1)" style="fill: rgb(0, 0, 0);"><tspan dy="0" >Log Pusher</tspan></text><text  id="v-136" font-size="17" xml:space="preserve" y="0.8em" text-anchor="middle" font-family="Open Sans" fill="#000000" transform="matrix(1,0,0,1,225,128.9)" style="fill: rgb(0, 0, 0);"><tspan dy="0" >[Container: Promtail / Fluent Bit]</tspan></text><text  id="v-137" font-size="24" xml:space="preserve" y="0.8em" text-anchor="middle" font-family="Open Sans" fill="#000000" transform="matrix(1,0,0,1,225,159.3)" style="fill: rgb(0, 0, 0);"><tspan dy="0" >Responsible for parsing and</tspan><tspan dy="1.2em" x="0" >pushing logs to Loki.</tspan></text><g  id="v-138" color="#000000" transform="matrix(1,0,0,1,222.5,268)" display="none" style="fill: rgb(0, 0, 0);"><g ></g><g ></g><g ></g><g ></g></g><image  id="v-139"></image></g></g><!--z-index:26--><g   id="j_15" ><path  stroke="#707070" d="M 1420 1042 L 1720 1026" id="v-152" stroke-width="2" stroke-dasharray="30 30" fill="none" style="opacity: 1;"></path><path  fill="black" stroke="black" d="M 0 0 0 0" transform="matrix(0.9987189044273799,-0.050601876836474796,0.050601876836474796,0.9987189044273799,1420,1041.5999755859375)"></path><path  fill="#707070" stroke="#707070" d="M 20 0 L 0 10 L 20 20 z" id="v-154" transform="matrix(-0.9987189044273799,0.050601876836475115,-0.050601876836475115,-0.9987189044273799,1720.506025195451,1036.387176135284)" style="opacity: 1;"></path><path  d="M 1420 1042 L 1720 1026" id="v-153" fill="none" style="cursor: auto; pointer-events: visiblepainted;"></path><g ><g id="v-146"  label-idx="0" cursor="move" transform="matrix(1,0,0,1,1570,1034)" style="cursor: default; opacity: 1;"><rect joint-selector="rect" id="v-149" fill="#ffffff" rx="3" ry="3" pointer-events="none" width="168.57000732421875" height="60.604291915893555" transform="matrix(1,0,0,1,-84.2,-30.3)"></rect><text joint-selector="text" id="v-148" font-size="24px" xml:space="preserve" y="0.8em" fill="#707070" text-anchor="middle" pointer-events="none" font-family="Open Sans" font-weight="normal" transform="matrix(1,0,0,1,0,-23.5)"><tspan dy="0" >Pushes</tspan><tspan dy="1.2em" x="0" >structured logs</tspan></text></g><g id="v-147"  label-idx="1" cursor="move" transform="matrix(1,0,0,1,1560,1074.800048828125)" style="cursor: default; opacity: 1;"><rect joint-selector="rect" id="v-151" fill="#ffffff" rx="3" ry="3"  width="0" height="0" transform="matrix(1,0,0,1,0,0)" display="none"></rect><text joint-selector="text" id="v-150" fill="#000000" font-size="14" text-anchor="middle" pointer-events="none"></text></g></g><g  display="none" style="display: none;"></g><g  id="v-156" display="none"><g  id="v-144"><path  end="source" d="M 26 0 L 0 13 L 26 26 z"></path></g><g  id="v-145"><path  end="target" d="M 26 0 L 0 13 L 26 26 z"></path></g></g><g  id="v-155" display="none"><g  id="v-143" transform="translate(1459.943232187113, 1039.869694283354) "><g  event="remove"><circle r="11"></circle><path transform="scale(.8) translate(-16, -16)" d="M24.778,21.419 19.276,15.917 24.777,10.415 21.949,7.585 16.447,13.087 10.945,7.585 8.117,10.415 13.618,15.917 8.116,21.419 10.946,24.248 16.447,18.746 21.948,24.248z"></path><title>Remove link.</title></g><g  event="link:options"><circle r="11" transform="translate(25)"></circle><path fill="white" transform="scale(.55) translate(29, -16)" d="M31.229,17.736c0.064-0.571,0.104-1.148,0.104-1.736s-0.04-1.166-0.104-1.737l-4.377-1.557c-0.218-0.716-0.504-1.401-0.851-2.05l1.993-4.192c-0.725-0.91-1.549-1.734-2.458-2.459l-4.193,1.994c-0.647-0.347-1.334-0.632-2.049-0.849l-1.558-4.378C17.165,0.708,16.588,0.667,16,0.667s-1.166,0.041-1.737,0.105L12.707,5.15c-0.716,0.217-1.401,0.502-2.05,0.849L6.464,4.005C5.554,4.73,4.73,5.554,4.005,6.464l1.994,4.192c-0.347,0.648-0.632,1.334-0.849,2.05l-4.378,1.557C0.708,14.834,0.667,15.412,0.667,16s0.041,1.165,0.105,1.736l4.378,1.558c0.217,0.715,0.502,1.401,0.849,2.049l-1.994,4.193c0.725,0.909,1.549,1.733,2.459,2.458l4.192-1.993c0.648,0.347,1.334,0.633,2.05,0.851l1.557,4.377c0.571,0.064,1.148,0.104,1.737,0.104c0.588,0,1.165-0.04,1.736-0.104l1.558-4.377c0.715-0.218,1.399-0.504,2.049-0.851l4.193,1.993c0.909-0.725,1.733-1.549,2.458-2.458l-1.993-4.193c0.347-0.647,0.633-1.334,0.851-2.049L31.229,17.736zM16,20.871c-2.69,0-4.872-2.182-4.872-4.871c0-2.69,2.182-4.872,4.872-4.872c2.689,0,4.871,2.182,4.871,4.872C20.871,18.689,18.689,20.871,16,20.871z"></path><title>Link options.</title></g></g></g></g><!--z-index:27--><g   id="j_16" ><path  stroke="#707070" d="M 2133 1465 L 2508 1165" id="v-169" stroke-width="2" stroke-dasharray="30 30" fill="none" style="opacity: 1;"></path><path  fill="black" stroke="black" d="M 0 0 0 0" transform="matrix(0.7808686753084833,-0.6246952152225709,0.6246952152225709,0.7808686753084833,2132.5,1465)"></path><path  fill="#707070" stroke="#707070" d="M 20 0 L 0 10 L 20 20 z" id="v-171" transform="matrix(-0.7808688416748545,0.6246950072646417,-0.6246950072646417,-0.7808688416748545,2513.747044739395,1172.8086865862897)" style="opacity: 1;"></path><path  d="M 2133 1465 L 2508 1165" id="v-170" fill="none" style="cursor: auto; pointer-events: visiblepainted;"></path><g ><g id="v-163"  label-idx="0" cursor="move" transform="matrix(1,0,0,1,2320.5,1315)" style="cursor: default; opacity: 1;"><rect joint-selector="rect" id="v-166" fill="#ffffff" rx="3" ry="3" pointer-events="none" width="195.53237915039062" height="60.604291915893555" transform="matrix(1,0,0,1,-97.7,-30.3)"></rect><text joint-selector="text" id="v-165" font-size="24px" xml:space="preserve" y="0.8em" fill="#707070" text-anchor="middle" pointer-events="none" font-family="Open Sans" font-weight="normal" transform="matrix(1,0,0,1,0,-23.5)"><tspan dy="0" >Feeds time-series</tspan><tspan dy="1.2em" x="0" >data</tspan></text></g><g id="v-164"  label-idx="1" cursor="move" transform="matrix(1,0,0,1,2310.5,1355.800048828125)" style="cursor: default; opacity: 1;"><rect joint-selector="rect" id="v-168" fill="#ffffff" rx="3" ry="3"  width="0" height="0" transform="matrix(1,0,0,1,0,0)" display="none"></rect><text joint-selector="text" id="v-167" fill="#000000" font-size="14" text-anchor="middle" pointer-events="none"></text></g></g><g  display="none" style="display: none;"></g><g  id="v-173" display="none"><g  id="v-161"><path  end="source" d="M 26 0 L 0 13 L 26 26 z"></path></g><g  id="v-162"><path  end="target" d="M 26 0 L 0 13 L 26 26 z"></path></g></g><g  id="v-172" display="none"><g  id="v-160" transform="translate(2164.234752377721, 1440.012198097823) "><g  event="remove"><circle r="11"></circle><path transform="scale(.8) translate(-16, -16)" d="M24.778,21.419 19.276,15.917 24.777,10.415 21.949,7.585 16.447,13.087 10.945,7.585 8.117,10.415 13.618,15.917 8.116,21.419 10.946,24.248 16.447,18.746 21.948,24.248z"></path><title>Remove link.</title></g><g  event="link:options"><circle r="11" transform="translate(25)"></circle><path fill="white" transform="scale(.55) translate(29, -16)" d="M31.229,17.736c0.064-0.571,0.104-1.148,0.104-1.736s-0.04-1.166-0.104-1.737l-4.377-1.557c-0.218-0.716-0.504-1.401-0.851-2.05l1.993-4.192c-0.725-0.91-1.549-1.734-2.458-2.459l-4.193,1.994c-0.647-0.347-1.334-0.632-2.049-0.849l-1.558-4.378C17.165,0.708,16.588,0.667,16,0.667s-1.166,0.041-1.737,0.105L12.707,5.15c-0.716,0.217-1.401,0.502-2.05,0.849L6.464,4.005C5.554,4.73,4.73,5.554,4.005,6.464l1.994,4.192c-0.347,0.648-0.632,1.334-0.849,2.05l-4.378,1.557C0.708,14.834,0.667,15.412,0.667,16s0.041,1.165,0.105,1.736l4.378,1.558c0.217,0.715,0.502,1.401,0.849,2.049l-1.994,4.193c0.725,0.909,1.549,1.733,2.459,2.458l4.192-1.993c0.648,0.347,1.334,0.633,2.05,0.851l1.557,4.377c0.571,0.064,1.148,0.104,1.737,0.104c0.588,0,1.165-0.04,1.736-0.104l1.558-4.377c0.715-0.218,1.399-0.504,2.049-0.851l4.193,1.993c0.909-0.725,1.733-1.549,2.458-2.458l-1.993-4.193c0.347-0.647,0.633-1.334,0.851-2.049L31.229,17.736zM16,20.871c-2.69,0-4.872-2.182-4.872-4.871c0-2.69,2.182-4.872,4.872-4.872c2.689,0,4.871,2.182,4.871,4.872C20.871,18.689,18.689,20.871,16,20.871z"></path><title>Link options.</title></g></g></g></g><!--z-index:28--><g   id="j_17" ><path  stroke="#707070" d="M 2170 1015 L 2470 1015" id="v-186" stroke-width="2" stroke-dasharray="30 30" fill="none" style="opacity: 1;"></path><path  fill="black" stroke="black" d="M 0 0 0 0" transform="matrix(0.9999999999999999,0,0,0.9999999999999999,2170,1015)"></path><path  fill="#707070" stroke="#707070" d="M 20 0 L 0 10 L 20 20 z" id="v-188" transform="matrix(-0.9999999999999999,1.224646799147353e-16,-1.224646799147353e-16,-0.9999999999999999,2470,1025)" style="opacity: 1;"></path><path  d="M 2170 1015 L 2470 1015" id="v-187" fill="none" style="cursor: auto; pointer-events: visiblepainted;"></path><g ><g id="v-180"  label-idx="0" cursor="move" transform="matrix(1,0,0,1,2320,1015)" style="cursor: default; opacity: 1;"><rect joint-selector="rect" id="v-183" fill="#ffffff" rx="3" ry="3" pointer-events="none" width="162.47386169433594" height="31.80428695678711" transform="matrix(1,0,0,1,-80.7,-15.9)"></rect><text joint-selector="text" id="v-182" font-size="24px" xml:space="preserve" y="0.8em" fill="#707070" text-anchor="middle" pointer-events="none" font-family="Open Sans" font-weight="normal" transform="matrix(1,0,0,1,0,-9.1)"><tspan dy="0" >Feeds log data</tspan></text></g><g id="v-181"  label-idx="1" cursor="move" transform="matrix(1,0,0,1,2310,1041.4000244140625)" style="cursor: default; opacity: 1;"><rect joint-selector="rect" id="v-185" fill="#ffffff" rx="3" ry="3"  width="0" height="0" transform="matrix(1,0,0,1,0,0)" display="none"></rect><text joint-selector="text" id="v-184" fill="#000000" font-size="14" text-anchor="middle" pointer-events="none"></text></g></g><g  display="none" style="display: none;"></g><g  id="v-190" display="none"><g  id="v-178"><path  end="source" d="M 26 0 L 0 13 L 26 26 z"></path></g><g  id="v-179"><path  end="target" d="M 26 0 L 0 13 L 26 26 z"></path></g></g><g  id="v-189" display="none"><g  id="v-177" transform="translate(2210, 1015.0000000000001) "><g  event="remove"><circle r="11"></circle><path transform="scale(.8) translate(-16, -16)" d="M24.778,21.419 19.276,15.917 24.777,10.415 21.949,7.585 16.447,13.087 10.945,7.585 8.117,10.415 13.618,15.917 8.116,21.419 10.946,24.248 16.447,18.746 21.948,24.248z"></path><title>Remove link.</title></g><g  event="link:options"><circle r="11" transform="translate(25)"></circle><path fill="white" transform="scale(.55) translate(29, -16)" d="M31.229,17.736c0.064-0.571,0.104-1.148,0.104-1.736s-0.04-1.166-0.104-1.737l-4.377-1.557c-0.218-0.716-0.504-1.401-0.851-2.05l1.993-4.192c-0.725-0.91-1.549-1.734-2.458-2.459l-4.193,1.994c-0.647-0.347-1.334-0.632-2.049-0.849l-1.558-4.378C17.165,0.708,16.588,0.667,16,0.667s-1.166,0.041-1.737,0.105L12.707,5.15c-0.716,0.217-1.401,0.502-2.05,0.849L6.464,4.005C5.554,4.73,4.73,5.554,4.005,6.464l1.994,4.192c-0.347,0.648-0.632,1.334-0.849,2.05l-4.378,1.557C0.708,14.834,0.667,15.412,0.667,16s0.041,1.165,0.105,1.736l4.378,1.558c0.217,0.715,0.502,1.401,0.849,2.049l-1.994,4.193c0.725,0.909,1.549,1.733,2.459,2.458l4.192-1.993c0.648,0.347,1.334,0.633,2.05,0.851l1.557,4.377c0.571,0.064,1.148,0.104,1.737,0.104c0.588,0,1.165-0.04,1.736-0.104l1.558-4.377c0.715-0.218,1.399-0.504,2.049-0.851l4.193,1.993c0.909-0.725,1.733-1.549,2.458-2.458l-1.993-4.193c0.347-0.647,0.633-1.334,0.851-2.049L31.229,17.736zM16,20.871c-2.69,0-4.872-2.182-4.872-4.871c0-2.69,2.182-4.872,4.872-4.872c2.689,0,4.871,2.182,4.871,4.872C20.871,18.689,18.689,20.871,16,20.871z"></path><title>Link options.</title></g></g></g></g><!--z-index:29--><g   id="j_18" ><path  stroke="#707070" d="M 2145 538 L 2522 865" id="v-203" stroke-width="2" stroke-dasharray="30 30" fill="none" style="opacity: 1;"></path><path  fill="black" stroke="black" d="M 0 0 0 0" transform="matrix(0.7556831121859336,0.6549374275127214,-0.6549374275127214,0.7556831121859336,2145,538.3300170898438)"></path><path  fill="#707070" stroke="#707070" d="M 20 0 L 0 10 L 20 20 z" id="v-205" transform="matrix(-0.755683155791029,-0.6549373772000734,0.6549373772000734,-0.755683155791029,2515.3707390359095,872.5568278885048)" style="opacity: 1;"></path><path  d="M 2145 538 L 2522 865" id="v-204" fill="none" style="cursor: auto; pointer-events: visiblepainted;"></path><g ><g id="v-197"  label-idx="0" cursor="move" transform="matrix(1,0,0,1,2333.5,701.5)" style="cursor: default; opacity: 1;"><rect joint-selector="rect" id="v-200" fill="#ffffff" rx="3" ry="3" pointer-events="none" width="181.51934814453125" height="89.40430068969727" transform="matrix(1,0,0,1,-90.8,-44.7)"></rect><text joint-selector="text" id="v-199" font-size="24px" xml:space="preserve" y="0.8em" fill="#707070" text-anchor="middle" pointer-events="none" font-family="Open Sans" font-weight="normal" transform="matrix(1,0,0,1,0,-37.9)"><tspan dy="0" >Views</tspan><tspan dy="1.2em" x="0" >dashboards and</tspan><tspan dy="1.2em" x="0" >sets up alerts</tspan></text></g><g id="v-198"  label-idx="1" cursor="move" transform="matrix(1,0,0,1,2323.5,756.7000122070312)" style="cursor: default; opacity: 1;"><rect joint-selector="rect" id="v-202" fill="#ffffff" rx="3" ry="3"  width="0" height="0" transform="matrix(1,0,0,1,0,0)" display="none"></rect><text joint-selector="text" id="v-201" fill="#000000" font-size="14" text-anchor="middle" pointer-events="none"></text></g></g><g  display="none" style="display: none;"></g><g  id="v-207" display="none"><g  id="v-195"><path  end="source" d="M 26 0 L 0 13 L 26 26 z"></path></g><g  id="v-196"><path  end="target" d="M 26 0 L 0 13 L 26 26 z"></path></g></g><g  id="v-206" display="none"><g  id="v-194" transform="translate(2175.2169825232704, 564.2094251594415) "><g  event="remove"><circle r="11"></circle><path transform="scale(.8) translate(-16, -16)" d="M24.778,21.419 19.276,15.917 24.777,10.415 21.949,7.585 16.447,13.087 10.945,7.585 8.117,10.415 13.618,15.917 8.116,21.419 10.946,24.248 16.447,18.746 21.948,24.248z"></path><title>Remove link.</title></g><g  event="link:options"><circle r="11" transform="translate(25)"></circle><path fill="white" transform="scale(.55) translate(29, -16)" d="M31.229,17.736c0.064-0.571,0.104-1.148,0.104-1.736s-0.04-1.166-0.104-1.737l-4.377-1.557c-0.218-0.716-0.504-1.401-0.851-2.05l1.993-4.192c-0.725-0.91-1.549-1.734-2.458-2.459l-4.193,1.994c-0.647-0.347-1.334-0.632-2.049-0.849l-1.558-4.378C17.165,0.708,16.588,0.667,16,0.667s-1.166,0.041-1.737,0.105L12.707,5.15c-0.716,0.217-1.401,0.502-2.05,0.849L6.464,4.005C5.554,4.73,4.73,5.554,4.005,6.464l1.994,4.192c-0.347,0.648-0.632,1.334-0.849,2.05l-4.378,1.557C0.708,14.834,0.667,15.412,0.667,16s0.041,1.165,0.105,1.736l4.378,1.558c0.217,0.715,0.502,1.401,0.849,2.049l-1.994,4.193c0.725,0.909,1.549,1.733,2.459,2.458l4.192-1.993c0.648,0.347,1.334,0.633,2.05,0.851l1.557,4.377c0.571,0.064,1.148,0.104,1.737,0.104c0.588,0,1.165-0.04,1.736-0.104l1.558-4.377c0.715-0.218,1.399-0.504,2.049-0.851l4.193,1.993c0.909-0.725,1.733-1.549,2.458-2.458l-1.993-4.193c0.347-0.647,0.633-1.334,0.851-2.049L31.229,17.736zM16,20.871c-2.69,0-4.872-2.182-4.872-4.871c0-2.69,2.182-4.872,4.872-4.872c2.689,0,4.871,2.182,4.871,4.872C20.871,18.689,18.689,20.871,16,20.871z"></path><title>Link options.</title></g></g></g></g><!--z-index:30--><g   id="j_19" ><path  stroke="#707070" d="M 670 1424 L 1720 1581" id="v-220" stroke-width="2" stroke-dasharray="30 30" fill="none" style="opacity: 1;"></path><path  fill="black" stroke="black" d="M 0 0 0 0" transform="matrix(0.9889363530663604,0.14834045160982468,-0.14834045160982468,0.9889363530663604,670,1423.75)"></path><path  fill="#707070" stroke="#707070" d="M 20 0 L 0 10 L 20 20 z" id="v-222" transform="matrix(-0.9889363629427212,-0.14834038576740385,0.14834038576740385,-0.9889363629427212,1718.5165554748783,1591.1393690496013)" style="opacity: 1;"></path><path  d="M 670 1424 L 1720 1581" id="v-221" fill="none" style="cursor: auto; pointer-events: visiblepainted;"></path><g ><g id="v-214"  label-idx="0" cursor="move" transform="matrix(1,0,0,1,1195,1502.5)" style="cursor: default; opacity: 1;"><rect joint-selector="rect" id="v-217" fill="#ffffff" rx="3" ry="3" pointer-events="none" width="180.76806640625" height="60.604291915893555" transform="matrix(1,0,0,1,-90.3,-30.3)"></rect><text joint-selector="text" id="v-216" font-size="24px" xml:space="preserve" y="0.8em" fill="#707070" text-anchor="middle" pointer-events="none" font-family="Open Sans" font-weight="normal" transform="matrix(1,0,0,1,0,-23.5)"><tspan dy="0" >Exposes metrics</tspan><tspan dy="1.2em" x="0" >over HTTP</tspan></text></g><g id="v-215"  label-idx="1" cursor="move" transform="matrix(1,0,0,1,1185,1543.300048828125)" style="cursor: default; opacity: 1;"><rect joint-selector="rect" id="v-219" fill="#ffffff" rx="3" ry="3"  width="0" height="0" transform="matrix(1,0,0,1,0,0)" display="none"></rect><text joint-selector="text" id="v-218" fill="#000000" font-size="14" text-anchor="middle" pointer-events="none"></text></g></g><g  display="none" style="display: none;"></g><g  id="v-224" display="none"><g  id="v-212"><path  end="source" d="M 26 0 L 0 13 L 26 26 z"></path></g><g  id="v-213"><path  end="target" d="M 26 0 L 0 13 L 26 26 z"></path></g></g><g  id="v-223" display="none"><g  id="v-211" transform="translate(709.5602133740314, 1429.91519380926) "><g  event="remove"><circle r="11"></circle><path transform="scale(.8) translate(-16, -16)" d="M24.778,21.419 19.276,15.917 24.777,10.415 21.949,7.585 16.447,13.087 10.945,7.585 8.117,10.415 13.618,15.917 8.116,21.419 10.946,24.248 16.447,18.746 21.948,24.248z"></path><title>Remove link.</title></g><g  event="link:options"><circle r="11" transform="translate(25)"></circle><path fill="white" transform="scale(.55) translate(29, -16)" d="M31.229,17.736c0.064-0.571,0.104-1.148,0.104-1.736s-0.04-1.166-0.104-1.737l-4.377-1.557c-0.218-0.716-0.504-1.401-0.851-2.05l1.993-4.192c-0.725-0.91-1.549-1.734-2.458-2.459l-4.193,1.994c-0.647-0.347-1.334-0.632-2.049-0.849l-1.558-4.378C17.165,0.708,16.588,0.667,16,0.667s-1.166,0.041-1.737,0.105L12.707,5.15c-0.716,0.217-1.401,0.502-2.05,0.849L6.464,4.005C5.554,4.73,4.73,5.554,4.005,6.464l1.994,4.192c-0.347,0.648-0.632,1.334-0.849,2.05l-4.378,1.557C0.708,14.834,0.667,15.412,0.667,16s0.041,1.165,0.105,1.736l4.378,1.558c0.217,0.715,0.502,1.401,0.849,2.049l-1.994,4.193c0.725,0.909,1.549,1.733,2.459,2.458l4.192-1.993c0.648,0.347,1.334,0.633,2.05,0.851l1.557,4.377c0.571,0.064,1.148,0.104,1.737,0.104c0.588,0,1.165-0.04,1.736-0.104l1.558-4.377c0.715-0.218,1.399-0.504,2.049-0.851l4.193,1.993c0.909-0.725,1.733-1.549,2.458-2.458l-1.993-4.193c0.347-0.647,0.633-1.334,0.851-2.049L31.229,17.736zM16,20.871c-2.69,0-4.872-2.182-4.872-4.871c0-2.69,2.182-4.872,4.872-4.872c2.689,0,4.871,2.182,4.871,4.872C20.871,18.689,18.689,20.871,16,20.871z"></path><title>Link options.</title></g></g></g></g><!--z-index:31--><g   id="j_20" ><path  stroke="#707070" d="M 670 1289 L 970 1154" id="v-237" stroke-width="2" stroke-dasharray="30 30" fill="none" style="opacity: 1;"></path><path  fill="black" stroke="black" d="M 0 0 0 0" transform="matrix(0.9121488472405823,-0.40985909832243156,0.40985909832243156,0.9121488472405823,670,1288.9000244140625)"></path><path  fill="#707070" stroke="#707070" d="M 20 0 L 0 10 L 20 20 z" id="v-239" transform="matrix(-0.9121489563926302,0.40985885540248534,-0.40985885540248534,-0.9121489563926302,974.0986181570137,1163.221509408339)" style="opacity: 1;"></path><path  d="M 670 1289 L 970 1154" id="v-238" fill="none" style="cursor: auto; pointer-events: visiblepainted;"></path><g ><g id="v-231"  label-idx="0" cursor="move" transform="matrix(1,0,0,1,820,1221.5)" style="cursor: default; opacity: 1;"><rect joint-selector="rect" id="v-234" fill="#ffffff" rx="3" ry="3" pointer-events="none" width="154.388671875" height="60.604291915893555" transform="matrix(1,0,0,1,-78.6,-30.3)"></rect><text joint-selector="text" id="v-233" font-size="24px" xml:space="preserve" y="0.8em" fill="#707070" text-anchor="middle" pointer-events="none" font-family="Open Sans" font-weight="normal" transform="matrix(1,0,0,1,0,-23.5)"><tspan dy="0" >Parses and</tspan><tspan dy="1.2em" x="0" >forwards logs</tspan></text></g><g id="v-232"  label-idx="1" cursor="move" transform="matrix(1,0,0,1,810,1262.300048828125)" style="cursor: default; opacity: 1;"><rect joint-selector="rect" id="v-236" fill="#ffffff" rx="3" ry="3"  width="0" height="0" transform="matrix(1,0,0,1,0,0)" display="none"></rect><text joint-selector="text" id="v-235" fill="#000000" font-size="14" text-anchor="middle" pointer-events="none"></text></g></g><g  display="none" style="display: none;"></g><g  id="v-241" display="none"><g  id="v-229"><path  end="source" d="M 26 0 L 0 13 L 26 26 z"></path></g><g  id="v-230"><path  end="target" d="M 26 0 L 0 13 L 26 26 z"></path></g></g><g  id="v-240" display="none"><g  id="v-228" transform="translate(706.4768602070043, 1272.5854129068482) "><g  event="remove"><circle r="11"></circle><path transform="scale(.8) translate(-16, -16)" d="M24.778,21.419 19.276,15.917 24.777,10.415 21.949,7.585 16.447,13.087 10.945,7.585 8.117,10.415 13.618,15.917 8.116,21.419 10.946,24.248 16.447,18.746 21.948,24.248z"></path><title>Remove link.</title></g><g  event="link:options"><circle r="11" transform="translate(25)"></circle><path fill="white" transform="scale(.55) translate(29, -16)" d="M31.229,17.736c0.064-0.571,0.104-1.148,0.104-1.736s-0.04-1.166-0.104-1.737l-4.377-1.557c-0.218-0.716-0.504-1.401-0.851-2.05l1.993-4.192c-0.725-0.91-1.549-1.734-2.458-2.459l-4.193,1.994c-0.647-0.347-1.334-0.632-2.049-0.849l-1.558-4.378C17.165,0.708,16.588,0.667,16,0.667s-1.166,0.041-1.737,0.105L12.707,5.15c-0.716,0.217-1.401,0.502-2.05,0.849L6.464,4.005C5.554,4.73,4.73,5.554,4.005,6.464l1.994,4.192c-0.347,0.648-0.632,1.334-0.849,2.05l-4.378,1.557C0.708,14.834,0.667,15.412,0.667,16s0.041,1.165,0.105,1.736l4.378,1.558c0.217,0.715,0.502,1.401,0.849,2.049l-1.994,4.193c0.725,0.909,1.549,1.733,2.459,2.458l4.192-1.993c0.648,0.347,1.334,0.633,2.05,0.851l1.557,4.377c0.571,0.064,1.148,0.104,1.737,0.104c0.588,0,1.165-0.04,1.736-0.104l1.558-4.377c0.715-0.218,1.399-0.504,2.049-0.851l4.193,1.993c0.909-0.725,1.733-1.549,2.458-2.458l-1.993-4.193c0.347-0.647,0.633-1.334,0.851-2.049L31.229,17.736zM16,20.871c-2.69,0-4.872-2.182-4.872-4.871c0-2.69,2.182-4.872,4.872-4.872c2.689,0,4.871,2.182,4.871,4.872C20.871,18.689,18.689,20.871,16,20.871z"></path><title>Link options.</title></g></g></g></g><!--z-index:32--></g><g ></g><g ></g><g ></g></g></svg>